<?xml version="1.0" standalone="no"?>
<!DOCTYPE svg PUBLIC "-//W3C//DTD SVG 20010904//EN"
 "http://www.w3.org/TR/2001/REC-SVG-20010904/DTD/svg10.dtd">
<svg version="1.0" xmlns="http://www.w3.org/2000/svg"
 width="1103.000000pt" height="1103.000000pt" viewBox="0 0 1103.000000 1103.000000"
 preserveAspectRatio="xMidYMid meet">
<metadata>
Created by potrace 1.14, written by Peter Selinger 2001-2017
</metadata>
<g transform="translate(0.000000,1103.000000) scale(0.100000,-0.100000)"
fill="#000000" stroke="none">
<path d="M0 5520 l0 -5250 5515 0 5515 0 0 5250 0 5250 -5515 0 -5515 0 0
-5250z m5676 3470 c700 -54 1320 -331 1820 -812 453 -436 755 -1012 853 -1629
41 -254 50 -569 22 -771 l-8 -58 239 0 238 0 0 -50 0 -50 -1430 0 -1430 0 0
53 0 52 1132 -3 c955 -2 1130 0 1118 11 -8 8 -96 64 -195 124 -99 61 -313 192
-475 293 l-294 182 -304 49 c-166 27 -313 49 -326 49 -21 0 -31 -17 -86 -156
-35 -85 -69 -162 -77 -170 -11 -11 -48 -14 -173 -14 l-159 0 -169 -139 c-93
-76 -179 -144 -191 -151 -30 -15 -43 -6 -194 137 -67 64 -167 160 -222 212
-154 147 -126 134 -230 106 l-88 -25 -135 60 c-74 33 -138 60 -143 60 -4 0 5
-21 21 -47 21 -33 28 -55 23 -71 -8 -31 -49 -47 -74 -30 -16 11 -221 336 -265
421 -12 22 -21 27 -54 27 -45 0 -46 -2 -25 -80 8 -30 15 -64 15 -76 0 -13 -38
-62 -96 -125 -72 -77 -142 -172 -270 -366 -96 -144 -174 -267 -174 -272 0 -7
80 -10 230 -8 l230 2 0 -52 0 -53 -1115 0 -1115 0 0 53 0 52 237 0 238 0 -5
75 c-12 173 -4 554 14 675 99 684 418 1291 920 1753 588 542 1389 823 2172
762z m-346 -3420 l0 -50 -385 0 -385 0 0 50 0 50 385 0 385 0 0 -50z m-1210
-105 l0 -55 -240 0 -240 0 0 55 0 55 240 0 240 0 0 -55z m2890 0 l0 -55 -605
0 -605 0 0 55 0 55 605 0 605 0 0 -55z m-4299 -470 c24 -17 57 -50 74 -74 28
-39 30 -50 33 -143 5 -122 -11 -172 -69 -222 -22 -18 -63 -41 -92 -49 -29 -9
-42 -16 -29 -16 12 -1 39 -8 60 -16 90 -38 132 -117 132 -250 0 -105 -17 -152
-75 -208 -62 -60 -102 -67 -392 -67 l-253 0 0 540 0 541 284 -3 284 -3 43 -30z
m989 -25 l0 -60 -180 0 -180 0 0 -180 0 -180 120 0 120 0 0 -60 0 -60 -120 0
-120 0 0 -180 0 -180 180 0 180 0 0 -60 0 -60 -300 0 -300 0 0 540 0 540 300
0 300 0 0 -60z m910 -420 l0 -480 180 0 180 0 0 -60 0 -60 -300 0 -300 0 0
540 0 540 120 0 120 0 0 -480z m1251 445 c24 -17 57 -53 74 -80 l30 -48 3
-351 c3 -411 3 -416 -73 -492 -68 -68 -108 -77 -315 -72 -136 3 -160 6 -196
25 -52 28 -111 95 -124 142 -6 21 -10 184 -10 381 0 341 0 346 24 395 24 53
70 99 121 121 22 10 79 13 227 11 l196 -2 43 -30z m984 16 c68 -31 104 -86
120 -178 l7 -43 -61 0 c-60 0 -62 1 -67 29 -3 15 -16 41 -29 57 -23 28 -25 29
-133 32 -122 4 -142 -2 -172 -51 -19 -30 -20 -53 -20 -369 l0 -336 26 -31 c34
-40 84 -54 182 -50 69 4 84 8 106 28 15 14 30 39 34 55 8 30 10 31 70 34 71 3
70 4 46 -77 -8 -30 -30 -69 -51 -92 -54 -60 -107 -71 -311 -67 -184 3 -209 10
-272 71 -69 67 -70 72 -70 470 0 392 0 392 61 462 60 68 88 75 304 75 164 0
196 -3 230 -19z m973 3 c47 -19 97 -67 125 -119 21 -39 22 -51 25 -492 l3
-453 -120 0 c-117 0 -121 1 -126 23 -2 12 -4 120 -2 240 l2 217 -117 0 -118 0
0 -240 0 -240 -125 0 -126 0 3 453 c3 441 4 453 25 492 27 50 78 99 123 119
51 22 375 22 428 0z m662 -464 l0 -480 180 0 180 0 0 -60 0 -60 -300 0 -300 0
0 540 0 540 120 0 120 0 0 -480z m-962 -1099 c26 -14 28 -24 7 -41 -11 -9 -19
-8 -37 4 -57 40 -138 -7 -138 -79 0 -27 8 -44 29 -66 33 -33 58 -36 103 -13
27 14 32 14 45 1 13 -12 11 -17 -14 -37 -23 -18 -37 -21 -86 -18 -49 4 -63 9
-90 36 -29 30 -32 38 -32 97 0 57 3 67 30 95 46 48 118 56 183 21z m-4718 -97
l0 -116 68 3 c63 4 67 3 70 -18 3 -22 1 -23 -87 -23 l-91 0 0 135 c0 128 1
135 20 135 19 0 20 -7 20 -116z m476 83 c66 -60 56 -171 -19 -217 -70 -43
-174 -14 -203 55 -43 103 20 195 134 195 45 0 57 -4 88 -33z m385 14 c20 -16
21 -21 10 -35 -12 -14 -16 -14 -42 -1 -41 22 -77 18 -104 -9 -36 -36 -42 -73
-19 -115 26 -48 72 -62 120 -36 32 17 36 17 51 2 15 -14 13 -17 -18 -36 -41
-25 -108 -27 -149 -6 -33 17 -70 80 -70 120 0 38 36 102 68 119 40 22 124 20
153 -3z m338 -84 c81 -188 75 -167 46 -167 -19 0 -28 8 -39 35 -15 35 -16 35
-76 35 -60 0 -61 0 -76 -35 -11 -27 -20 -35 -40 -35 -14 0 -24 4 -22 9 2 5 28
66 58 135 49 113 58 126 80 126 22 0 30 -12 69 -103z m241 -13 l0 -116 68 4
c63 3 67 2 70 -19 3 -22 1 -23 -92 -23 l-96 0 0 135 0 135 25 0 25 0 0 -116z
m657 96 c-1 -18 -8 -20 -79 -20 l-78 0 0 -35 0 -35 70 0 c68 0 70 -1 70 -25 0
-24 -2 -25 -70 -25 l-70 0 0 -35 0 -35 80 0 c73 0 80 -2 80 -20 0 -19 -7 -20
-100 -20 l-100 0 0 135 0 135 99 0 c94 0 100 -1 98 -20z m205 -29 l33 -49 33
49 c24 37 39 49 57 49 14 0 25 -2 25 -5 0 -3 -18 -30 -40 -60 -22 -30 -40 -59
-40 -66 0 -6 20 -40 46 -75 l45 -64 -29 0 c-23 0 -35 10 -64 51 l-36 52 -34
-51 c-27 -42 -38 -52 -62 -52 l-28 0 18 28 c10 15 30 45 46 66 15 21 28 42 28
45 0 4 -20 35 -45 69 l-45 62 30 0 c25 0 35 -8 62 -49z m457 23 c24 -20 31
-34 31 -62 -1 -62 -38 -92 -114 -92 l-46 0 0 -45 c0 -41 -2 -45 -25 -45 l-25
0 0 135 0 135 74 0 c66 0 78 -3 105 -26z m351 6 c0 -18 -7 -20 -75 -20 l-75 0
0 -35 0 -35 70 0 c68 0 70 -1 70 -25 0 -24 -2 -25 -70 -25 l-70 0 0 -35 0 -35
80 0 c73 0 80 -2 80 -20 0 -19 -7 -20 -105 -20 l-105 0 0 135 0 135 100 0 c93
0 100 -1 100 -20z m331 -9 c38 -39 38 -74 -2 -113 l-30 -31 30 -43 c37 -51 38
-54 7 -54 -18 0 -34 13 -57 45 -25 35 -39 45 -61 45 -27 0 -28 -2 -28 -45 0
-41 -2 -45 -25 -45 l-25 0 0 135 0 135 81 0 c76 0 82 -2 110 -29z m209 -106
l0 -135 -25 0 -25 0 0 135 0 135 25 0 25 0 0 -135z m350 115 c0 -18 -7 -20
-75 -20 l-75 0 0 -35 0 -35 65 0 c63 0 65 -1 65 -25 0 -24 -2 -25 -65 -25
l-65 0 0 -35 0 -35 75 0 c68 0 75 -2 75 -20 0 -19 -7 -20 -100 -20 l-100 0 0
135 0 135 100 0 c93 0 100 -1 100 -20z m245 -70 l70 -91 3 91 c3 88 3 90 27
90 l25 0 0 -135 c0 -134 0 -135 -23 -135 -18 0 -40 23 -93 92 l-69 91 -3 -91
c-3 -90 -3 -92 -27 -92 l-25 0 0 135 c0 134 0 135 23 135 17 0 41 -23 92 -90z
m825 70 c0 -18 -7 -20 -75 -20 l-75 0 0 -35 0 -35 65 0 c63 0 65 -1 65 -25 0
-24 -2 -25 -65 -25 l-65 0 0 -35 0 -35 75 0 c68 0 75 -2 75 -20 0 -19 -7 -20
-100 -20 l-100 0 0 135 0 135 100 0 c93 0 100 -1 100 -20z m283 9 c30 -16 30
-15 17 -38 -10 -20 -13 -20 -33 -6 -27 19 -71 19 -87 0 -19 -23 -5 -41 42 -53
25 -6 57 -21 71 -32 58 -46 17 -130 -63 -130 -56 0 -113 25 -108 47 4 20 19
21 64 2 43 -17 86 -5 82 23 -2 17 -18 28 -66 46 -46 18 -66 31 -73 49 -12 32
-2 70 24 88 25 18 99 20 130 4z m-2995 -1258 c132 -131 259 -253 281 -270 l40
-32 274 271 c151 148 282 270 291 270 21 0 56 -35 56 -57 0 -19 -280 -305
-474 -484 -97 -90 -135 -119 -155 -119 -21 0 -73 45 -246 209 -249 236 -375
370 -375 399 0 25 25 52 49 52 10 0 126 -107 259 -239z"/>
<path d="M5240 8884 c-1212 -109 -2216 -973 -2498 -2149 -39 -161 -59 -293
-72 -477 -11 -140 -4 -415 10 -437 4 -8 60 20 166 82 87 52 418 246 734 432
316 186 583 344 593 351 16 10 -21 25 -258 104 -267 89 -276 93 -271 116 13
50 27 76 39 71 6 -2 166 -54 353 -116 304 -99 350 -111 412 -111 l71 0 48 -80
c26 -44 50 -80 53 -80 3 0 17 35 30 77 35 111 111 233 205 328 274 279 701
336 1049 141 230 -129 397 -382 431 -653 l7 -53 117 60 116 60 350 -55 c193
-31 364 -62 381 -69 17 -8 239 -143 494 -300 255 -158 466 -284 469 -280 3 3
6 119 6 257 -1 213 -4 274 -24 397 -74 472 -253 895 -540 1278 -118 158 -363
405 -521 526 -384 294 -827 484 -1300 557 -101 15 -195 21 -370 24 -129 1
-255 1 -280 -1z m283 -1016 c4 -116 7 -255 7 -309 l0 -97 -55 -4 -55 -3 0 313
0 312 48 0 49 0 6 -212z m-366 -125 c34 -164 60 -300 58 -301 -9 -10 -89 -22
-96 -15 -4 4 -33 134 -64 288 -31 154 -59 288 -61 297 -5 17 12 23 77 27 l25
1 61 -297z m812 265 c12 -4 21 -14 19 -21 -3 -6 -40 -143 -84 -304 -79 -291
-79 -292 -104 -286 -14 3 -37 11 -51 17 l-27 11 74 265 c40 146 78 282 84 303
12 40 19 41 89 15z m-1157 -379 c81 -151 147 -278 147 -284 1 -9 -69 -55 -83
-55 -6 0 -309 570 -305 574 31 22 76 45 84 43 5 -2 76 -127 157 -278z m1611
196 c17 -12 8 -28 -116 -221 -73 -115 -155 -244 -181 -286 l-48 -78 -44 31
-44 30 52 82 c28 45 109 173 181 284 l129 203 27 -16 c14 -8 34 -21 44 -29z
m-1919 -413 c109 -129 196 -234 194 -235 -2 -1 -19 -17 -39 -35 l-36 -33 -198
233 c-109 128 -207 243 -219 256 l-21 24 39 35 38 35 23 -23 c12 -13 111 -129
219 -257z m2223 108 c-29 -30 -143 -149 -252 -263 l-198 -208 -38 37 -37 37
251 263 251 264 38 -37 38 -37 -53 -56z m-2582 -285 c116 -71 251 -153 300
-183 50 -30 91 -56 93 -57 2 -2 -9 -23 -25 -47 l-28 -44 -260 158 c-143 87
-281 171 -308 188 l-47 29 27 45 c15 25 30 43 33 41 3 -1 100 -60 215 -130z
m2930 9 c15 -25 25 -47 23 -48 -1 -2 -120 -65 -263 -141 -143 -76 -296 -157
-341 -181 l-80 -44 -23 46 c-12 26 -20 49 -17 51 4 4 631 341 673 362 0 1 13
-20 28 -45z m243 -489 c-6 -4 -753 -155 -769 -155 -11 0 -19 15 -26 48 l-10
49 381 77 c210 43 386 79 391 80 9 3 41 -93 33 -99z"/>
<path d="M5365 7141 c-300 -48 -539 -254 -625 -538 -12 -39 -20 -81 -18 -93 2
-17 36 -36 169 -95 l166 -74 84 25 c45 13 92 24 103 24 13 0 72 -48 150 -122
l128 -122 238 122 237 122 120 0 119 0 -8 78 c-33 310 -262 575 -565 653 -89
22 -225 32 -298 20z"/>
<path d="M3534 6186 c-402 -237 -742 -439 -755 -448 -23 -16 4 -17 456 -17
374 -1 484 1 497 11 8 7 103 146 210 308 142 215 217 319 277 382 l82 87 -12
48 c-6 26 -14 51 -18 54 -3 3 -335 -188 -737 -425z"/>
<path d="M6380 6335 l-85 -44 -128 0 -128 -1 -212 -106 c-117 -59 -214 -109
-216 -111 -6 -4 141 -153 151 -153 4 0 47 33 95 73 48 40 125 103 171 140 l83
67 148 0 147 0 36 90 c20 50 33 90 30 89 -4 0 -45 -20 -92 -44z"/>
<path d="M2342 4733 l3 -178 55 -3 c73 -4 123 12 154 49 24 29 26 37 26 136
l0 105 -34 34 c-33 33 -35 34 -120 34 l-86 0 2 -177z"/>
<path d="M2340 4250 l0 -182 86 3 c84 4 86 5 120 41 l34 38 0 109 c0 102 -2
112 -24 138 -23 26 -29 28 -120 31 l-96 4 0 -182z"/>
<path d="M5544 4891 c-17 -11 -36 -34 -43 -52 -7 -21 -11 -140 -11 -353 0
-303 1 -323 20 -354 29 -47 79 -69 128 -54 21 6 49 23 63 38 l24 26 3 339 c2
290 1 343 -13 369 -30 58 -112 77 -171 41z"/>
<path d="M7524 4876 l-34 -34 0 -146 0 -147 117 3 118 3 -2 125 c-1 69 -2 133
-2 144 -1 10 -16 33 -35 52 -29 29 -41 34 -81 34 -40 0 -52 -5 -81 -34z"/>
<path d="M3127 3410 c-70 -55 -26 -170 64 -170 11 0 34 13 50 29 80 81 -25
211 -114 141z"/>
<path d="M3906 3360 c-9 -22 -16 -43 -16 -45 0 -3 18 -5 41 -5 35 0 40 3 34
18 -4 9 -12 29 -17 45 -14 37 -23 34 -42 -13z"/>
<path d="M5430 3380 l0 -50 36 0 c52 0 74 15 74 51 0 33 -27 49 -81 49 -28 0
-29 -1 -29 -50z"/>
<path d="M6100 3385 l0 -45 48 0 c26 0 53 5 60 12 33 33 -7 78 -70 78 l-38 0
0 -45z"/>
</g>
</svg>
