<?xml version="1.0" standalone="no"?>
<!DOCTYPE svg PUBLIC "-//W3C//DTD SVG 20010904//EN"
 "http://www.w3.org/TR/2001/REC-SVG-20010904/DTD/svg10.dtd">
<svg version="1.0" xmlns="http://www.w3.org/2000/svg"
 width="150.000000pt" height="150.000000pt" viewBox="0 0 150.000000 150.000000"
 preserveAspectRatio="xMidYMid meet">
<metadata>
Created by potrace 1.14, written by Peter Selinger 2001-2017
</metadata>
<g transform="translate(0.000000,150.000000) scale(0.100000,-0.100000)"
fill="#000000" stroke="none">
<path d="M655 1338 c-138 -26 -270 -128 -336 -263 -37 -74 -42 -93 -47 -174
l-5 -91 -38 0 c-22 0 -39 -4 -39 -10 0 -6 68 -10 185 -10 117 0 185 4 185 10
0 6 -16 10 -35 10 l-36 0 43 63 c23 34 41 68 40 75 -5 22 5 13 33 -30 16 -24
30 -37 32 -31 8 22 76 2 113 -33 42 -40 49 -41 85 -12 15 11 39 21 53 22 19 1
31 9 40 29 12 26 16 27 60 21 31 -3 74 -22 125 -52 l77 -47 -180 -3 c-109 -1
-180 -6 -180 -12 0 -6 90 -10 240 -10 153 0 240 4 240 10 0 6 -17 10 -39 10
l-38 0 -5 90 c-5 76 -11 101 -41 164 -97 205 -311 315 -532 274z m220 -30
c152 -39 292 -189 326 -346 5 -28 9 -69 7 -91 l-3 -41 -83 51 c-80 49 -87 52
-158 53 -62 1 -74 4 -74 18 0 44 -86 108 -146 108 -37 0 -98 -36 -118 -71 -13
-22 -21 -27 -34 -19 -16 8 -123 40 -136 40 -3 0 -6 -4 -6 -9 0 -5 19 -16 42
-23 l41 -14 -121 -71 -122 -72 0 52 c1 258 234 472 490 451 30 -3 73 -10 95
-16z m-75 -283 c54 -28 94 -105 55 -105 -9 0 -34 -9 -56 -21 l-41 -20 -23 21
c-13 12 -29 19 -35 15 -15 -9 -70 14 -70 29 0 15 30 59 49 71 42 27 82 30 121
10z m-292 -149 l-43 -66 -75 0 -75 0 115 69 c63 38 116 68 118 66 2 -2 -16
-33 -40 -69z m398 16 c-3 -6 -14 -8 -24 -6 -9 3 -32 -6 -51 -20 -31 -23 -51
-26 -51 -7 0 15 113 54 129 45 1 -2 0 -7 -3 -12z"/>
<path d="M740 1145 c0 -30 5 -55 10 -55 6 0 10 25 10 55 0 30 -4 55 -10 55 -5
0 -10 -25 -10 -55z"/>
<path d="M670 1179 c0 -31 24 -99 32 -91 11 11 -10 102 -23 102 -5 0 -9 -5 -9
-11z"/>
<path d="M816 1178 c-22 -70 -27 -90 -22 -95 9 -10 16 2 31 51 9 28 10 48 4
51 -5 4 -11 0 -13 -7z"/>
<path d="M607 1164 c-9 -9 42 -106 53 -99 4 3 1 20 -7 38 -24 47 -39 68 -46
61z"/>
<path d="M861 1110 c-18 -30 -26 -50 -18 -50 11 0 67 78 67 94 0 19 -22 0 -49
-44z"/>
<path d="M540 1121 c0 -14 79 -97 80 -83 0 7 -15 31 -32 52 -32 39 -48 49 -48
31z"/>
<path d="M907 1079 c-21 -22 -34 -45 -31 -51 6 -9 84 68 84 84 0 17 -18 6 -53
-33z"/>
<path d="M490 1068 c1 -16 88 -70 102 -62 10 6 1 13 -64 53 -27 16 -38 19 -38
9z"/>
<path d="M948 1034 c-27 -13 -48 -29 -48 -34 0 -6 2 -10 5 -10 12 0 104 50
110 60 10 17 -17 10 -67 -16z"/>
<path d="M1005 985 c-5 -2 -27 -6 -47 -10 -36 -6 -54 -25 -23 -25 32 0 115 22
115 31 0 9 -24 11 -45 4z"/>
<path d="M600 780 c0 -6 28 -10 65 -10 37 0 65 4 65 10 0 6 -28 10 -65 10 -37
0 -65 -4 -65 -10z"/>
<path d="M445 760 c3 -5 24 -10 46 -10 21 0 39 5 39 10 0 6 -21 10 -46 10 -27
0 -43 -4 -39 -10z"/>
<path d="M800 760 c0 -6 42 -10 105 -10 63 0 105 4 105 10 0 6 -42 10 -105 10
-63 0 -105 -4 -105 -10z"/>
<path d="M190 600 l0 -90 50 0 c42 0 52 4 66 25 15 23 15 27 0 49 -9 15 -11
26 -5 28 14 5 18 39 7 61 -7 13 -21 17 -63 17 l-55 0 0 -90z m78 43 c-4 -34
-33 -39 -31 -5 1 32 1 32 19 32 11 0 14 -8 12 -27z m2 -77 c0 -31 -16 -42 -28
-19 -12 22 -5 43 14 43 8 0 14 -10 14 -24z"/>
<path d="M360 600 l0 -90 51 0 c36 0 49 4 46 13 -2 6 -10 13 -18 13 -8 1 -20
2 -26 3 -7 0 -13 12 -13 26 0 18 5 25 20 25 11 0 20 5 20 10 0 6 -9 10 -20 10
-16 0 -20 7 -20 30 0 27 3 30 30 30 17 0 30 5 30 10 0 6 -22 10 -50 10 l-50 0
0 -90z"/>
<path d="M570 600 l0 -90 50 0 c36 0 50 4 50 14 0 7 -8 13 -17 13 -42 0 -43 2
-43 78 0 68 -2 75 -20 75 -19 0 -20 -7 -20 -90z"/>
<path d="M722 678 c-7 -7 -12 -39 -12 -80 0 -74 10 -88 68 -88 44 0 53 19 50
102 l-3 73 -45 3 c-26 2 -50 -2 -58 -10z m66 -76 c2 -51 0 -62 -13 -62 -16 0
-17 2 -19 70 -2 52 1 63 17 57 7 -2 13 -30 15 -65z"/>
<path d="M885 680 c-11 -18 -7 -141 6 -156 15 -18 83 -18 99 1 18 22 3 38 -22
21 -36 -25 -48 -10 -48 60 0 62 1 64 25 64 14 0 25 -4 25 -10 0 -5 7 -10 15
-10 18 0 19 12 3 28 -15 15 -94 16 -103 2z"/>
<path d="M1052 678 c-7 -7 -12 -41 -12 -90 0 -71 2 -78 20 -78 17 0 20 7 20
40 0 33 3 40 20 40 17 0 20 -7 20 -40 0 -34 3 -40 20 -40 20 0 21 5 18 88 l-3
87 -45 3 c-26 2 -50 -2 -58 -10z m66 -41 c3 -22 -1 -27 -17 -27 -15 0 -21 6
-21 23 0 46 33 49 38 4z"/>
<path d="M1204 603 l1 -88 53 -3 c40 -2 52 0 52 11 0 8 -8 14 -17 14 -42 0
-43 2 -43 78 0 72 -1 75 -23 75 -23 0 -24 -2 -23 -87z"/>
<path d="M301 418 c-1 -21 4 -28 17 -28 11 0 13 3 6 8 -7 4 -14 16 -17 27 -4
15 -5 14 -6 -7z"/>
<path d="M357 433 c-15 -14 -7 -43 12 -43 26 0 36 17 21 35 -14 16 -23 19 -33
8z m24 -26 c-13 -13 -26 -3 -16 12 3 6 11 8 17 5 6 -4 6 -10 -1 -17z"/>
<path d="M420 420 c-9 -16 -8 -22 4 -26 9 -3 21 -4 28 -1 8 4 6 6 -4 6 -19 1
-26 21 -8 21 6 0 10 5 10 10 0 17 -19 11 -30 -10z"/>
<path d="M541 418 c-1 -21 4 -28 17 -28 11 0 13 3 6 8 -7 4 -14 16 -17 27 -4
15 -5 14 -6 -7z"/>
<path d="M620 413 c0 -17 6 -23 23 -22 21 0 21 1 2 9 -11 5 -14 9 -7 9 7 1 11
5 8 10 -4 5 0 11 6 14 7 3 3 4 -9 4 -17 -1 -23 -7 -23 -24z"/>
<path d="M675 415 c0 -15 6 -23 16 -22 11 1 16 10 16 27 0 14 -2 19 -4 12 -3
-8 -9 -10 -16 -3 -9 6 -12 2 -12 -14z"/>
<path d="M739 433 c0 -5 -2 -16 -4 -25 -2 -10 0 -18 5 -18 13 0 32 29 25 40
-7 12 -25 14 -26 3z"/>
<path d="M790 415 c0 -19 5 -25 23 -24 21 0 21 1 2 9 -11 5 -14 9 -7 9 17 1
15 31 -3 31 -9 0 -15 -9 -15 -25z"/>
<path d="M847 434 c-15 -15 -6 -40 13 -40 15 0 20 6 18 20 -3 21 -20 31 -31
20z m18 -14 c3 -5 1 -10 -4 -10 -6 0 -11 5 -11 10 0 6 2 10 4 10 3 0 8 -4 11
-10z"/>
<path d="M902 415 c0 -16 2 -22 5 -12 2 9 2 23 0 30 -3 6 -5 -1 -5 -18z"/>
<path d="M939 438 c-1 -2 -3 -13 -4 -25 -2 -18 3 -23 19 -23 17 0 18 2 6 10
-13 9 -13 10 0 10 12 0 13 2 1 9 -11 7 -11 9 0 14 10 4 9 6 -3 6 -10 1 -19 0
-19 -1z"/>
<path d="M990 415 c1 -26 2 -28 11 -12 8 14 8 22 0 30 -8 8 -11 3 -11 -18z"/>
<path d="M1018 420 c-7 -24 -3 -38 8 -28 3 4 4 17 2 30 l-3 23 -7 -25z"/>
<path d="M1054 425 c-8 -19 4 -35 24 -34 15 1 15 2 0 6 -10 2 -18 8 -18 13 0
5 8 10 18 12 16 3 16 4 -1 11 -11 4 -20 2 -23 -8z"/>
<path d="M1110 414 c0 -18 5 -24 23 -23 21 0 21 1 2 9 -11 5 -15 9 -9 9 21 2
23 27 3 28 -14 1 -19 -5 -19 -23z"/>
<path d="M1172 422 c3 -12 1 -23 -6 -26 -6 -2 -1 -5 11 -5 18 -1 22 4 20 21
-2 12 -10 24 -17 26 -9 3 -11 -2 -8 -16z"/>
<path d="M481 411 c-9 -16 -7 -19 13 -17 16 1 22 6 18 19 -6 22 -19 22 -31 -2z"/>
<path d="M650 259 c0 -8 23 -37 50 -64 l50 -49 50 49 c28 27 50 56 50 64 0 9
-21 -5 -50 -34 l-50 -49 -50 49 c-29 29 -50 43 -50 34z"/>
</g>
</svg>
