<svg width="210" height="66" viewBox="0 0 210 66" xmlns="http://www.w3.org/2000/svg" xmlns:xlink="http://www.w3.org/1999/xlink"><title>logo</title><defs><path id="a" d="M.057 1.156H8.54v8.59H.057z"/><path id="c" d="M.018 1.156h6.488v8.59H.018z"/><path id="e" d="M.6.617h88.45v49.977H.6z"/></defs><g fill="none" fill-rule="evenodd"><path d="M127.26 58.376h-2.12v6.184a.775.775 0 0 1-.77.773c-.422 0-.744-.349-.744-.773v-6.184h-2.131a.72.72 0 0 1-.723-.712c0-.397.311-.72.723-.72h5.765a.72.72 0 0 1 .72.72.71.71 0 0 1-.72.712m5.987-.037h-2.643v2.277h2.643c.833 0 1.203-.61 1.203-1.17 0-.548-.37-1.107-1.203-1.107m2.728 6.234a.751.751 0 0 1-.757.76c-.334 0-.545-.15-.669-.411l-1.451-3h-2.494v2.651a.75.75 0 0 1-.756.76.753.753 0 0 1-.757-.76v-6.87c0-.423.337-.76.757-.76h3.189c2.057 0 2.938 1.022 2.938 2.49 0 .97-.42 1.805-1.365 2.217l1.278 2.602a.734.734 0 0 1 .087.321m4.868-5.663l-1.289 3.16h2.58l-1.29-3.16zm1.837 4.494h-3.671l-.708 1.519c-.137.248-.31.409-.632.409a.703.703 0 0 1-.72-.708c0-.1.024-.2.075-.3l3.176-7.08c.111-.25.32-.398.643-.398s.533.135.647.398l3.173 7.08c.05.1.075.2.075.3 0 .36-.273.708-.72.708-.322 0-.495-.149-.63-.41l-.708-1.518zm9.583 1.929a.642.642 0 0 1-.545-.262l-4.28-5.427v4.98a.709.709 0 0 1-.718.709.715.715 0 0 1-.707-.708v-7.06c0-.386.284-.72.743-.72a.69.69 0 0 1 .52.261l4.281 5.426v-4.967c0-.386.284-.72.706-.72s.72.334.72.72v7.06a.703.703 0 0 1-.72.708m5.552.051c-1.005 0-2.146-.313-2.865-.874-.249-.2-.421-.448-.421-.72 0-.387.247-.647.632-.647.135 0 .26.036.384.111.67.425 1.129.797 2.294.797 1.192 0 1.662-.485 1.662-1.045 0-.612-.483-.921-1.972-1.318-2.244-.598-2.914-1.322-2.914-2.566 0-1.519 1.302-2.328 3.275-2.328.447 0 1.052.076 1.585.226.572.16 1.29.521 1.29 1.02 0 .336-.197.684-.618.684a.65.65 0 0 1-.298-.062c-.57-.26-1.165-.523-1.948-.523-1.105 0-1.774.299-1.774.946 0 .611.497.82 1.986 1.255 1.7.5 2.902.986 2.902 2.58 0 1.443-1.092 2.464-3.2 2.464m8.727-7.045h-2.58v2.277h2.58c.83 0 1.203-.558 1.203-1.121 0-.546-.373-1.156-1.203-1.156m-.21 3.684h-2.37v2.55a.751.751 0 0 1-.757.76.752.752 0 0 1-.756-.76v-6.87c0-.423.336-.76.756-.76h3.127c2.057 0 2.939 1.146 2.939 2.552 0 1.407-.882 2.528-2.94 2.528" fill="#FEFEFE"/><g transform="translate(169.942 55.638)"><mask id="b" fill="#fff"><use xlink:href="#a"/></mask><path d="M4.297 2.524c-1.688 0-2.715 1.345-2.715 2.927S2.61 8.377 4.297 8.377 7.013 7.033 7.013 5.45 5.985 2.524 4.297 2.524m0 7.222c-2.432 0-4.24-1.894-4.24-4.295 0-2.403 1.808-4.295 4.24-4.295 2.431 0 4.243 1.892 4.243 4.295 0 2.4-1.812 4.295-4.243 4.295" fill="#FEFEFE" mask="url(#b)"/></g><path d="M184.057 58.339h-2.642v2.277h2.642c.832 0 1.205-.61 1.205-1.17 0-.548-.373-1.107-1.205-1.107m2.728 6.234a.751.751 0 0 1-.756.76c-.334 0-.546-.15-.671-.411l-1.45-3h-2.493v2.651a.75.75 0 0 1-.756.76.753.753 0 0 1-.758-.76v-6.87c0-.423.337-.76.758-.76h3.188c2.058 0 2.938 1.022 2.938 2.49 0 .97-.42 1.805-1.364 2.217l1.278 2.602c.05.097.086.208.086.321m7.115-6.197h-2.122v6.184a.773.773 0 0 1-.768.773c-.422 0-.745-.349-.745-.773v-6.184h-2.132a.72.72 0 0 1-.72-.712c0-.397.311-.72.72-.72h5.767a.72.72 0 0 1 .719.72.71.71 0 0 1-.719.712m7.251 6.858h-4.65a.762.762 0 0 1-.768-.76v-6.772c0-.422.344-.758.768-.758h4.465a.7.7 0 0 1 .717.698c0 .397-.322.71-.717.71h-3.722v1.979h2.047c.386 0 .707.31.707.709a.696.696 0 0 1-.707.695h-2.047v2.093h3.907c.397 0 .72.31.72.708 0 .4-.323.698-.72.698" fill="#FEFEFE"/><g transform="translate(202.717 55.638)"><mask id="d" fill="#fff"><use xlink:href="#c"/></mask><path d="M3.307 9.745c-1.006 0-2.149-.313-2.866-.873-.249-.2-.423-.448-.423-.721 0-.386.247-.646.634-.646a.72.72 0 0 1 .384.111c.67.425 1.129.797 2.294.797 1.19 0 1.663-.485 1.663-1.045 0-.612-.484-.921-1.971-1.319C.777 5.451.106 4.728.106 3.484c0-1.52 1.301-2.328 3.276-2.328a6.3 6.3 0 0 1 1.585.225c.572.16 1.29.522 1.29 1.02 0 .336-.198.685-.618.685-.1 0-.2-.014-.299-.062-.572-.261-1.166-.523-1.95-.523-1.102 0-1.773.298-1.773.945 0 .612.499.821 1.987 1.256 1.698.5 2.903.986 2.903 2.58 0 1.443-1.093 2.463-3.2 2.463" fill="#FEFEFE" mask="url(#d)"/></g><path d="M45.955 25.207c0 5.867 4.63 10.612 10.478 10.612 5.753 0 10.576-4.842 10.576-10.612 0-5.771-4.823-10.612-10.576-10.612-5.848 0-10.478 4.743-10.478 10.612m28.852 0c0 10.172-8.187 18.389-18.325 18.389-10.087 0-18.323-8.217-18.323-18.389 0-10.174 8.236-18.39 18.323-18.39 10.138 0 18.325 8.216 18.325 18.39m28.753-12.729L92.35 40.796c-.633 1.517-2.046 2.495-3.656 2.495-1.607 0-3.021-.978-3.604-2.495L73.881 12.478c-.828-2.005.145-4.255 2.191-5.087 2-.78 4.243.196 5.02 2.202l7.602 19.27 7.605-19.27c.828-2.006 3.07-2.983 5.068-2.202 1.998.832 2.973 3.082 2.193 5.087m6.821 30.824c-2.146 0-3.85-1.76-3.85-3.863V10.975c0-2.104 1.704-3.863 3.85-3.863s3.85 1.76 3.85 3.863v28.464c0 2.103-1.704 3.863-3.85 3.863" fill="#FEFEFE"/><g transform="translate(120.173 -.398)"><mask id="f" fill="#fff"><use xlink:href="#e"/></mask><path d="M64.051 43.994c-10.09 0-18.324-8.217-18.324-18.389 0-10.173 8.235-18.388 18.324-18.388 10.136 0 18.324 8.215 18.324 18.388 0 10.172-8.188 18.389-18.324 18.389m-26.316-5.231c-3.314 3.372-7.798 5.23-12.524 5.23-4.923 0-9.457-1.907-12.82-5.427-3.311-3.473-5.115-8.07-5.115-12.96 0-10.126 8.189-18.39 18.322-18.39 3.071 0 6.094.782 8.773 2.2 1.901 1.077 2.583 3.425 1.56 5.33-1.025 1.91-3.411 2.594-5.263 1.565-1.56-.831-3.314-1.318-5.07-1.318-5.797 0-10.525 4.792-10.525 10.612 0 2.885 1.023 5.574 2.924 7.532 1.851 1.956 4.434 3.08 7.214 3.08 4.482 0 8.185-2.933 9.502-7.09h-8.92a3.428 3.428 0 0 1-3.41-3.424c0-1.86 1.56-3.423 3.41-3.423h13.55c2.144.047 3.85 1.906 3.704 4.107-.195 4.743-2.047 9.147-5.312 12.376M79.435.617H10.213C4.926.617.6 4.957.6 10.265v30.68c0 5.307 4.326 9.649 9.613 9.649h69.222c5.286 0 9.615-4.342 9.615-9.648V10.265c0-5.308-4.329-9.648-9.615-9.648" fill="#FEFEFE" mask="url(#f)"/></g><path d="M184.176 14.595c-5.85 0-10.478 4.743-10.478 10.613 0 5.866 4.629 10.611 10.478 10.611 5.75 0 10.574-4.842 10.574-10.611 0-5.772-4.825-10.613-10.574-10.613M34.76 38.986a2.662 2.662 0 0 1-2.659 2.668 2.663 2.663 0 0 1-2.656-2.668 2.66 2.66 0 0 1 2.178-2.618V14.045c-.096-.016-.187-.047-.278-.075L19.652 36.88c.304.232.568.528.754.895a2.675 2.675 0 0 1-1.163 3.589 2.656 2.656 0 0 1-3.575-1.166 2.67 2.67 0 0 1 .744-3.317L4.629 13.969c-.095.027-.188.059-.285.076v22.323a2.66 2.66 0 0 1 2.176 2.618 2.662 2.662 0 0 1-2.66 2.668 2.663 2.663 0 0 1-2.657-2.668 2.66 2.66 0 0 1 2.18-2.618V14.045a2.659 2.659 0 0 1-2.18-2.618A2.663 2.663 0 0 1 3.86 8.76a2.662 2.662 0 0 1 1.623 4.768L17.268 36.44a2.612 2.612 0 0 1 1.53-.004l11.69-22.904a2.654 2.654 0 0 1-1.043-2.105 2.662 2.662 0 0 1 2.656-2.667 2.662 2.662 0 0 1 2.66 2.667c0 1.31-.938 2.391-2.177 2.618v22.323a2.659 2.659 0 0 1 2.177 2.618M32.067 7.112c-2.045 0-3.217 1.417-3.997 3.032-.291.635-6.335 14.219-10.087 21.996-3.802-7.777-9.796-21.41-10.089-21.996C7.066 8.53 5.896 7.112 3.85 7.112 1.754 7.112 0 8.872 0 11.024V39.39c0 2.152 1.754 3.912 3.85 3.912 2.193 0 3.948-1.76 3.948-3.912V26.81l7.115 14.525a3.415 3.415 0 0 0 3.07 1.957c1.218 0 2.437-.685 3.07-1.957L28.12 26.81v12.58c0 2.152 1.756 3.912 3.948 3.912 2.145 0 3.9-1.76 3.9-3.912V11.024c0-2.153-1.755-3.912-3.9-3.912" fill="#FEFEFE"/></g></svg>