<?xml version="1.0" encoding="UTF-8" standalone="no"?>
<svg
   version="1.1"
   x="0px"
   y="0px"
   viewBox="0 0 56 60"
   xml:space="preserve"
   id="svg2"
   sodipodi:docname="chat.svg"
   width="56"
   height="60"
   inkscape:version="1.4 (1:1.4+202410161351+e7c3feb100)"
   xmlns:inkscape="http://www.inkscape.org/namespaces/inkscape"
   xmlns:sodipodi="http://sodipodi.sourceforge.net/DTD/sodipodi-0.dtd"
   xmlns="http://www.w3.org/2000/svg"
   xmlns:svg="http://www.w3.org/2000/svg"><defs
     id="defs2" /><sodipodi:namedview
     id="namedview2"
     pagecolor="#ffffff"
     bordercolor="#000000"
     borderopacity="0.25"
     inkscape:showpageshadow="2"
     inkscape:pageopacity="0.0"
     inkscape:pagecheckerboard="0"
     inkscape:deskcolor="#d1d1d1"
     inkscape:zoom="3.5841475"
     inkscape:cx="25.38958"
     inkscape:cy="29.714179"
     inkscape:window-width="1920"
     inkscape:window-height="1016"
     inkscape:window-x="0"
     inkscape:window-y="0"
     inkscape:window-maximized="1"
     inkscape:current-layer="svg2" /><path
     d="m 20.5,28 c 0,1.5 -1.2,2.7 -2.7,2.7 -1.5,0 -2.7,-1.2 -2.7,-2.7 0,-1.5 1.2,-2.7 2.7,-2.7 1.5,-0.1 2.7,1.2 2.7,2.7 z m 8.2,-2.8 c -1.5,0 -2.7,1.2 -2.7,2.7 0,1.5 1.2,2.7 2.7,2.7 1.5,0 2.7,-1.2 2.7,-2.7 0,-1.4 -1.2,-2.7 -2.7,-2.7 z m 10.9,0 c -1.5,0 -2.7,1.2 -2.7,2.7 0,1.5 1.2,2.7 2.7,2.7 1.5,0 2.7,-1.2 2.7,-2.7 0,-1.4 -1.2,-2.7 -2.7,-2.7 z M 56,28 C 56,43.4 43.5,56 28,56 24.9,56 21.9,55.5 18.9,54.5 L 3.6,59.8 C 3.3,59.9 3.1,60 2.8,60 2.1,60 1.4,59.7 1,59.2 0.3,58.5 0.2,57.4 0.6,56.5 L 5.8,44.9 C 2,40 0,34.1 0,28 0,12.6 12.6,0 28,0 43.4,0 56,12.6 56,28 Z m -5,0 C 51,15.3 40.7,5 28,5 15.3,5 5,15.3 5,28 c 0,5.5 2,10.7 5.5,14.9 0.6,0.7 0.8,1.8 0.4,2.7 L 7.5,53.2 18,49.5 c 0.6,-0.3 1.3,-0.3 1.9,-0.1 2.6,1 5.4,1.5 8.2,1.5 C 40.7,51 51,40.7 51,28 Z"
     id="path1"
     style="fill:#ffffff" /></svg>
