<?xml version="1.0" encoding="UTF-8" standalone="no"?>
<svg
   width="536.65997pt"
   height="536.65997pt"
   version="1.1"
   viewBox="0 0 536.65997 536.65997"
   id="svg43"
   sodipodi:docname="discount.svg"
   inkscape:version="1.2 (1:1.2.1+202207142221+cd75a1ee6d)"
   xmlns:inkscape="http://www.inkscape.org/namespaces/inkscape"
   xmlns:sodipodi="http://sodipodi.sourceforge.net/DTD/sodipodi-0.dtd"
   xmlns="http://www.w3.org/2000/svg"
   xmlns:svg="http://www.w3.org/2000/svg">
  <sodipodi:namedview
     id="namedview45"
     pagecolor="#ffffff"
     bordercolor="#666666"
     borderopacity="1.0"
     inkscape:showpageshadow="2"
     inkscape:pageopacity="0.0"
     inkscape:pagecheckerboard="0"
     inkscape:deskcolor="#d1d1d1"
     inkscape:document-units="pt"
     showgrid="false"
     inkscape:zoom="0.25285714"
     inkscape:cx="334.18079"
     inkscape:cy="450.84746"
     inkscape:window-width="1920"
     inkscape:window-height="1009"
     inkscape:window-x="0"
     inkscape:window-y="34"
     inkscape:window-maximized="1"
     inkscape:current-layer="g41" />
  <defs
     id="defs17">
    <symbol
       id="b"
       overflow="visible">
      <path
         d="m 39.078,-2.3281 c -2.0117,1.043 -4.1094,1.8281 -6.2969,2.3594 -2.1875,0.5313 -4.4648,0.79688 -6.8281,0.79688 -7.0859,0 -12.699,-1.9766 -16.844,-5.9375 -4.1367,-3.957 -6.2031,-9.3281 -6.2031,-16.109 0,-6.7891 2.0664,-12.164 6.2031,-16.125 4.1445,-3.9688 9.7578,-5.9531 16.844,-5.9531 2.3633,0 4.6406,0.26562 6.8281,0.79688 2.1875,0.53126 4.2852,1.3242 6.2969,2.375 v 8.7969 c -2.0312,-1.3828 -4.0391,-2.3984 -6.0156,-3.0469 -1.9688,-0.64453 -4.0469,-0.96875 -6.2344,-0.96875 -3.9062,0 -6.9844,1.2578 -9.2344,3.7656 -2.2422,2.5 -3.3594,5.9531 -3.3594,10.359 0,4.3867 1.1172,7.8359 3.3594,10.344 2.25,2.5 5.3281,3.75 9.2344,3.75 2.1875,0 4.2656,-0.32031 6.2344,-0.96875 1.9766,-0.64453 3.9844,-1.6602 6.0156,-3.0469 z"
         id="path2" />
    </symbol>
    <symbol
       id="e"
       overflow="visible">
      <path
         d="m 16.031,-40.953 v 9.0625 h 10.516 v 7.2812 H 16.031 v 13.531 c 0,1.4805 0.28906,2.4805 0.875,3 0.59375,0.52344 1.7656,0.78125 3.5156,0.78125 h 5.2344 v 7.2969 h -8.7344 c -4.0312,0 -6.8867,-0.83594 -8.5625,-2.5156 -1.6797,-1.6875 -2.5156,-4.5391 -2.5156,-8.5625 v -13.531 H 0.7654 v -7.2812 h 5.0781 v -9.0625 z"
         id="path5" />
    </symbol>
    <symbol
       id="a"
       overflow="visible">
      <path
         d="M 26.594,-27.234 V -44.312 H 36.86 V 0 H 26.594 v -4.6094 c -1.3984,1.875 -2.9453,3.25 -4.6406,4.125 -1.6875,0.875 -3.6406,1.3125 -5.8594,1.3125 -3.9297,0 -7.1562,-1.5625 -9.6875,-4.6875 -2.5234,-3.125 -3.7812,-7.1445 -3.7812,-12.062 0,-4.9141 1.2578,-8.9375 3.7812,-12.062 2.5312,-3.125 5.7578,-4.6875 9.6875,-4.6875 2.1953,0 4.1445,0.44531 5.8438,1.3281 1.707,0.88672 3.2578,2.2578 4.6562,4.1094 z m -6.7188,20.656 c 2.1875,0 3.8516,-0.79688 5,-2.3906 1.1445,-1.5938 1.7188,-3.9102 1.7188,-6.9531 0,-3.0391 -0.57422,-5.3594 -1.7188,-6.9531 -1.1484,-1.5938 -2.8125,-2.3906 -5,-2.3906 -2.168,0 -3.8242,0.79688 -4.9688,2.3906 -1.1484,1.5938 -1.7188,3.9141 -1.7188,6.9531 0,3.043 0.57031,5.3594 1.7188,6.9531 1.1445,1.5938 2.8008,2.3906 4.9688,2.3906 z"
         id="path8" />
    </symbol>
    <symbol
       id="d"
       overflow="visible">
      <path
         d="m 21.875,-6.5781 c 2.1758,0 3.8359,-0.79688 4.9844,-2.3906 1.1562,-1.5938 1.7344,-3.9102 1.7344,-6.9531 0,-3.0391 -0.57812,-5.3594 -1.7344,-6.9531 -1.1484,-1.5938 -2.8086,-2.3906 -4.9844,-2.3906 -2.1875,0 -3.8672,0.80469 -5.0312,2.4062 -1.168,1.6055 -1.75,3.918 -1.75,6.9375 0,3.0234 0.58203,5.3359 1.75,6.9375 1.1641,1.6055 2.8438,2.4062 5.0312,2.4062 z m -6.7812,-20.656 c 1.4062,-1.8516 2.9609,-3.2227 4.6719,-4.1094 1.707,-0.88281 3.6719,-1.3281 5.8906,-1.3281 3.9375,0 7.1641,1.5625 9.6875,4.6875 2.5195,3.125 3.7812,7.1484 3.7812,12.062 0,4.918 -1.2617,8.9375 -3.7812,12.062 -2.5234,3.125 -5.75,4.6875 -9.6875,4.6875 -2.2188,0 -4.1836,-0.44531 -5.8906,-1.3281 -1.7109,-0.88281 -3.2656,-2.2539 -4.6719,-4.1094 V -7e-4 H 4.9058 v -44.312 h 10.188 z"
         id="path11" />
    </symbol>
    <symbol
       id="c"
       overflow="visible">
      <path
         d="m 5.3594,-42.516 h 13.953 l 9.6875,22.75 9.7344,-22.75 h 13.922 V 0 H 42.2973 V -31.094 L 32.5004,-8.172 H 25.5473 L 15.7504,-31.094 V 0 H 5.3594 Z"
         id="path14" />
    </symbol>
  </defs>
  <g
     id="g41"
     transform="translate(-81.67,-11.668)">
    <path
       d="m 350,11.668 c -148.1,0 -268.33,120.23 -268.33,268.33 0,148.1 120.23,268.33 268.33,268.33 148.1,0 268.33,-120.23 268.33,-268.33 C 618.33,131.898 498.1,11.668 350,11.668 Z M 350,35 C 485.21,35 595,144.79 595,280 595,415.21 485.21,525 350,525 214.79,525 105,415.21 105,280 105,144.79 214.79,35 350,35 Z"
       fill-rule="evenodd"
       id="path19"
       style="fill:#ffffff" />
    <path
       d="m 280,151.67 c -32.199,0 -58.332,26.133 -58.332,58.332 0,32.199 26.133,58.332 58.332,58.332 32.199,0 58.332,-26.133 58.332,-58.332 0,-32.199 -26.133,-58.332 -58.332,-58.332 z m 0,23.332 c 19.32,0 35,15.68 35,35 0,19.32 -15.68,35 -35,35 -19.32,0 -35,-15.68 -35,-35 0,-19.32 15.68,-35 35,-35 z"
       fill-rule="evenodd"
       id="path21"
       style="fill:#ffffff" />
    <path
       d="m 420,291.67 c -32.199,0 -58.332,26.133 -58.332,58.332 0,32.199 26.133,58.332 58.332,58.332 32.199,0 58.332,-26.133 58.332,-58.332 0,-32.199 -26.133,-58.332 -58.332,-58.332 z m 0,23.332 c 19.32,0 35,15.68 35,35 0,19.32 -15.68,35 -35,35 -19.32,0 -35,-15.68 -35,-35 0,-19.32 15.68,-35 35,-35 z"
       fill-rule="evenodd"
       id="path23"
       style="fill:#ffffff" />
    <path
       d="M 241.58,404.91 474.91,171.58 c 4.5508,-4.5508 4.5508,-11.945 0,-16.496 -4.5508,-4.5508 -11.945,-4.5508 -16.496,0 l -233.33,233.33 c -4.5508,4.5508 -4.5508,11.945 0,16.496 4.5508,4.5508 11.945,4.5508 16.496,0 z"
       fill-rule="evenodd"
       id="path25"
       style="fill:#ffffff" />
  </g>
</svg>
