<svg width="67" height="67" viewBox="0 0 67 67" fill="none" xmlns="http://www.w3.org/2000/svg">
<path d="M10.6875 2.00586H57.0625C61.7224 2.00586 65.5 5.78346 65.5 10.4434V56.8184C65.5 61.4783 61.7224 65.2559 57.0625 65.2559H10.6875C6.0276 65.2559 2.25 61.4783 2.25 56.8184V10.4434C2.25 5.78346 6.0276 2.00586 10.6875 2.00586Z" stroke="white" stroke-width="3"/>
<path d="M37.8862 59.5098V20.8208C37.8862 18.1035 38.6626 16.292 42.415 16.292H47.332V8.14014C46.4263 8.01074 43.5796 7.75195 40.2153 7.75195C33.228 7.75195 28.4404 12.022 28.4404 19.915V59.5098M46.9438 26.6436H20.418V35.96H45.7793" fill="white"/>
</svg>
