<?xml version="1.0" encoding="UTF-8" standalone="no"?>
<svg
   width="100pt"
   height="100pt"
   version="1.1"
   viewBox="0 0 100 100"
   id="svg147"
   sodipodi:docname="noun-next-102122.svg"
   inkscape:version="1.2 (1:1.2+202206011327+fc4e4096c5)"
   xmlns:inkscape="http://www.inkscape.org/namespaces/inkscape"
   xmlns:sodipodi="http://sodipodi.sourceforge.net/DTD/sodipodi-0.dtd"
   xmlns="http://www.w3.org/2000/svg"
   xmlns:svg="http://www.w3.org/2000/svg">
  <sodipodi:namedview
     id="namedview149"
     pagecolor="#ffffff"
     bordercolor="#666666"
     borderopacity="1.0"
     inkscape:showpageshadow="2"
     inkscape:pageopacity="0.0"
     inkscape:pagecheckerboard="0"
     inkscape:deskcolor="#d1d1d1"
     inkscape:document-units="pt"
     showgrid="false"
     inkscape:zoom="4.0457143"
     inkscape:cx="123.46398"
     inkscape:cy="80.084746"
     inkscape:window-width="1920"
     inkscape:window-height="1009"
     inkscape:window-x="0"
     inkscape:window-y="34"
     inkscape:window-maximized="1"
     inkscape:current-layer="g145" />
  <defs
     id="defs65">
    <symbol
       id="u"
       overflow="visible">
      <path
         d="m 33.406,-2 c -1.7188,0.89844 -3.5156,1.5703 -5.3906,2.0156 -1.8672,0.45703 -3.8125,0.6875 -5.8438,0.6875 -6.0547,0 -10.852,-1.6914 -14.391,-5.0781 -3.5312,-3.3828 -5.2969,-7.9727 -5.2969,-13.766 0,-5.8125 1.7656,-10.406 5.2969,-13.781 3.5391,-3.3828 8.3359,-5.0781 14.391,-5.0781 2.0312,0 3.9766,0.23047 5.8438,0.6875 1.875,0.44922 3.6719,1.1211 5.3906,2.0156 v 7.5156 c -1.7422,-1.1875 -3.4531,-2.0547 -5.1406,-2.6094 -1.6875,-0.55078 -3.4648,-0.82812 -5.3281,-0.82812 -3.3438,0 -5.9766,1.0742 -7.8906,3.2188 -1.918,2.1484 -2.875,5.1016 -2.875,8.8594 0,3.75 0.95703,6.6992 2.875,8.8438 1.9141,2.1367 4.5469,3.2031 7.8906,3.2031 1.8633,0 3.6406,-0.26953 5.3281,-0.8125 1.6875,-0.55078 3.3984,-1.4219 5.1406,-2.6094 z"
         id="path2" />
    </symbol>
    <symbol
       id="c"
       overflow="visible">
      <path
         d="m 24.438,-19.844 c -0.76172,-0.35156 -1.5234,-0.61328 -2.2812,-0.78125 -0.75,-0.17578 -1.5078,-0.26562 -2.2656,-0.26562 -2.2422,0 -3.9648,0.71875 -5.1719,2.1562 -1.2109,1.4375 -1.8125,3.4961 -1.8125,6.1719 v 12.562 H 4.188 v -27.266 h 8.7188 v 4.4844 c 1.1133,-1.7891 2.3945,-3.0938 3.8438,-3.9062 1.457,-0.82031 3.2031,-1.2344 5.2344,-1.2344 0.28906,0 0.60156,0.01563 0.9375,0.04687 0.34375,0.02344 0.84375,0.07031 1.5,0.14062 z"
         id="path5" />
    </symbol>
    <symbol
       id="a"
       overflow="visible">
      <path
         d="m 31.406,-13.703 v 2.4844 H 11.031 c 0.20703,2.043 0.94141,3.5742 2.2031,4.5938 1.2695,1.0234 3.0391,1.5312 5.3125,1.5312 1.832,0 3.7109,-0.26953 5.6406,-0.8125 1.9258,-0.53906 3.8984,-1.3633 5.9219,-2.4688 v 6.7188 c -2.0625,0.78125 -4.125,1.3711 -6.1875,1.7656 -2.0547,0.39453 -4.1094,0.59375 -6.1719,0.59375 -4.9375,0 -8.7773,-1.25 -11.516,-3.75 -2.7305,-2.5078 -4.0938,-6.0312 -4.0938,-10.562 0,-4.4453 1.3438,-7.9414 4.0312,-10.484 2.6875,-2.5508 6.3828,-3.8281 11.094,-3.8281 4.2812,0 7.707,1.293 10.281,3.875 2.5703,2.5742 3.8594,6.0234 3.8594,10.344 z m -8.9531,-2.9062 c 0,-1.6562 -0.48438,-2.9883 -1.4531,-4 -0.96875,-1.0078 -2.2305,-1.5156 -3.7812,-1.5156 -1.6875,0 -3.0625,0.47656 -4.125,1.4219 -1.0547,0.94922 -1.7109,2.3125 -1.9688,4.0938 z"
         id="path8" />
    </symbol>
    <symbol
       id="b"
       overflow="visible">
      <path
         d="m 16.406,-12.266 c -1.8125,0 -3.1797,0.30859 -4.0938,0.92188 -0.91797,0.61719 -1.375,1.5234 -1.375,2.7188 0,1.1055 0.36328,1.9688 1.0938,2.5938 0.73828,0.625 1.7695,0.9375 3.0938,0.9375 1.6328,0 3.0078,-0.58594 4.125,-1.7656 1.125,-1.1758 1.6875,-2.6445 1.6875,-4.4062 v -1 z m 13.312,-3.2969 V -9e-4 h -8.7812 v -4.0469 c -1.168,1.6562 -2.4844,2.8672 -3.9531,3.625 -1.4609,0.75 -3.2344,1.125 -5.3281,1.125 -2.8242,0 -5.1172,-0.82031 -6.875,-2.4688 C 3.0189,-3.4111 2.14,-5.5518 2.14,-8.1885 c 0,-3.1875 1.0977,-5.5234 3.2969,-7.0156 2.1953,-1.5 5.6484,-2.25 10.359,-2.25 h 5.1406 v -0.6875 c 0,-1.375 -0.54688,-2.3789 -1.6406,-3.0156 -1.0859,-0.64453 -2.7773,-0.96875 -5.0781,-0.96875 -1.8672,0 -3.6055,0.1875 -5.2188,0.5625 -1.6055,0.36719 -3.0938,0.92188 -4.4688,1.6719 v -6.6406 c 1.8633,-0.45703 3.7344,-0.80078 5.6094,-1.0312 1.8828,-0.23828 3.7695,-0.35938 5.6562,-0.35938 4.9141,0 8.4609,0.96875 10.641,2.9062 2.1875,1.9375 3.2812,5.0898 3.2812,9.4531 z"
         id="path11" />
    </symbol>
    <symbol
       id="d"
       overflow="visible">
      <path
         d="m 13.703,-35.016 v 7.75 h 8.9844 v 6.2344 H 13.703 v 11.562 c 0,1.2617 0.25,2.1172 0.75,2.5625 0.50781,0.44922 1.5078,0.67188 3,0.67188 h 4.4844 v 6.2344 h -7.4688 c -3.4492,0 -5.8906,-0.71875 -7.3281,-2.1562 -1.4375,-1.43745 -2.1562,-3.875 -2.1562,-7.3125 v -11.562 H 0.6562 v -6.2344 h 4.3281 v -7.75 z"
         id="path14" />
    </symbol>
    <symbol
       id="f"
       overflow="visible">
      <path
         d="m 22.734,-23.281 v -14.594 h 8.7656 V 0 H 22.734 v -3.9375 c -1.1992,1.6055 -2.5234,2.7812 -3.9688,3.5312 -1.4375,0.73828 -3.1094,1.1094 -5.0156,1.1094 -3.3555,0 -6.1172,-1.332 -8.2812,-4 C 3.3122,-5.961 2.234,-9.3985 2.234,-13.6089 c 0,-4.207 1.0781,-7.6445 3.2344,-10.312 2.1641,-2.6641 4.9258,-4 8.2812,-4 1.8828,0 3.5508,0.38281 5,1.1406 1.457,0.75 2.7852,1.918 3.9844,3.5 z m -5.7344,17.656 c 1.8633,0 3.2852,-0.67969 4.2656,-2.0469 0.97656,-1.3633 1.4688,-3.3438 1.4688,-5.9375 0,-2.5937 -0.49219,-4.5703 -1.4688,-5.9375 -0.98047,-1.3633 -2.4023,-2.0469 -4.2656,-2.0469 -1.8555,0 -3.2773,0.68359 -4.2656,2.0469 -0.98047,1.3672 -1.4688,3.3438 -1.4688,5.9375 0,2.5937 0.48828,4.5742 1.4688,5.9375 0.98828,1.3672 2.4102,2.0469 4.2656,2.0469 z"
         id="path17" />
    </symbol>
    <symbol
       id="k"
       overflow="visible">
      <path
         d="m 18.703,-5.625 c 1.8633,0 3.2852,-0.67969 4.2656,-2.0469 0.97656,-1.3633 1.4688,-3.3438 1.4688,-5.9375 0,-2.5937 -0.49219,-4.5703 -1.4688,-5.9375 -0.98047,-1.3633 -2.4023,-2.0469 -4.2656,-2.0469 -1.875,0 -3.3125,0.6875 -4.3125,2.0625 -0.99219,1.3672 -1.4844,3.3398 -1.4844,5.9219 0,2.5859 0.49219,4.5625 1.4844,5.9375 1,1.3672 2.4375,2.0469 4.3125,2.0469 z m -5.7969,-17.656 c 1.1953,-1.582 2.5234,-2.75 3.9844,-3.5 1.4688,-0.75781 3.1484,-1.1406 5.0469,-1.1406 3.3516,0 6.1094,1.3359 8.2656,4 2.1641,2.668 3.25,6.1055 3.25,10.312 0,4.2109 -1.0859,7.6484 -3.25,10.312 -2.1562,2.668 -4.9141,4 -8.2656,4 -1.8984,0 -3.5781,-0.375 -5.0469,-1.125 -1.4609,-0.75781 -2.7891,-1.9297 -3.9844,-3.5156 V -7e-4 H 4.1873 v -37.875 h 8.7188 z"
         id="path20" />
    </symbol>
    <symbol
       id="j"
       overflow="visible">
      <path
         d="m 0.60938,-27.266 h 8.7188 l 7.3281,18.5 6.2344,-18.5 h 8.7031 l -11.453,29.844 c -1.1562,3.0391 -2.5078,5.1641 -4.0469,6.375 -1.5312,1.207 -3.5547,1.8125 -6.0625,1.8125 H 4.98448 V 5.0467 h 2.7344 c 1.4766,0 2.5508,-0.24219 3.2188,-0.71875 0.67578,-0.46875 1.2031,-1.3125 1.5781,-2.5312 l 0.23438,-0.75 z"
         id="path23" />
    </symbol>
    <symbol
       id="i"
       overflow="visible">
      <path
         d="m 13.953,-29.266 v 22.188 h 3.3594 c 3.832,0 6.7539,-0.94531 8.7656,-2.8438 2.0195,-1.9062 3.0312,-4.6641 3.0312,-8.2812 0,-3.6016 -1.0078,-6.3477 -3.0156,-8.2344 -2.0117,-1.8828 -4.9375,-2.8281 -8.7812,-2.8281 z m -9.375,-7.0781 h 9.8906 c 5.5078,0 9.6133,0.39844 12.312,1.1875 2.707,0.78125 5.0312,2.1172 6.9688,4 1.6953,1.6367 2.957,3.5273 3.7812,5.6719 0.83203,2.1367 1.25,4.5625 1.25,7.2812 0,2.7422 -0.41797,5.1875 -1.25,7.3438 -0.82422,2.1484 -2.0859,4.0391 -3.7812,5.6719 -1.9492,1.8867 -4.2891,3.2266 -7.0156,4.0156 -2.7305,0.78125 -6.8203,1.1719 -12.266,1.1719 H 4.5772 Z"
         id="path26" />
    </symbol>
    <symbol
       id="t"
       overflow="visible">
      <path
         d="m 0.75,-27.266 h 8.7188 l 6.7969,18.844 6.7656,-18.844 h 8.7344 L 21.0317,0 h -9.5625 z"
         id="path29" />
    </symbol>
    <symbol
       id="s"
       overflow="visible">
      <path
         d="m 4.1875,-27.266 h 8.7188 V 0 H 4.1875 Z m 0,-10.609 h 8.7188 v 7.1094 H 4.1875 Z"
         id="path32" />
    </symbol>
    <symbol
       id="h"
       overflow="visible">
      <path
         d="m 4.5781,-36.344 h 15.562 c 4.625,0 8.1719,1.0273 10.641,3.0781 2.4766,2.0547 3.7188,4.9805 3.7188,8.7812 0,3.8125 -1.2422,6.7461 -3.7188,8.7969 -2.4688,2.0547 -6.0156,3.0781 -10.641,3.0781 H 13.9526 V -7e-4 h -9.375 z m 9.375,6.7812 v 10.156 h 5.1875 c 1.8125,0 3.2109,-0.44141 4.2031,-1.3281 0.98828,-0.88281 1.4844,-2.1328 1.4844,-3.75 0,-1.625 -0.49609,-2.875 -1.4844,-3.75 -0.99219,-0.88281 -2.3906,-1.3281 -4.2031,-1.3281 z"
         id="path35" />
    </symbol>
    <symbol
       id="g"
       overflow="visible">
      <path
         d="m 4.1875,-27.266 h 8.7188 v 26.781 c 0,3.6445 -0.88281,6.4297 -2.6406,8.3594 -1.75,1.9258 -4.2891,2.8906 -7.6094,2.8906 H -1.6562 V 5.0462 h 1.5156 c 1.6562,0 2.7891,-0.375 3.4062,-1.125 0.61328,-0.75 0.92188,-2.2188 0.92188,-4.4062 z m 0,-10.609 h 8.7188 v 7.1094 H 4.1875 Z"
         id="path38" />
    </symbol>
    <symbol
       id="r"
       overflow="visible">
      <path
         d="m 22.125,-37.875 v 5.7188 h -4.8125 c -1.2422,0 -2.1055,0.22656 -2.5938,0.67188 -0.48047,0.4375 -0.71875,1.2109 -0.71875,2.3125 v 1.9062 h 7.4531 v 6.2344 h -7.4531 v 21.031 h -8.7188 v -21.031 h -4.3281 v -6.2344 h 4.3281 v -1.9062 c 0,-2.9688 0.82812,-5.1602 2.4844,-6.5781 1.6562,-1.4141 4.2188,-2.125 7.6875,-2.125 z"
         id="path41" />
    </symbol>
    <symbol
       id="e"
       overflow="visible">
      <path
         d="m 17.156,-21.688 c -1.9297,0 -3.4023,0.69531 -4.4219,2.0781 -1.0117,1.3867 -1.5156,3.3867 -1.5156,6 0,2.6172 0.50391,4.6172 1.5156,6 1.0195,1.3867 2.4922,2.0781 4.4219,2.0781 1.9062,0 3.3594,-0.69141 4.3594,-2.0781 1.0078,-1.3828 1.5156,-3.3828 1.5156,-6 0,-2.6133 -0.50781,-4.6133 -1.5156,-6 -1,-1.3828 -2.4531,-2.0781 -4.3594,-2.0781 z m 0,-6.2344 c 4.6953,0 8.3633,1.2656 11,3.7969 2.6328,2.5312 3.9531,6.0391 3.9531,10.516 0,4.4805 -1.3203,7.9844 -3.9531,10.516 -2.6367,2.5312 -6.3047,3.7969 -11,3.7969 -4.6992,0 -8.375,-1.2656 -11.031,-3.7969 -2.656,-2.5313 -3.9844,-6.0352 -3.9844,-10.516 0,-4.4766 1.3281,-7.9844 3.9844,-10.516 2.6563,-2.5316 6.332,-3.7969 11.031,-3.7969 z"
         id="path44" />
    </symbol>
    <symbol
       id="q"
       overflow="visible">
      <path
         d="m 29.453,-22.734 c 1.1016,-1.6875 2.4141,-2.9727 3.9375,-3.8594 1.5195,-0.88281 3.1875,-1.3281 5,-1.3281 3.1328,0 5.5195,0.96875 7.1562,2.9062 1.6445,1.9297 2.4688,4.7305 2.4688,8.4062 V -1e-4 h -8.7656 v -14.219 c 0.0078,-0.20703 0.01953,-0.42578 0.03125,-0.65625 0.0078,-0.22656 0.01563,-0.55078 0.01563,-0.96875 0,-1.9375 -0.28906,-3.3359 -0.85938,-4.2031 -0.5625,-0.86328 -1.4805,-1.2969 -2.75,-1.2969 -1.6562,0 -2.9375,0.68359 -3.8438,2.0469 -0.89844,1.3555 -1.3594,3.3242 -1.3906,5.9062 V 0 h -8.7656 v -14.219 c 0,-3.0195 -0.26172,-4.9609 -0.78125,-5.8281 -0.51172,-0.86328 -1.4336,-1.2969 -2.7656,-1.2969 -1.6797,0 -2.9688,0.6875 -3.875,2.0625 -0.90625,1.3672 -1.3594,3.3203 -1.3594,5.8594 V -1e-4 h -8.7656 v -27.266 h 8.7656 v 3.9844 c 1.0703,-1.5391 2.3008,-2.6953 3.6875,-3.4688 1.3828,-0.78125 2.9141,-1.1719 4.5938,-1.1719 1.875,0 3.5352,0.45312 4.9844,1.3594 1.4453,0.90625 2.5391,2.1836 3.2812,3.8281 z"
         id="path47" />
    </symbol>
    <symbol
       id="p"
       overflow="visible">
      <path
         d="M 31.594,-16.609 V 0 h -8.75 v -12.656 c 0,-2.3828 -0.05859,-4.0234 -0.17188,-4.9219 -0.10547,-0.89453 -0.28906,-1.5508 -0.54688,-1.9688 -0.33594,-0.57031 -0.79688,-1.0156 -1.3906,-1.3281 -0.58594,-0.3125 -1.2461,-0.46875 -1.9844,-0.46875 -1.8242,0 -3.2578,0.70312 -4.2969,2.1094 -1.0312,1.3984 -1.5469,3.3359 -1.5469,5.8125 v 13.422 h -8.7188 v -37.875 h 8.7188 v 14.594 c 1.3125,-1.582 2.707,-2.75 4.1875,-3.5 1.4766,-0.75781 3.1094,-1.1406 4.8906,-1.1406 3.1445,0 5.5312,0.96875 7.1562,2.9062 1.6328,1.9297 2.4531,4.7305 2.4531,8.4062 z"
         id="path50" />
    </symbol>
    <symbol
       id="o"
       overflow="visible">
      <path
         d="m 4.5781,-36.344 h 10.469 l 13.219,24.922 v -24.922 h 8.8906 V 0 H 26.6877 L 13.4687,-24.938 V 0 H 4.5781 Z"
         id="path53" />
    </symbol>
    <symbol
       id="n"
       overflow="visible">
      <path
         d="m 3.8906,-10.609 v -16.656 h 8.7656 v 2.7188 c 0,1.4805 -0.01172,3.3398 -0.03125,5.5781 -0.01172,2.2305 -0.01563,3.7148 -0.01563,4.4531 0,2.1992 0.05469,3.7812 0.17188,4.75 0.11328,0.96094 0.30469,1.6562 0.57812,2.0938 0.36328,0.57422 0.83203,1.0156 1.4062,1.3281 0.57031,0.30469 1.2344,0.45312 1.9844,0.45312 1.8125,0 3.2383,-0.69531 4.2812,-2.0938 1.0391,-1.3945 1.5625,-3.332 1.5625,-5.8125 v -13.469 h 8.7188 v 27.266 h -8.7188 v -3.9375 c -1.3125,1.5859 -2.7031,2.7578 -4.1719,3.5156 -1.4688,0.75 -3.0898,1.125 -4.8594,1.125 -3.1484,0 -5.5469,-0.96094 -7.2031,-2.8906 -1.6484,-1.9375 -2.4688,-4.7422 -2.4688,-8.4219 z"
         id="path56" />
    </symbol>
    <symbol
       id="m"
       overflow="visible">
      <path
         d="M 31.594,-16.609 V 0 h -8.75 v -12.703 c 0,-2.3516 -0.05859,-3.9766 -0.17188,-4.875 -0.10547,-0.89453 -0.28906,-1.5508 -0.54688,-1.9688 -0.33594,-0.57031 -0.79688,-1.0156 -1.3906,-1.3281 -0.58594,-0.3125 -1.2461,-0.46875 -1.9844,-0.46875 -1.8242,0 -3.2578,0.70312 -4.2969,2.1094 -1.0312,1.3984 -1.5469,3.3359 -1.5469,5.8125 v 13.422 h -8.7188 v -27.266 h 8.7188 v 3.9844 c 1.3125,-1.582 2.707,-2.75 4.1875,-3.5 1.4766,-0.75781 3.1094,-1.1406 4.8906,-1.1406 3.1445,0 5.5312,0.96875 7.1562,2.9062 1.6328,1.9297 2.4531,4.7305 2.4531,8.4062 z"
         id="path59" />
    </symbol>
    <symbol
       id="l"
       overflow="visible">
      <path
         d="m 26.219,-26.422 v 7.1094 c -1.1875,-0.80078 -2.3828,-1.3945 -3.5781,-1.7812 -1.1875,-0.39453 -2.4219,-0.59375 -3.7031,-0.59375 -2.4375,0 -4.3359,0.71094 -5.6875,2.125 -1.3555,1.418 -2.0312,3.4023 -2.0312,5.9531 0,2.5547 0.67578,4.5391 2.0312,5.9531 1.3516,1.418 3.25,2.125 5.6875,2.125 1.3633,0 2.6562,-0.20312 3.875,-0.60938 1.2266,-0.40625 2.3633,-1.0039 3.4062,-1.7969 v 7.1406 c -1.3672,0.5 -2.75,0.875 -4.1562,1.125 -1.3984,0.25 -2.8047,0.375 -4.2188,0.375 -4.918,0 -8.7656,-1.2578 -11.547,-3.7812 -2.7734,-2.5195 -4.1562,-6.0312 -4.1562,-10.531 0,-4.4998 1.3828,-8.0078 4.1562,-10.531 2.7812,-2.5195 6.6289,-3.7812 11.547,-3.7812 1.4258,0 2.832,0.125 4.2188,0.375 1.3945,0.25 2.7812,0.625 4.1562,1.125 z"
         id="path62" />
    </symbol>
  </defs>
  <g
     id="g145">
    <path
       d="m 71.263234,49.572842 c 0,-1.09946 -1.283591,-2.17783 -2.368097,-2.903132 l -30.570346,-28.679178 -5.42821,5.428208 27.953878,26.222396 -27.953878,26.220472 5.42821,5.428209 30.741573,-28.842712 c 1.043857,-0.75075 2.196674,-1.80963 2.196674,-2.875999 z"
       fill-rule="evenodd"
       id="path67"
       style="stroke-width:0.192387" />
  </g>
</svg>
