<svg width="28" height="34" viewBox="0 0 28 34" fill="none" xmlns="http://www.w3.org/2000/svg">
<path d="M11.5294 13.2324V11.9718C11.0754 11.91 10.6179 11.8779 10.1599 11.876C4.55824 11.876 0 16.2702 0 21.6713C0 24.9839 1.71788 27.9173 4.33754 29.6902C2.58342 27.8816 1.60753 25.4979 1.60918 23.0217C1.60918 17.6978 6.0373 13.3563 11.5294 13.2324Z" fill="#B7B7B7"/>
<path d="M11.7986 27.1455C14.1671 27.1455 16.0983 25.2173 16.1864 22.8132L16.1946 1.35812H20.024C19.9421 0.910327 19.9004 0.455687 19.8997 0L14.6703 0L14.6612 21.456C14.5739 23.8583 12.6411 25.7865 10.2734 25.7865C9.56311 25.7865 8.86339 25.609 8.23438 25.2691C8.64198 25.85 9.17761 26.323 9.79722 26.6492C10.4168 26.9754 11.1028 27.1455 11.7986 27.1455ZM27.1756 8.64075V7.44804C25.7697 7.44966 24.3937 7.03091 23.2144 6.24261C24.2495 7.46117 25.6384 8.30238 27.1756 8.64075Z" fill="#B7B7B7"/>
<path d="M23.0588 6.54758C21.9088 5.2094 21.2738 3.48415 21.2734 1.69702H19.8758C20.0587 2.68583 20.4353 3.62589 20.9825 4.45985C21.5298 5.2938 22.2362 6.00416 23.0588 6.54758ZM10.1499 17.0215C7.72877 17.0249 5.76712 19.0243 5.76465 21.492C5.76718 22.3101 5.98769 23.1117 6.40214 23.8095C6.81659 24.5073 7.40908 25.0745 8.115 25.4493C7.57634 24.6934 7.28556 23.7802 7.28489 22.8425C7.28736 20.374 9.24901 18.3737 11.6702 18.3711C12.1231 18.3711 12.5555 18.4475 12.9648 18.5781V13.149C12.5358 13.0869 12.1033 13.0546 11.6702 13.0523C11.5944 13.0523 11.5195 13.0574 11.4445 13.0583V17.2285C11.0256 17.0926 10.5891 17.0228 10.1499 17.0215Z" fill="#242424"/>
<path d="M26.479 9.33105V13.4741C23.8776 13.4781 21.34 12.6444 19.2212 11.0896V21.9198C19.2212 27.3294 14.9142 31.7303 9.62051 31.7303C7.57403 31.7303 5.67662 31.0703 4.11768 29.9514C5.01765 30.9411 6.10541 31.7298 7.31352 32.2685C8.52162 32.8073 9.82429 33.0846 11.1407 33.0834C16.4352 33.0834 20.7423 28.6824 20.7423 23.2737V12.4426C22.8611 13.9971 25.3987 14.8306 28.0001 14.8263V9.49647C27.4888 9.49631 26.979 9.44087 26.479 9.33105Z" fill="#242424"/>
<path d="M19.7473 21.5641V10.7161C21.9277 12.2774 24.521 13.1112 27.1764 13.1049V8.95674C25.615 8.62385 24.1976 7.78569 23.1312 6.56455C21.4249 5.45582 20.2472 3.6973 19.8734 1.69702H15.9641L15.9558 23.0868C15.8652 25.4824 13.8929 27.4046 11.4758 27.4046C10.0313 27.4029 8.67745 26.7073 7.8358 25.535C6.35839 24.7605 5.43192 23.231 5.4311 21.5633C5.43357 19.0862 7.44051 17.08 9.91934 17.0766C10.3805 17.0766 10.8236 17.153 11.2436 17.2845V13.0998C5.93098 13.2245 1.64697 17.5788 1.64697 22.918C1.64697 25.5011 2.65086 27.8517 4.28639 29.6068C5.9472 30.771 7.91048 31.3915 9.91934 31.3874C15.3382 31.3874 19.7473 26.9805 19.7473 21.5641Z" fill="white"/>
</svg>
