<?xml version="1.0" encoding="UTF-8" standalone="no"?>
<svg
   width="129.60393pt"
   height="129.60393pt"
   version="1.1"
   viewBox="0 0 129.60393 129.60393"
   id="svg168"
   sodipodi:docname="warning.svg"
   inkscape:version="1.2 (1:1.2+202206011327+fc4e4096c5)"
   xmlns:inkscape="http://www.inkscape.org/namespaces/inkscape"
   xmlns:sodipodi="http://sodipodi.sourceforge.net/DTD/sodipodi-0.dtd"
   xmlns="http://www.w3.org/2000/svg"
   xmlns:svg="http://www.w3.org/2000/svg">
  <sodipodi:namedview
     id="namedview170"
     pagecolor="#ffffff"
     bordercolor="#666666"
     borderopacity="1.0"
     inkscape:showpageshadow="2"
     inkscape:pageopacity="0.0"
     inkscape:pagecheckerboard="0"
     inkscape:deskcolor="#d1d1d1"
     inkscape:document-units="pt"
     showgrid="false"
     inkscape:zoom="0.50571429"
     inkscape:cx="-30.649718"
     inkscape:cy="395.48023"
     inkscape:window-width="1920"
     inkscape:window-height="1009"
     inkscape:window-x="0"
     inkscape:window-y="34"
     inkscape:window-maximized="1"
     inkscape:current-layer="g166" />
  <defs
     id="defs74">
    <symbol
       id="x"
       overflow="visible">
      <path
         d="M 11.094,-0.65625 C 10.51978,-0.36328 9.9221,-0.14453 9.2971,0 8.67991,0.15625 8.0393,0.23438 7.3752,0.23438 c -2.0234,0 -3.6211,-0.5625 -4.7969,-1.6875 -1.168,-1.125 -1.75,-2.6484 -1.75,-4.5781 0,-1.9258 0.58203,-3.4531 1.75,-4.5781 1.1758,-1.125 2.7734,-1.6875 4.7969,-1.6875 0.66406,0 1.3047,0.07813 1.9219,0.23438 0.625,0.14844 1.2227,0.37109 1.7969,0.67188 v 2.5 c -0.57422,-0.39453 -1.1406,-0.67969 -1.7031,-0.85938 -0.5625,-0.1875 -1.1523,-0.28125 -1.7656,-0.28125 -1.1172,0 -1.9922,0.35547 -2.625,1.0625 -0.63672,0.71094 -0.95312,1.6875 -0.95312,2.9375 0,1.25 0.31641,2.2344 0.95312,2.9531 0.63281,0.71094 1.5078,1.0625 2.625,1.0625 0.61328,0 1.2031,-0.09375 1.7656,-0.28125 0.5625,-0.1875 1.1289,-0.47266 1.7031,-0.85938 z"
         id="path2" />
    </symbol>
    <symbol
       id="b"
       overflow="visible">
      <path
         d="m 8.125,-6.5938 c -0.26172,-0.11328 -0.51562,-0.19531 -0.76562,-0.25 -0.25,-0.0625 -0.5,-0.09375 -0.75,-0.09375 -0.75,0 -1.3281,0.24219 -1.7344,0.71875 -0.39844,0.48047 -0.59375,1.1641 -0.59375,2.0469 V 0 h -2.8906 v -9.0625 h 2.8906 v 1.5 c 0.375,-0.59375 0.80078,-1.0234 1.2812,-1.2969 0.48828,-0.28125 1.0664,-0.42188 1.7344,-0.42188 0.10156,0 0.20703,0.00781 0.3125,0.015625 0.11328,0.011719 0.28125,0.027344 0.5,0.046875 z"
         id="path5" />
    </symbol>
    <symbol
       id="a"
       overflow="visible">
      <path
         d="m 10.438,-4.5469 v 0.8125 H 3.6568 c 0.070312,0.6875 0.31641,1.2031 0.73438,1.5469 0.42578,0.33594 1.0156,0.5 1.7656,0.5 0.61328,0 1.2383,-0.085938 1.875,-0.26562 0.64453,-0.1875 1.3008,-0.46094 1.9688,-0.82812 v 2.2344 c -0.67969,0.26172 -1.3594,0.45312 -2.0469,0.57812 -0.6875,0.13281 -1.375,0.20312 -2.0625,0.20312 -1.6367,0 -2.9062,-0.41406 -3.8125,-1.25 -0.90625,-0.83203 -1.3594,-2 -1.3594,-3.5 0,-1.4766 0.44141,-2.6406 1.3281,-3.4844 0.89453,-0.85156 2.125,-1.2812 3.6875,-1.2812 1.4258,0 2.5664,0.43359 3.4219,1.2969 0.85156,0.85547 1.2812,2 1.2812,3.4375 z M 7.4536,-5.51565 c 0,-0.55078 -0.16406,-0.99219 -0.48438,-1.3281 -0.3125,-0.33203 -0.73047,-0.5 -1.25,-0.5 -0.5625,0 -1.0234,0.15625 -1.375,0.46875 -0.34375,0.3125 -0.55859,0.76562 -0.64062,1.3594 z"
         id="path8" />
    </symbol>
    <symbol
       id="e"
       overflow="visible">
      <path
         d="m 5.4531,-4.0781 c -0.60547,0 -1.0625,0.10547 -1.375,0.3125 -0.30469,0.19922 -0.45312,0.5 -0.45312,0.90625 0,0.36719 0.11719,0.65234 0.35938,0.85938 0.25,0.21094 0.59375,0.3125 1.0312,0.3125 0.55078,0 1.0078,-0.19141 1.375,-0.57812 0.375,-0.39453 0.5625,-0.89062 0.5625,-1.4844 V -4.07811 Z M 9.875,-5.1719 V 0 H 6.9531 v -1.3438 c -0.38672,0.55469 -0.82422,0.95312 -1.3125,1.2031 -0.48047,0.25 -1.0703,0.375 -1.7656,0.375 -0.9375,0 -1.6992,-0.26953 -2.2812,-0.8125 -0.58594,-0.55078 -0.875,-1.2656 -0.875,-2.1406 0,-1.0625 0.36328,-1.8359 1.0938,-2.3281 0.72656,-0.5 1.875,-0.75 3.4375,-0.75 h 1.7031 v -0.23438 c 0,-0.45703 -0.18359,-0.78906 -0.54688,-1 -0.35547,-0.20703 -0.91797,-0.3125 -1.6875,-0.3125 -0.61719,0 -1.1953,0.0625 -1.7344,0.1875 -0.53125,0.11719 -1.0273,0.29688 -1.4844,0.54688 v -2.2031 c 0.625,-0.15625 1.25,-0.26953 1.875,-0.34375 0.625,-0.082031 1.25,-0.125 1.875,-0.125 1.6328,0 2.8125,0.32422 3.5312,0.96875 0.72656,0.64844 1.0938,1.6953 1.0938,3.1406 z"
         id="path11" />
    </symbol>
    <symbol
       id="d"
       overflow="visible">
      <path
         d="m 4.5469,-11.625 v 2.5625 h 2.9844 v 2.0781 H 4.5469 v 3.8438 c 0,0.41797 0.082031,0.69922 0.25,0.84375 0.16406,0.14844 0.5,0.21875 1,0.21875 H 7.2813 V 0 H 4.7969 C 3.6602,0 2.8516,-0.23828 2.375,-0.71875 1.89453,-1.19531 1.65625,-2.00395 1.65625,-3.14065 v -3.8438 h -1.4375 v -2.0781 h 1.4375 v -2.5625 z"
         id="path14" />
    </symbol>
    <symbol
       id="m"
       overflow="visible">
      <path
         d="m 7.5469,-7.7344 v -4.8438 h 2.9219 V -2e-4 H 7.5469 v -1.3125 c -0.39844,0.53125 -0.83594,0.92188 -1.3125,1.1719 -0.48047,0.25 -1.0391,0.375 -1.6719,0.375 -1.1172,0 -2.0312,-0.44141 -2.75,-1.3281 C 1.10156,-1.97671 0.75,-3.1173 0.75,-4.5158 c 0,-1.3945 0.35156,-2.5352 1.0625,-3.4219 0.71875,-0.89453 1.6328,-1.3438 2.75,-1.3438 0.625,0 1.1758,0.125 1.6562,0.375 0.48828,0.25 0.92969,0.64062 1.3281,1.1719 z M 5.6407,-1.875 c 0.625,0 1.0977,-0.22266 1.4219,-0.67188 0.32031,-0.45703 0.48438,-1.1133 0.48438,-1.9688 0,-0.86328 -0.16406,-1.5195 -0.48438,-1.9688 -0.32422,-0.45703 -0.79688,-0.6875 -1.4219,-0.6875 -0.61719,0 -1.0859,0.23047 -1.4062,0.6875 -0.32422,0.44922 -0.48438,1.1055 -0.48438,1.9688 0,0.85547 0.16016,1.5117 0.48438,1.9688 0.32031,0.44922 0.78906,0.67188 1.4062,0.67188 z"
         id="path17" />
    </symbol>
    <symbol
       id="l"
       overflow="visible">
      <path
         d="m 6.2188,-1.875 c 0.61328,0 1.082,-0.22266 1.4062,-0.67188 0.33203,-0.45703 0.5,-1.1133 0.5,-1.9688 0,-0.86328 -0.16797,-1.5195 -0.5,-1.9688 -0.32422,-0.45703 -0.79297,-0.6875 -1.4062,-0.6875 -0.625,0 -1.1055,0.23047 -1.4375,0.6875 -0.33594,0.44922 -0.5,1.1055 -0.5,1.9688 0,0.85547 0.16406,1.5117 0.5,1.9688 0.33203,0.44922 0.8125,0.67188 1.4375,0.67188 z M 4.2813,-7.7344 c 0.40625,-0.53125 0.84766,-0.92188 1.3281,-1.1719 0.48828,-0.25 1.0469,-0.375 1.6719,-0.375 1.1133,0 2.0312,0.44922 2.75,1.3438 0.71875,0.88672 1.0781,2.0273 1.0781,3.4219 0,1.3984 -0.35938,2.5391 -1.0781,3.4219 -0.71875,0.88672 -1.6367,1.3281 -2.75,1.3281 -0.625,0 -1.1836,-0.125 -1.6719,-0.375 -0.48047,-0.25 -0.92188,-0.64062 -1.3281,-1.1719 V 0 H 1.3907 v -12.578 h 2.8906 z"
         id="path20" />
    </symbol>
    <symbol
       id="k"
       overflow="visible">
      <path
         d="m 0.20312,-9.0625 h 2.8906 l 2.4375,6.1562 2.0781,-6.1562 h 2.8906 L 6.68742,0.8594 C 6.3007,1.8672 5.85148,2.5703 5.34362,2.9688 4.8319,3.37505 4.16002,3.57818 3.32802,3.57818 h -1.6719 v -1.9062 h 0.90625 c 0.48828,0 0.84375,-0.078125 1.0625,-0.23438 C 3.85143,1.28135 4.03112,1.0001 4.15612,0.59385 l 0.078125,-0.25 z"
         id="path23" />
    </symbol>
    <symbol
       id="j"
       overflow="visible">
      <path
         d="m 1.5156,-12.078 h 3.125 v 4.4062 L 9.125,-12.078 h 3.6094 L 6.9219,-6.3592 13.3281,2e-4 H 9.4375 l -4.7969,-4.75 v 4.75 h -3.125 z"
         id="path26" />
    </symbol>
    <symbol
       id="i"
       overflow="visible">
      <path
         d="m 9.7812,-7.5469 c 0.36328,-0.5625 0.79688,-0.98828 1.2969,-1.2812 0.50781,-0.30078 1.0664,-0.45312 1.6719,-0.45312 1.0391,0 1.832,0.32422 2.375,0.96875 0.55078,0.64844 0.82812,1.5781 0.82812,2.7969 V 3e-5 h -2.9219 v -4.7188 c 0.0078,-0.070312 0.01563,-0.14453 0.01563,-0.21875 v -0.32812 c 0,-0.64453 -0.09375,-1.1094 -0.28125,-1.3906 -0.1875,-0.28906 -0.49219,-0.4375 -0.90625,-0.4375 -0.55469,0 -0.98047,0.23047 -1.2812,0.6875 -0.29297,0.44922 -0.44922,1.1016 -0.46875,1.9531 V -4e-5 h -2.9062 v -4.7188 c 0,-1.0078 -0.089844,-1.6562 -0.26562,-1.9375 -0.16797,-0.28906 -0.46875,-0.4375 -0.90625,-0.4375 -0.5625,0 -0.99609,0.23047 -1.2969,0.6875 -0.30469,0.46094 -0.45312,1.1094 -0.45312,1.9531 v 4.4531 h -2.9062 v -9.0625 h 2.9062 v 1.3281 c 0.35156,-0.50781 0.75781,-0.89453 1.2188,-1.1562 0.46875,-0.25781 0.97656,-0.39062 1.5312,-0.39062 0.625,0 1.1758,0.15234 1.6562,0.45312 0.47656,0.30469 0.84375,0.73047 1.0938,1.2812 z"
         id="path29" />
    </symbol>
    <symbol
       id="c"
       overflow="visible">
      <path
         d="m 5.7031,-7.2031 c -0.64844,0 -1.1367,0.23047 -1.4688,0.6875 -0.33594,0.46094 -0.5,1.125 -0.5,2 0,0.86719 0.16406,1.5312 0.5,2 0.33203,0.46094 0.82031,0.6875 1.4688,0.6875 0.625,0 1.1016,-0.22656 1.4375,-0.6875 0.34375,-0.46875 0.51562,-1.1328 0.51562,-2 0,-0.875 -0.17188,-1.5391 -0.51562,-2 C 6.80466,-6.97263 6.3281,-7.2031 5.7031,-7.2031 Z m 0,-2.0781 c 1.5508,0 2.7656,0.42188 3.6406,1.2656 0.88281,0.84375 1.3281,2.0117 1.3281,3.5 0,1.4922 -0.44531,2.6562 -1.3281,3.5 -0.875,0.83594 -2.0898,1.25 -3.6406,1.25 -1.5625,0 -2.7891,-0.41406 -3.6719,-1.25 -0.875,-0.84375 -1.3125,-2.0078 -1.3125,-3.5 0,-1.4883 0.4375,-2.6562 1.3125,-3.5 0.88281,-0.84375 2.1094,-1.2656 3.6719,-1.2656 z"
         id="path32" />
    </symbol>
    <symbol
       id="w"
       overflow="visible">
      <path
         d="m 0.25,-9.0625 h 2.8906 l 2.2656,6.2656 2.25,-6.2656 h 2.8906 L 6.9843,0 H 3.8124 Z"
         id="path35" />
    </symbol>
    <symbol
       id="v"
       overflow="visible">
      <path
         d="m 5.9375,-6.7188 c 0.65625,0 1.125,-0.11719 1.4062,-0.35938 0.28125,-0.25 0.42188,-0.64844 0.42188,-1.2031 0,-0.55078 -0.14062,-0.94141 -0.42188,-1.1719 -0.28125,-0.23828 -0.75,-0.35938 -1.4062,-0.35938 H 4.6406 v 3.0938 z m -1.2969,2.1562 v 4.5625 h -3.125 v -12.078 h 4.7656 c 1.582,0 2.7422,0.27344 3.4844,0.8125 0.75,0.53125 1.125,1.3711 1.125,2.5156 0,0.80469 -0.19531,1.4609 -0.57812,1.9688 -0.38672,0.51172 -0.96875,0.89062 -1.75,1.1406 0.42578,0.09375 0.80469,0.3125 1.1406,0.65625 0.34375,0.34375 0.6875,0.86719 1.0312,1.5625 l 1.6875,3.4219 h -3.3125 l -1.4688,-3 C 7.33579,-3.60151 7.03501,-4.01555 6.73423,-4.23435 6.42954,-4.4531 6.02329,-4.56247 5.51543,-4.56247 Z"
         id="path38" />
    </symbol>
    <symbol
       id="h"
       overflow="visible">
      <path
         d="m 1.2969,-3.5312 v -5.5312 h 2.9062 v 0.90625 c 0,0.49219 -0.00781,1.1094 -0.015625,1.8594 v 1.4844 c 0,0.71875 0.015625,1.2422 0.046875,1.5625 0.039063,0.32422 0.10938,0.55859 0.20312,0.70312 0.125,0.1875 0.28125,0.33594 0.46875,0.4375 0.1875,0.10547 0.40625,0.15625 0.65625,0.15625 0.60156,0 1.0781,-0.22656 1.4219,-0.6875 0.34375,-0.46875 0.51562,-1.1133 0.51562,-1.9375 v -4.4844 h 2.9062 v 9.0625 h -2.9062 v -1.3125 c -0.4375,0.53125 -0.90234,0.92188 -1.3906,1.1719 -0.48047,0.25 -1.0156,0.375 -1.6094,0.375 -1.043,0 -1.8398,-0.31641 -2.3906,-0.95312 -0.54297,-0.64453 -0.8125,-1.582 -0.8125,-2.8125 z"
         id="path41" />
    </symbol>
    <symbol
       id="u"
       overflow="visible">
      <path
         d="M 1.3906,-12.578 H 4.2812 V 0 H 1.3906 Z"
         id="path44" />
    </symbol>
    <symbol
       id="g"
       overflow="visible">
      <path
         d="M 1.3906,-9.0625 H 4.2812 V 0 H 1.3906 Z m 0,-3.5156 h 2.8906 v 2.3594 H 1.3906 Z"
         id="path47" />
    </symbol>
    <symbol
       id="t"
       overflow="visible">
      <path
         d="M 8.8438,-2.2031 H 3.9844 L 3.20315,0 h -3.125 l 4.4688,-12.078 h 3.7188 L 12.73455,0 h -3.125 z M 4.75,-4.4375 H 8.0625 L 6.4063,-9.25 Z"
         id="path50" />
    </symbol>
    <symbol
       id="f"
       overflow="visible">
      <path
         d="M 10.5,-5.5156 V 0 H 7.5781 v -4.2188 c 0,-0.78125 -0.015625,-1.3164 -0.046875,-1.6094 -0.03125,-0.30078 -0.09375,-0.52344 -0.1875,-0.67188 -0.10547,-0.1875 -0.25781,-0.33203 -0.45312,-0.4375 -0.19922,-0.10156 -0.41797,-0.15625 -0.65625,-0.15625 -0.60547,0 -1.0859,0.23438 -1.4375,0.70312 -0.34375,0.46875 -0.51562,1.1172 -0.51562,1.9375 v 4.4531 h -2.8906 v -9.0625 h 2.8906 v 1.3281 c 0.4375,-0.53125 0.89844,-0.92188 1.3906,-1.1719 0.48828,-0.25 1.0312,-0.375 1.625,-0.375 1.0508,0 1.8477,0.32422 2.3906,0.96875 0.53906,0.64844 0.8125,1.5781 0.8125,2.7969 z"
         id="path53" />
    </symbol>
    <symbol
       id="s"
       overflow="visible">
      <path
         d="m 7.3438,-12.578 v 1.8906 H 5.75 c -0.40625,0 -0.69531,0.07813 -0.85938,0.23438 -0.15625,0.14844 -0.23438,0.40234 -0.23438,0.76562 v 0.625 h 2.4688 v 2.0781 H 4.65624 V 10e-5 h -2.9062 v -6.9844 h -1.4375 v -2.0781 h 1.4375 v -0.625 c 0,-0.98828 0.27344,-1.7188 0.82812,-2.1875 0.55078,-0.46875 1.4062,-0.70312 2.5625,-0.70312 z"
         id="path56" />
    </symbol>
    <symbol
       id="r"
       overflow="visible">
      <path
         d="M 10.5,-5.5156 V 0 H 7.5781 v -4.2031 c 0,-0.78906 -0.015625,-1.332 -0.046875,-1.625 -0.03125,-0.30078 -0.09375,-0.52344 -0.1875,-0.67188 -0.10547,-0.1875 -0.25781,-0.33203 -0.45312,-0.4375 -0.19922,-0.10156 -0.41797,-0.15625 -0.65625,-0.15625 -0.60547,0 -1.0859,0.23438 -1.4375,0.70312 -0.34375,0.46875 -0.51562,1.1172 -0.51562,1.9375 v 4.4531 h -2.8906 v -12.578 h 2.8906 v 4.8438 c 0.4375,-0.53125 0.89844,-0.92188 1.3906,-1.1719 0.48828,-0.25 1.0312,-0.375 1.625,-0.375 1.0508,0 1.8477,0.32422 2.3906,0.96875 0.53906,0.64844 0.8125,1.5781 0.8125,2.7969 z"
         id="path59" />
    </symbol>
    <symbol
       id="q"
       overflow="visible">
      <path
         d="M 1.5156,-12.078 H 5 l 4.3906,8.2812 v -8.2812 h 2.9531 V 0 H 8.8593 L 4.4687,-8.2812 V 0 H 1.5156 Z"
         id="path62" />
    </symbol>
    <symbol
       id="p"
       overflow="visible">
      <path
         d="m 1.5156,-12.078 h 5.1719 c 1.5391,0 2.7188,0.34375 3.5312,1.0312 0.82031,0.67969 1.2344,1.6484 1.2344,2.9062 0,1.2734 -0.41406,2.25 -1.2344,2.9375 -0.8125,0.67969 -1.9922,1.0156 -3.5312,1.0156 H 4.6406 V 0 h -3.125 z m 3.125,2.2656 v 3.3594 h 1.7188 c 0.60156,0 1.0664,-0.14453 1.3906,-0.4375 0.33203,-0.28906 0.5,-0.70703 0.5,-1.25 0,-0.53125 -0.16797,-0.94141 -0.5,-1.2344 C 7.42578,-9.66396 6.96094,-9.8124 6.3594,-9.8124 Z"
         id="path65" />
    </symbol>
    <symbol
       id="o"
       overflow="visible">
      <path
         d="m 1.3906,-9.0625 h 2.8906 v 8.9062 c 0,1.207 -0.29297,2.1289 -0.875,2.7656 C 2.83198,3.25383 1.9882,3.57805 0.875,3.57805 h -1.4219 v -1.9062 h 0.5 c 0.55078,0 0.92578,-0.125 1.125,-0.375 0.20703,-0.24219 0.3125,-0.72656 0.3125,-1.4531 z m 0,-3.5156 h 2.8906 v 2.3594 H 1.3906 Z"
         id="path68" />
    </symbol>
    <symbol
       id="n"
       overflow="visible">
      <path
         d="m 8.7031,-8.7812 v 2.375 C 8.31638,-6.67573 7.92576,-6.87495 7.5312,-6.99995 7.13276,-7.13276 6.72261,-7.20307 6.2968,-7.20307 c -0.8125,0 -1.4453,0.23438 -1.8906,0.70312 -0.44922,0.46875 -0.67188,1.1328 -0.67188,1.9844 0,0.84375 0.22266,1.5078 0.67188,1.9844 0.44531,0.46875 1.0781,0.70312 1.8906,0.70312 0.44531,0 0.875,-0.066406 1.2812,-0.20312 0.40625,-0.13281 0.78125,-0.33594 1.125,-0.60938 v 2.375 c -0.44922,0.16797 -0.90625,0.28906 -1.375,0.375 -0.46875,0.082031 -0.9375,0.125 -1.4062,0.125 -1.625,0 -2.9023,-0.41406 -3.8281,-1.25 -0.91797,-0.84375 -1.375,-2.0078 -1.375,-3.5 0,-1.5 0.45703,-2.6641 1.375,-3.5 0.92578,-0.84375 2.2031,-1.2656 3.8281,-1.2656 0.47656,0 0.94531,0.042969 1.4062,0.125 0.45703,0.085938 0.91406,0.21094 1.375,0.375 z"
         id="path71" />
    </symbol>
  </defs>
  <g
     id="g166"
     transform="translate(-285.19804,-215.19804)">
    <path
       d="m 349.61582,215.19804 c 36.04377,0 65.18614,29.14237 65.18614,64.41778 0,36.04377 -29.14237,65.18614 -65.18614,65.18614 -35.27773,0 -64.41778,-29.14237 -64.41778,-65.18614 0,-35.27773 29.14237,-64.41778 64.41778,-64.41778 z m 0,6.1349 c -32.20889,0 -58.28474,26.07353 -58.28474,58.28473 0,32.97494 26.07353,59.05078 58.28474,59.05078 32.97494,0 59.05078,-26.07353 59.05078,-59.05078 0,-32.20889 -26.07353,-58.28473 -59.05078,-58.28473 z"
       id="path76"
       style="stroke-width:0.231436;fill:#ffffff" />
    <path
       d="m 346.5493,300.32236 -3.06745,-44.4796 v -18.40538 h 13.0363 v 18.40538 l -3.06745,44.4796 z"
       id="path78"
       style="stroke-width:0.231436;fill:#ffffff" />
    <path
       d="m 357.28559,315.65959 c 0,4.2355 -3.43358,7.66908 -7.66908,7.66908 -4.2355,0 -7.66908,-3.43358 -7.66908,-7.66908 0,-4.2355 3.43358,-7.66908 7.66908,-7.66908 4.2355,0 7.66908,3.43358 7.66908,7.66908"
       fill-rule="evenodd"
       id="path80"
       style="stroke-width:0.231436;fill:#ffffff" />
  </g>
</svg>
