<?xml version="1.0" encoding="UTF-8" standalone="no"?>
<svg
   width="750"
   height="670"
   viewBox="0 0 750.00003 670"
   role="img"
   artist="Katerina Limpitsouni"
   source="https://undraw.co/"
   version="1.1"
   id="svg29"
   sodipodi:docname="blog.svg"
   inkscape:version="1.4.2 (1:1.4.2+202505120738+ebf0e940d0)"
   xmlns:inkscape="http://www.inkscape.org/namespaces/inkscape"
   xmlns:sodipodi="http://sodipodi.sourceforge.net/DTD/sodipodi-0.dtd"
   xmlns="http://www.w3.org/2000/svg"
   xmlns:svg="http://www.w3.org/2000/svg">
  <defs
     id="defs29" />
  <sodipodi:namedview
     id="namedview29"
     pagecolor="#ffffff"
     bordercolor="#000000"
     borderopacity="0.25"
     inkscape:showpageshadow="2"
     inkscape:pageopacity="0.0"
     inkscape:pagecheckerboard="0"
     inkscape:deskcolor="#d1d1d1"
     inkscape:zoom="0.3506241"
     inkscape:cx="1371.8395"
     inkscape:cy="55.615116"
     inkscape:window-width="1920"
     inkscape:window-height="1016"
     inkscape:window-x="0"
     inkscape:window-y="0"
     inkscape:window-maximized="1"
     inkscape:current-layer="svg29" />
  <path
     d="m 568.61996,515.97338 a 26.7491,26.7491 0 1 1 26.7491,-26.7491 26.779429,26.779429 0 0 1 -26.7491,26.7491 z"
     fill="#cccccc"
     id="path1"
     style="stroke-width:1.02881" />
  <path
     d="m 580.9657,488.19547 h -11.31693 v -12.86015 a 1.0288115,1.0288115 0 0 0 -2.05762,0 v 12.86015 h -11.31693 a 1.0288115,1.0288115 0 1 0 0,2.05762 h 11.31693 v 12.86014 a 1.0288115,1.0288115 0 0 0 2.05762,0 v -12.86014 h 11.31693 a 1.0288115,1.0288115 0 0 0 0,-2.05762 z"
     fill="#ffffff"
     id="path2"
     style="stroke-width:1.02881" />
  <polygon
     points="606.22,581.779 594.788,581.778 589.352,537.682 606.224,537.683 "
     fill="#ffb8b8"
     id="polygon2"
     transform="matrix(1.0288115,0,0,1.0288115,47.944133,42.780858)" />
  <path
     d="m 651.4676,637.95964 h 22.68305 v 14.28196 h -36.96494 v 0 a 14.28189,14.28189 0 0 1 14.28189,-14.28196 z"
     fill="#2f2e41"
     id="path3"
     style="stroke-width:1.02881" />
  <polygon
     points="560.72,581.779 549.288,581.778 543.852,537.682 560.724,537.683 "
     fill="#ffb8b8"
     id="polygon3"
     transform="matrix(1.0288115,0,0,1.0288115,47.944133,42.780858)" />
  <path
     d="m 604.65668,637.95964 h 22.68305 v 14.28196 h -36.96494 v 0 a 14.28189,14.28189 0 0 1 14.28189,-14.28196 z"
     fill="#2f2e41"
     id="path4"
     style="stroke-width:1.02881" />
  <path
     d="m 680.69086,484.47877 a 9.6471657,9.6471657 0 0 1 2.03308,-14.65233 l -3.64288,-21.7423 12.67281,-5.43632 4.71319,30.77659 a 9.699419,9.699419 0 0 1 -15.7762,11.05438 z"
     fill="#ffb8b8"
     id="path5"
     style="stroke-width:1.02881" />
  <path
     d="m 581.47435,474.20534 a 9.6471657,9.6471657 0 0 0 0.41552,-14.78689 l 7.18478,-20.84172 -11.60056,-7.45524 -9.73291,29.57505 a 9.699419,9.699419 0 0 0 13.73317,13.5088 z"
     fill="#ffb8b8"
     id="path6"
     style="stroke-width:1.02881" />
  <circle
     cx="641.71167"
     cy="295.39758"
     r="25.268671"
     fill="#ffb8b8"
     id="circle6"
     style="stroke-width:1.02881" />
  <path
     d="m 580.69317,458.61278 a 4.6319255,4.6319255 0 0 1 -1.28124,-0.18135 l -7.36495,-2.11438 a 4.637512,4.637512 0 0 1 -3.17661,-5.71121 l 15.19934,-53.66498 21.19563,-52.03235 c 2.10761,-5.17269 6.51095,-8.56505 11.49175,-8.85292 a 11.776219,11.776219 0 0 1 11.0886,6.45771 v 0 a 16.070952,16.070952 0 0 1 0.36722,14.16725 l -24.09168,52.68591 -19.15257,46.38241 a 4.6272959,4.6272959 0 0 1 -4.27549,2.86391 z"
     fill="#3f3d56"
     id="path7"
     style="stroke-width:1.02881" />
  <path
     d="m 655.97112,316.58832 -14.03974,0.2496 a 9.3349625,9.3349625 0 0 1 -9.15219,-11.92361 21.737141,21.737141 0 0 0 0.67441,-3.09954 15.662925,15.662925 0 0 0 0.0924,-3.45015 5.0946747,5.0946747 0 0 0 -9.8297,-1.44895 v 0 c -2.36072,0.0336 -7.3899,-0.73596 -9.75061,-0.70233 -5.01244,-12.84966 5.91042,-29.66396 17.66862,-35.97942 11.98696,-6.4383 27.54665,0.11183 32.14151,13.5306 6.37696,0.11462 11.5583,6.404 12.3801,13.48391 0.8218,7.07991 -2.09095,14.47278 -6.54663,19.89907 -4.45568,5.42629 -10.30612,9.38158 -13.63812,9.44082 z"
     fill="#2f2e41"
     id="path8"
     style="stroke-width:1.02881" />
  <path
     d="m 609.82069,637.08597 a 4.6445902,4.6445902 0 0 1 -4.58997,-4.12529 l -5.20935,-175.1401 65.62516,4.67135 0.0505,0.42197 c 14.83012,124.13908 9.76066,167.11155 9.70765,167.531 a 4.6278926,4.6278926 0 0 1 -5.22167,4.32373 l -14.50282,0.34762 a 4.6274708,4.6274708 0 0 1 -4.10392,-4.41967 L 638.0254,503.84433 a 1.4469514,1.4469514 0 0 0 -1.5083,-1.08658 1.5047809,1.5047809 0 0 0 -1.48068,1.21116 l -5.23523,127.2677 a 4.6097649,4.6097649 0 0 1 -4.15769,4.80497 l -15.3626,1.02128 a 4.5847237,4.5847237 0 0 1 -0.46017,0.0231 z"
     fill="#2f2e41"
     id="path9"
     style="stroke-width:1.02881" />
  <path
     d="m 637.05175,478.74742 c -0.39259,0 -0.78443,-0.006 -1.17799,-0.0181 -18.87025,-0.56816 -33.63354,-14.84493 -37.7086,-19.20734 a 4.6071312,4.6071312 0 0 1 -1.11246,-4.21521 l 10.88616,-46.05388 -2.88825,-40.03826 a 39.474788,39.474788 0 0 1 10.80829,-30.48708 32.575805,32.575805 0 0 1 25.08909,-10.14997 c 18.36943,0.8766 32.86168,17.29589 32.99255,37.37932 0.2032,31.10597 -0.71259,33.24295 -1.01324,33.94525 -9.16762,21.39606 -4.16071,51.42953 -2.40776,60.12519 a 4.6465141,4.6465141 0 0 1 -1.37568,4.30815 c -10.08268,9.56678 -20.87465,14.41144 -32.09211,14.41191 z"
     fill="#3f3d56"
     id="path10"
     style="stroke-width:1.02881" />
  <path
     d="m 684.44364,467.0407 a 4.6261436,4.6261436 0 0 1 -4.50658,-3.59481 l -11.23131,-48.92732 -15.05214,-55.92354 a 16.071127,16.071127 0 0 1 2.70289,-13.91206 11.785561,11.785561 0 0 1 12.00263,-4.53723 c 4.86501,1.10718 8.64744,5.18023 9.87145,10.63022 l 12.29927,54.76261 6.13419,55.49504 a 4.6384894,4.6384894 0 0 1 -4.07682,5.10788 l -7.6131,0.86857 a 4.6166683,4.6166683 0 0 1 -0.53048,0.0307 z"
     fill="#3f3d56"
     id="path11"
     style="stroke-width:1.02881" />
  <path
     d="m 79.664244,472.31717 a 11.052193,11.052193 0 0 0 1.627446,-16.86891 l 4.287254,-95.69793 -21.826772,2.44992 1.268061,93.60609 a 11.112101,11.112101 0 0 0 14.644011,16.51083 z"
     fill="#ffb8b8"
     id="path12"
     style="stroke-width:1.02881" />
  <polygon
     points="69.534,574.966 81.609,577.089 93.543,531.525 77.722,528.392 "
     fill="#ffb8b8"
     id="polygon12"
     transform="matrix(1.0288115,0,0,1.0288115,47.944133,42.780858)" />
  <path
     d="m 153.83418,652.24323 -39.04213,-6.86366 2.65187,-15.08445 23.95768,4.21179 a 15.315773,15.315773 0 0 1 12.43258,17.73632 z"
     fill="#2f2e41"
     id="path13"
     style="stroke-width:1.02881" />
  <polygon
     points="36.392,581.01 48.652,581.01 54.484,533.722 36.39,533.723 "
     fill="#ffb8b8"
     id="polygon13"
     transform="matrix(1.0288115,0,0,1.0288115,47.944133,42.780858)" />
  <path
     d="m 122.32343,652.24146 -39.640856,0.002 -7.01e-4,-15.31579 24.325097,-0.001 a 15.315773,15.315773 0 0 1 15.31647,15.31507 v 0 z"
     fill="#2f2e41"
     id="path14"
     style="stroke-width:1.02881" />
  <path
     d="m 139.04015,627.20845 a 4.8848486,4.8848486 0 0 1 -0.58902,-0.0349 l -14.84575,-1.22161 a 5.0213924,5.0213924 0 0 1 -4.36474,-5.82257 l 13.70858,-76.83267 -9.26292,-48.8418 a 1.6739381,1.6739381 0 0 0 -3.31175,0.16456 l -11.58004,130.27606 a 5.0655387,5.0655387 0 0 1 -5.3597,4.56499 l -13.986475,-0.5209 a 5.0286661,5.0286661 0 0 1 -4.667152,-4.76443 l -0.94018,-156.14026 72.511827,-9.06351 5.06545,78.23142 -0.0202,0.0828 -17.48023,86.0858 a 5.0265982,5.0265982 0 0 1 -4.87775,3.837 z"
     fill="#2f2e41"
     id="path15"
     style="stroke-width:1.02881" />
  <circle
     cx="107.74804"
     cy="272.46826"
     r="25.268671"
     fill="#ffb8b8"
     id="circle15"
     style="stroke-width:1.02881" />
  <path
     d="m 131.55733,479.44685 a 20.6894,20.6894 0 0 1 -11.16972,-3.19517 c -12.24014,-7.65008 -26.142709,-4.60967 -33.340552,-2.11626 a 5.0207237,5.0207237 0 0 1 -4.34213,-0.49475 4.9494682,4.9494682 0 0 1 -2.288489,-3.65395 L 67.327354,353.08744 c -2.193427,-19.58618 9.60484,-38.00089 28.053324,-43.78586 v 0 q 1.039635,-0.32613 2.114403,-0.61844 a 40.708652,40.708652 0 0 1 33.921969,5.88741 41.361855,41.361855 0 0 1 17.66141,30.19879 l 11.01904,117.68273 a 4.9458879,4.9458879 0 0 1 -1.57115,4.12255 c -3.86264,3.57334 -15.07379,12.87114 -26.96902,12.87223 z"
     fill="#232e19"
     id="path16"
     style="stroke-width:1.02881" />
  <path
     d="m 91.700022,378.15568 -29.530358,-3.24693 a 5.882199,5.882199 0 0 1 -5.046763,-7.33936 l 7.516559,-28.64867 a 16.336004,16.336004 0 0 1 32.465568,3.66593 l 1.115859,29.50149 a 5.8822196,5.8822196 0 0 1 -6.520865,6.0675 z"
     fill="#232e19"
     id="path17"
     style="stroke-width:1.02881" />
  <path
     d="m 159.97935,468.21933 a 11.052203,11.052203 0 0 0 -0.41733,-16.9421 l -7.27671,-95.51713 -21.38746,4.81448 12.55447,93.01902 a 11.112101,11.112101 0 0 0 16.52703,14.62573 z"
     fill="#ffb8b8"
     id="path18"
     style="stroke-width:1.02881" />
  <path
     d="m 122.69815,372.15114 a 5.8758718,5.8758718 0 0 1 -1.87084,-4.5266 l 1.11586,-29.50149 a 16.336004,16.336004 0 0 1 32.46557,-3.66594 l 7.51655,28.64868 a 5.882199,5.882199 0 0 1 -5.04676,7.33936 l -29.53035,3.24693 a 5.8756043,5.8756043 0 0 1 -4.65003,-1.54094 z"
     fill="#232e19"
     id="path19"
     style="stroke-width:1.02881" />
  <path
     d="m 106.24514,298.68894 a 5.8467359,5.8467359 0 0 1 -1.33398,-0.15573 l -0.12835,-0.0312 c -22.216659,-3.39889 -27.126363,-16.26707 -28.204157,-21.6412 -1.115468,-5.56402 0.154723,-10.93464 3.024902,-13.02039 -1.564823,-4.94112 -1.313648,-9.32206 0.748244,-13.02693 3.596067,-6.46122 11.400322,-8.64593 12.446963,-8.91319 6.232654,-4.598 13.689778,-1.52865 15.046618,-0.90624 12.05614,-4.46036 16.66418,-0.74749 17.49758,0.0814 5.3892,0.96802 8.67407,3.04976 9.76467,6.18894 2.04836,5.89612 -4.42947,13.23037 -4.70626,13.53982 l -0.14367,0.16026 -9.65039,0.45964 a 6.5411837,6.5411837 0 0 0 -6.15353,7.52771 v 0 a 30.456998,30.456998 0 0 0 0.98813,3.45215 c 1.64815,5.15058 2.88298,9.55066 1.29028,11.22349 a 2.5819671,2.5819671 0 0 1 -2.70088,0.46818 c -1.5088,-0.40288 -2.53334,-0.31849 -3.04374,0.25168 -0.79245,0.88414 -0.55057,3.1221 0.68119,6.30197 a 5.9042259,5.9042259 0 0 1 -1.07603,6.01564 5.728474,5.728474 0 0 1 -4.34759,2.02397 z"
     fill="#2f2e41"
     id="path20"
     style="stroke-width:1.02881" />
  <path
     d="M 193.00655,653.83412 H 48.972944 a 1.0288115,1.0288115 0 0 1 0,-2.05762 H 193.00655 a 1.0288115,1.0288115 0 1 1 0,2.05762 z"
     fill="#cccccc"
     id="path21"
     style="stroke-width:1.02881" />
  <path
     d="M 695.06658,653.83412 H 551.03296 a 1.0288115,1.0288115 0 0 1 0,-2.05762 h 144.03362 a 1.0288115,1.0288115 0 1 1 0,2.05762 z"
     fill="#cccccc"
     id="path22"
     style="stroke-width:1.02881" />
  <path
     d="M 489.00864,478.99694 H 240.03625 a 36.04934,36.04934 0 0 1 -36.0084,-36.0084 V 78.789262 a 36.04934,36.04934 0 0 1 36.0084,-36.008404 h 248.97239 a 36.04934,36.04934 0 0 1 36.00841,36.008404 V 442.98854 a 36.04934,36.04934 0 0 1 -36.00841,36.0084 z"
     fill="#ffffff"
     id="path23"
     style="stroke-width:1.02881" />
  <path
     d="M 449.91418,331.90721 H 279.13146 c -17.44555,-0.0841 -17.5181,-26.65805 8.7e-4,-26.74905 l 170.78185,-5e-5 c 17.43327,0.0817 17.52774,26.6578 0,26.7491 z"
     fill="#cccccc"
     id="path24"
     style="stroke-width:1.02881" />
  <path
     d="M 449.91418,117.85371 H 279.13146 c -17.44555,-0.0841 -17.5181,-26.658062 8.7e-4,-26.74905 l 170.78185,-5.1e-5 c 17.43327,0.08169 17.52774,26.657751 0,26.749101 z"
     fill="#cccccc"
     id="path25"
     style="stroke-width:1.02881" />
  <path
     d="M 449.91418,381.29016 H 279.13146 c -17.44555,-0.0841 -17.5181,-26.65805 8.7e-4,-26.74905 l 170.78185,-5e-5 c 17.43327,0.0817 17.52774,26.6578 0,26.7491 z"
     fill="#cccccc"
     id="path26"
     style="stroke-width:1.02881" />
  <path
     d="M 449.91418,430.67311 H 279.13146 c -17.44555,-0.084 -17.5181,-26.65805 8.7e-4,-26.74905 l 170.78185,-5e-5 c 17.43327,0.0817 17.52774,26.65781 0,26.7491 z"
     fill="#cccccc"
     id="path27"
     style="stroke-width:1.02881" />
  <path
     d="M 446.82731,273.05903 H 282.21747 a 16.994608,16.994608 0 0 1 -16.9754,-16.97539 v -92.18111 a 16.994598,16.994598 0 0 1 16.9754,-16.97539 h 164.60984 a 16.994588,16.994588 0 0 1 16.97539,16.97539 v 92.18111 a 16.994598,16.994598 0 0 1 -16.97539,16.97539 z"
     fill="#232e19"
     id="path28"
     style="stroke-width:1.02881" />
  <path
     d="M 489.00864,478.99694 H 240.03625 a 36.04934,36.04934 0 0 1 -36.0084,-36.0084 V 78.789262 a 36.04934,36.04934 0 0 1 36.0084,-36.008404 h 248.97239 a 36.04934,36.04934 0 0 1 36.00841,36.008404 V 442.98854 a 36.04934,36.04934 0 0 1 -36.00841,36.0084 z M 240.03625,48.953728 A 29.86932,29.86932 0 0 0 210.20072,78.789262 V 442.98854 a 29.86932,29.86932 0 0 0 29.83553,29.83554 h 248.97239 a 29.869238,29.869238 0 0 0 29.83554,-29.83554 V 78.789262 A 29.869238,29.869238 0 0 0 489.00864,48.953728 Z"
     fill="#e6e6e6"
     id="path29"
     style="stroke-width:1.02881" />
</svg>
