<?xml version="1.0" encoding="UTF-8" standalone="no"?>
<svg
   data-name="Layer 1"
   width="500"
   height="400"
   viewBox="0 0 500 400"
   version="1.1"
   id="svg22"
   sodipodi:docname="contact.svg"
   inkscape:version="1.1.2 (1:1.1+202202050950+0a00cf5339)"
   xmlns:inkscape="http://www.inkscape.org/namespaces/inkscape"
   xmlns:sodipodi="http://sodipodi.sourceforge.net/DTD/sodipodi-0.dtd"
   xmlns="http://www.w3.org/2000/svg"
   xmlns:svg="http://www.w3.org/2000/svg">
  <defs
     id="defs26" />
  <sodipodi:namedview
     id="namedview24"
     pagecolor="#ffffff"
     bordercolor="#666666"
     borderopacity="1.0"
     inkscape:pageshadow="2"
     inkscape:pageopacity="0.0"
     inkscape:pagecheckerboard="0"
     showgrid="false"
     inkscape:zoom="0.72920893"
     inkscape:cx="253.01391"
     inkscape:cy="307.1822"
     inkscape:window-width="1920"
     inkscape:window-height="1009"
     inkscape:window-x="0"
     inkscape:window-y="34"
     inkscape:window-maximized="1"
     inkscape:current-layer="svg22" />
  <path
     d="m 473.64929,375.68745 c -0.78054,0.99128 -1.56846,1.97532 -2.34861,2.95213 a 13.39684,12.176359 0 0 1 -7.62656,2.14898 H 44.136704 a 13.456905,12.230952 0 0 1 -7.331953,-1.9681 c -0.724567,-0.86827 -1.440964,-1.74377 -2.16553,-2.61932 L 35.363787,375.83936 247.75167,268.8392 a 12.752655,11.590861 0 0 1 12.31562,-0.0145 L 472.9325,375.32567 Z"
     fill="#232e19"
     id="path2"
     style="stroke-width:0.758958" />
  <path
     d="M 463.67412,150.69615 279.60442,54.078792 a 50.967826,46.324546 0 0 0 -50.93477,-0.02279 L 44.136704,150.69615 A 13.552651,12.317975 0 0 0 30.603239,162.9967 v 205.49131 a 13.549259,12.314892 0 0 0 13.533465,12.30055 H 463.67412 a 13.556385,12.321369 0 0 0 13.53346,-12.30055 V 162.9967 a 13.552635,12.31796 0 0 0 -13.53346,-12.30055 z m 11.94129,217.79186 a 11.970342,10.879818 0 0 1 -11.94129,10.85343 H 44.136704 A 11.962834,10.872994 0 0 1 32.195412,368.48801 V 162.9967 A 11.955845,10.866641 0 0 1 44.136704,152.14327 L 228.66965,55.503096 a 50.967826,46.324546 0 0 1 50.93477,0.0228 l 184.0697,96.617374 a 11.955845,10.866641 0 0 1 11.94129,10.85343 z"
     fill="#3f3d56"
     id="path4"
     style="stroke-width:0.758958" />
  <path
     d="m 254.14408,266.95807 a 12.230629,11.116393 0 0 1 -4.07279,-0.62111 l -0.2408,-0.0773 -0.0489,-0.4865 c -0.15005,0.0672 -0.30146,0.13144 -0.45305,0.1922 l -0.16016,0.0639 -0.16034,-0.0644 c -0.33547,-0.1339 -0.66859,-0.28546 -0.99006,-0.45011 L 101.45494,190.66015 V 37.820636 A 14.744152,13.400929 0 0 1 116.18251,24.434757 H 391.62832 A 14.744152,13.400929 0 0 1 406.3559,37.820636 V 190.85557 l -0.20291,0.10385 -145.88279,74.55573 a 12.543881,11.401107 0 0 1 -6.12612,1.44292 z"
     fill="#ffffff"
     id="path6"
     style="stroke-width:0.758958" />
  <path
     d="m 254.14408,267.31985 a 12.623133,11.473138 0 0 1 -4.20492,-0.6416 l -0.48202,-0.1544 -0.0207,-0.20667 -0.26821,0.10705 -0.3203,-0.1279 c -0.3475,-0.13885 -0.6923,-0.29572 -1.02524,-0.46635 L 101.05686,190.87216 V 37.820636 a 15.142786,13.763245 0 0 1 15.12565,-13.747658 h 275.44581 a 15.14285,13.763303 0 0 1 15.12563,13.747658 V 191.06718 l -146.28878,74.76314 a 12.93855,11.75982 0 0 1 -6.32109,1.48953 z m -3.19504,-1.86437 a 11.537256,10.486187 0 0 0 8.73655,-0.8868 L 405.16178,190.22067 V 37.820636 A 13.548726,12.314408 0 0 0 391.62832,25.5201 H 116.18251 A 13.548662,12.31435 0 0 0 102.64904,37.820636 V 190.02494 l 9.54477,4.87203 136.40973,69.67208 q 0.27841,0.14253 0.56522,0.26815 0.28688,-0.12561 0.56462,-0.2678 l 1.07207,-0.54903 z"
     fill="#3f3d56"
     id="path8"
     style="stroke-width:0.758958" />
  <path
     d="m 473.68077,156.03604 -57.77182,29.52128 -9.95108,5.08665 -145.8828,74.55571 a 12.134049,11.028611 0 0 1 -5.93099,1.39647 11.870274,10.788867 0 0 1 -3.94039,-0.60055 9.5957523,8.7215584 0 0 1 -1.03516,-0.36178 q -0.48919,-0.19537 -0.95506,-0.43414 l -136.40944,-69.67169 -9.95108,-5.0794 -67.603574,-34.52833 a 0.80484312,0.73152018 0 0 1 -0.302417,-0.99128 0.7955528,0.72307623 0 0 1 1.082566,-0.27495 l 66.823425,34.13037 9.95108,5.07939 137.18959,70.06966 a 10.408357,9.460133 0 0 0 1.41687,0.60055 c 0.20718,0.0722 0.42214,0.13748 0.6371,0.19537 a 10.559478,9.5974868 0 0 0 8.24732,-0.79592 l 146.66296,-74.94645 9.95108,-5.08664 56.99167,-29.12333 a 0.79490083,0.72248365 0 1 1 0.78016,1.25901 z"
     fill="#3f3d56"
     id="path10"
     style="stroke-width:0.758958" />
  <path
     d="m 161.22092,71.828003 h -22.29043 a 6.3686903,5.788489 0 0 1 0,-11.576978 h 22.29043 a 6.3686903,5.788489 0 0 1 0,11.576978 z"
     fill="#232e19"
     id="path12"
     style="stroke-width:0.758958" />
  <path
     d="m 187.49177,91.364154 h -48.56128 a 6.3686899,5.7884886 0 0 1 0,-11.576977 h 48.56128 a 6.3686899,5.7884886 0 0 1 0,11.576977 z"
     fill="#e6e6e6"
     id="path14"
     style="stroke-width:0.758958" />
  <path
     d="M 323.16491,143.46055 H 185.442 a 6.3686969,5.788495 0 0 1 0,-11.57699 h 137.72291 a 6.3686969,5.788495 0 0 1 0,11.57699 z"
     fill="#232e19"
     id="path16"
     style="stroke-width:0.758958" />
  <path
     d="M 335.90228,165.89093 H 171.90853 a 6.3686915,5.78849 0 0 1 0,-11.57698 h 163.99375 a 6.3686915,5.78849 0 0 1 0,11.57698 z"
     fill="#e6e6e6"
     id="path18"
     style="stroke-width:0.758958" />
  <path
     d="M 335.90228,187.59777 H 171.90853 a 6.3686969,5.788495 0 0 1 0,-11.57699 h 163.99375 a 6.3686969,5.788495 0 0 1 0,11.57699 z"
     fill="#e6e6e6"
     id="path20"
     style="stroke-width:0.758958" />
</svg>
