<?xml version="1.0" encoding="UTF-8" standalone="no"?>
<svg
   data-name="Layer 1"
   width="500"
   height="400"
   viewBox="0 0 500.00001 400"
   version="1.1"
   id="svg80"
   sodipodi:docname="reservation.svg"
   inkscape:version="1.1.2 (1:1.1+202202050950+0a00cf5339)"
   xmlns:inkscape="http://www.inkscape.org/namespaces/inkscape"
   xmlns:sodipodi="http://sodipodi.sourceforge.net/DTD/sodipodi-0.dtd"
   xmlns="http://www.w3.org/2000/svg"
   xmlns:svg="http://www.w3.org/2000/svg">
  <defs
     id="defs84" />
  <sodipodi:namedview
     id="namedview82"
     pagecolor="#ffffff"
     bordercolor="#666666"
     borderopacity="1.0"
     inkscape:pageshadow="2"
     inkscape:pageopacity="0.0"
     inkscape:pagecheckerboard="0"
     showgrid="false"
     inkscape:zoom="0.59348903"
     inkscape:cx="273.80456"
     inkscape:cy="340.36013"
     inkscape:window-width="1920"
     inkscape:window-height="1009"
     inkscape:window-x="0"
     inkscape:window-y="34"
     inkscape:window-maximized="1"
     inkscape:current-layer="svg80" />
  <path
     d="m 424.63463,242.85805 a 5.2684298,5.2684298 0 0 1 1.11229,-8.00161 l -4.17727,-18.25037 9.11233,3.40891 2.56978,16.80822 a 5.2970076,5.2970076 0 0 1 -8.61711,6.03484 z"
     fill="#ffb8b8"
     id="path2"
     style="stroke-width:0.576048" />
  <path
     d="m 424.00415,228.37342 -8.01052,-15.48693 1.08332,-38.9969 0.51474,1.08458 c 0.59966,1.26349 14.65477,31.01802 13.65235,40.97905 l 1.60649,9.10285 z"
     fill="#3f3d56"
     id="path4"
     style="stroke-width:0.576048" />
  <polygon
     points="721.305,551.193 721.307,594.201 732.458,594.201 737.762,551.192 "
     fill="#ffb8b8"
     id="polygon6"
     transform="matrix(0.57604847,0,0,0.57604847,3.2733189,0.53826145)" />
  <path
     d="m 417.14281,340.73001 12.64949,-5.2e-4 h 10e-4 a 8.0611013,8.0611013 0 0 1 8.06094,8.06096 v 0.26196 l -20.71107,10e-4 z"
     fill="#2f2e41"
     id="path8"
     style="stroke-width:0.576048" />
  <polygon
     points="622.655,544.29 611.134,585.727 621.877,588.714 638.511,548.699 "
     fill="#ffb8b8"
     id="polygon10"
     transform="matrix(0.57604847,0,0,0.57604847,3.2733189,0.53826145)" />
  <path
     d="m 354.29933,335.48611 12.18716,3.3887 5.7e-4,2.5e-4 a 8.0610956,8.0610956 0 0 1 5.60645,9.92598 l -0.0702,0.25239 -19.95412,-5.54815 z"
     fill="#2f2e41"
     id="path12"
     style="stroke-width:0.576048" />
  <path
     d="m 412.37701,333.16839 -12.9632,-92.81639 -27.99855,92.29153 -22.0148,-7.51732 31.5528,-123.58124 0.20757,-0.0146 33.05401,-2.29913 23.88112,126.4356 z"
     fill="#2f2e41"
     id="path14"
     style="stroke-width:0.576048" />
  <path
     d="m 408.94871,157.80818 c 0,0 -12.05023,-6.28708 -28.29185,-3.66747 0,0 -8.64476,20.85584 0,29.15818 l 2.35765,20.87648 c 0,0 22.00478,13.09808 29.33969,-2.09569 l -1.04783,-17.28946 c 0,0 5.23923,-8.29201 1.04783,-14.36251 a 20.058474,20.058474 0 0 1 -3.40549,-12.61953 z"
     fill="#232e19"
     id="path16"
     style="stroke-width:0.576048" />
  <path
     d="m 410.47531,252.76491 2.11504,-43.88799 -5.98591,-52.20945 0.2748,-0.0416 c 7.85203,-1.18387 10.37041,12.34341 10.47378,12.91975 l 13.66723,77.27234 z"
     fill="#3f3d56"
     id="path18"
     style="stroke-width:0.576048" />
  <path
     d="m 383.82914,253.22226 -24.16141,-2.68447 0.006,-0.26412 c 0.0856,-3.57697 2.16525,-87.67694 7.9924,-93.6332 5.8616,-5.99169 16.92268,-3.39918 17.39073,-3.28527 l 0.23317,0.0563 -1.98818,35.58618 z"
     fill="#3f3d56"
     id="path20"
     style="stroke-width:0.576048" />
  <path
     d="m 388.27923,202.95777 a 5.2684471,5.2684471 0 0 1 -6.85913,-4.26794 l -18.37299,-3.59969 6.81775,-6.94071 16.40208,4.4824 a 5.2970076,5.2970076 0 0 1 2.01229,10.32595 z"
     fill="#ffb8b8"
     id="path22"
     style="stroke-width:0.576048" />
  <path
     d="m 378.47481,198.74461 -5.98662,-1.28707 c -8.83791,2.65803 -24.26443,-6.69938 -30.49943,-10.85576 -1.17318,-0.78195 -1.55375,-2.33147 -1.13107,-4.60474 a 13.427563,13.427563 0 0 1 4.93501,-8.01571 l 21.95883,-17.41112 5.54248,-0.9268 1.64631,9.32901 -13.99069,15.02699 20.59514,11.2099 z"
     fill="#3f3d56"
     id="path24"
     style="stroke-width:0.576048" />
  <path
     d="m 376.10704,146.24294 v -12.09701 a 19.297625,19.297625 0 1 1 38.59525,0 v 12.09701 a 2.5951444,2.5951444 0 0 1 -2.59223,2.59223 h -33.41081 a 2.5951387,2.5951387 0 0 1 -2.59221,-2.59223 z"
     fill="#2f2e41"
     id="path26"
     style="stroke-width:0.576048" />
  <circle
     cx="394.62903"
     cy="134.56776"
     r="14.148344"
     fill="#ffb8b8"
     id="circle28"
     style="stroke-width:0.576048" />
  <path
     d="m 380.09239,134.5133 a 1.4402536,1.4402536 0 0 1 -0.3371,-1.14816 l 1.67597,-11.67061 a 1.4422065,1.4422065 0 0 1 0.81485,-1.1054 c 8.55452,-4.00366 17.22943,-4.00873 25.78393,-0.0152 a 1.451187,1.451187 0 0 1 0.823,1.17291 l 1.11876,11.68579 a 1.4398562,1.4398562 0 0 1 -1.43364,1.57738 h -2.83735 a 1.4456857,1.4456857 0 0 1 -1.30498,-0.83088 l -1.22452,-2.62372 a 0.86400933,0.86400933 0 0 0 -1.64038,0.25821 l -0.2419,1.93459 a 1.4421892,1.4421892 0 0 1 -1.42901,1.2618 h -18.67923 a 1.440196,1.440196 0 0 1 -1.0884,-0.49671 z"
     fill="#2f2e41"
     id="path30"
     style="stroke-width:0.576048" />
  <rect
     y="58.725983"
     width="317.40271"
     height="197.65004"
     fill="#e6e6e6"
     id="rect32"
     x="2.7036583"
     style="stroke-width:0.576048" />
  <rect
     x="23.988035"
     y="96.802673"
     width="58.132359"
     height="37.786034"
     fill="#ffffff"
     id="rect34"
     style="stroke-width:0.576048" />
  <rect
     x="96.221886"
     y="96.802673"
     width="58.132359"
     height="37.786034"
     fill="#ffffff"
     id="rect36"
     style="stroke-width:0.576048" />
  <rect
     x="168.45575"
     y="96.802673"
     width="58.132378"
     height="37.786034"
     fill="#ffffff"
     id="rect38"
     style="stroke-width:0.576048" />
  <rect
     x="240.68961"
     y="96.802673"
     width="58.132378"
     height="37.786034"
     fill="#ffffff"
     id="rect40"
     style="stroke-width:0.576048" />
  <rect
     x="23.988035"
     y="150.28445"
     width="58.132359"
     height="37.78603"
     fill="#ffffff"
     id="rect42"
     style="stroke-width:0.576048" />
  <rect
     x="96.221886"
     y="150.28445"
     width="58.132359"
     height="37.78603"
     fill="#ffffff"
     id="rect44"
     style="stroke-width:0.576048" />
  <rect
     x="168.45575"
     y="150.28445"
     width="58.132378"
     height="37.78603"
     fill="#ffffff"
     id="rect46"
     style="stroke-width:0.576048" />
  <rect
     x="240.68961"
     y="150.28445"
     width="58.132378"
     height="37.78603"
     fill="#ffffff"
     id="rect48"
     style="stroke-width:0.576048" />
  <rect
     x="23.988035"
     y="203.76622"
     width="58.132359"
     height="37.786041"
     fill="#ffffff"
     id="rect50"
     style="stroke-width:0.576048" />
  <rect
     x="96.221886"
     y="203.76622"
     width="58.132359"
     height="37.786041"
     fill="#ffffff"
     id="rect52"
     style="stroke-width:0.576048" />
  <rect
     x="168.45575"
     y="203.76622"
     width="58.132378"
     height="37.786041"
     fill="#ffffff"
     id="rect54"
     style="stroke-width:0.576048" />
  <rect
     x="240.68961"
     y="203.76622"
     width="58.132378"
     height="37.786041"
     fill="#ffffff"
     id="rect56"
     style="stroke-width:0.576048" />
  <circle
     cx="85.832924"
     cy="73.259079"
     r="8.7198524"
     fill="#ffffff"
     id="circle58"
     style="stroke-width:0.576048" />
  <circle
     cx="230.00116"
     cy="73.259079"
     r="8.719842"
     fill="#ffffff"
     id="circle60"
     style="stroke-width:0.576048" />
  <rect
     x="82.345009"
     width="6.975884"
     height="40.111332"
     fill="#e6e6e6"
     id="rect62"
     y="35.47303"
     style="stroke-width:0.576048" />
  <rect
     x="226.51324"
     width="6.9758663"
     height="40.111332"
     fill="#e6e6e6"
     id="rect64"
     y="35.47303"
     style="stroke-width:0.576048" />
  <path
     d="m 282.90167,115.6957 a 13.108887,13.108887 0 1 1 -2.03165,-7.02228 13.108905,13.108905 0 0 1 2.03165,7.02228 z"
     fill="#232e19"
     id="path66"
     style="stroke-width:0.576048" />
  <path
     d="m 280.87002,108.67344 -12.94027,12.9379 c -0.8133,-1.25911 -5.34438,-7.1107 -5.34438,-7.1107 a 18.334171,18.334171 0 0 1 1.85475,-1.63724 l 3.75732,5.00977 11.15722,-11.15723 a 13.091577,13.091577 0 0 1 1.51536,1.9575 z"
     fill="#ffffff"
     id="path68"
     style="stroke-width:0.576048" />
  <path
     d="m 138.43391,169.17748 a 13.108876,13.108876 0 1 1 -2.03163,-7.02228 13.108905,13.108905 0 0 1 2.03163,7.02228 z"
     fill="#232e19"
     id="path70"
     style="stroke-width:0.576048" />
  <path
     d="M 136.40228,162.1552 123.462,175.0931 c -0.81331,-1.25913 -5.34438,-7.11071 -5.34438,-7.11071 a 18.334171,18.334171 0 0 1 1.85476,-1.63724 l 3.75732,5.00975 11.15725,-11.15722 a 13.091353,13.091353 0 0 1 1.51533,1.95752 z"
     fill="#ffffff"
     id="path72"
     style="stroke-width:0.576048" />
  <path
     d="m 66.200048,169.17748 a 13.108945,13.108945 0 1 1 -2.031631,-7.02228 13.108945,13.108945 0 0 1 2.031631,7.02228 z"
     fill="#232e19"
     id="path74"
     style="stroke-width:0.576048" />
  <path
     d="m 64.168417,162.1552 -12.940276,12.9379 c -0.813302,-1.25913 -5.344378,-7.11071 -5.344378,-7.11071 a 18.334171,18.334171 0 0 1 1.854751,-1.63724 l 3.757324,5.00975 11.15725,-11.15722 a 13.091698,13.091698 0 0 1 1.515329,1.95752 z"
     fill="#ffffff"
     id="path76"
     style="stroke-width:0.576048" />
  <path
     d="m 501.17611,384.40862 h -219.4745 a 0.57604847,0.57604847 0 0 1 0,-1.15209 h 219.4745 a 0.57604847,0.57604847 0 0 1 0,1.15209 z"
     fill="#3f3d56"
     id="path78"
     style="stroke-width:0.576048" />
</svg>
