<?xml version="1.0" encoding="UTF-8" standalone="no"?>
<svg
   data-name="Layer 1"
   width="750"
   height="670"
   viewBox="0 0 750.00001 670"
   version="1.1"
   id="svg80"
   sodipodi:docname="reservation.svg"
   inkscape:version="1.4.2 (1:1.4.2+202505120738+ebf0e940d0)"
   xmlns:inkscape="http://www.inkscape.org/namespaces/inkscape"
   xmlns:sodipodi="http://sodipodi.sourceforge.net/DTD/sodipodi-0.dtd"
   xmlns="http://www.w3.org/2000/svg"
   xmlns:svg="http://www.w3.org/2000/svg">
  <defs
     id="defs84" />
  <sodipodi:namedview
     id="namedview82"
     pagecolor="#ffffff"
     bordercolor="#666666"
     borderopacity="1.0"
     inkscape:pageshadow="2"
     inkscape:pageopacity="0.0"
     inkscape:pagecheckerboard="0"
     showgrid="false"
     inkscape:zoom="0.59348903"
     inkscape:cx="274.64703"
     inkscape:cy="341.2026"
     inkscape:window-width="1920"
     inkscape:window-height="1016"
     inkscape:window-x="0"
     inkscape:window-y="0"
     inkscape:window-maximized="1"
     inkscape:current-layer="svg80"
     inkscape:showpageshadow="2"
     inkscape:deskcolor="#d1d1d1" />
  <path
     d="m 642.7003,357.127 a 7.915956,7.915956 0 0 1 1.67125,-12.02263 l -6.27646,-27.42166 13.69152,5.12197 3.86116,25.25479 a 7.9588949,7.9588949 0 0 1 -12.94744,9.06752 z"
     fill="#ffb8b8"
     id="path2"
     style="stroke-width:0.865527" />
  <path
     d="m 641.753,335.36346 -12.03603,-23.26953 1.62772,-58.59388 0.77341,1.62962 c 0.901,1.89842 22.01918,46.6054 20.51302,61.57211 l 2.41379,13.67727 z"
     fill="#3f3d56"
     id="path4"
     style="stroke-width:0.865527" />
  <polygon
     points="732.458,594.201 737.762,551.192 721.305,551.193 721.307,594.201 "
     fill="#ffb8b8"
     id="polygon6"
     transform="matrix(0.86552816,0,0,0.86552816,9.593721,-6.9649391)" />
  <path
     d="m 631.44364,504.18222 19.0062,-7.8e-4 h 0.002 a 12.11202,12.11202 0 0 1 12.11177,12.11181 v 0.3936 l -31.11893,0.002 z"
     fill="#2f2e41"
     id="path8"
     style="stroke-width:0.865527" />
  <polygon
     points="621.877,588.714 638.511,548.699 622.655,544.29 611.134,585.727 "
     fill="#ffb8b8"
     id="polygon10"
     transform="matrix(0.86552816,0,0,0.86552816,9.593721,-6.9649391)" />
  <path
     d="m 537.01964,496.30313 18.31153,5.0916 8.6e-4,3.8e-4 a 12.112011,12.112011 0 0 1 8.42384,14.91405 l -0.10547,0.37922 -29.9816,-8.33623 z"
     fill="#2f2e41"
     id="path12"
     style="stroke-width:0.865527" />
  <path
     d="m 624.2829,492.82069 -19.47755,-139.4591 -42.06857,138.67048 -33.07782,-11.29497 47.40892,-185.6841 0.31188,-0.022 49.66454,-3.4545 35.88201,189.97285 z"
     fill="#2f2e41"
     id="path14"
     style="stroke-width:0.865527" />
  <path
     d="m 619.13179,229.33731 c 0,0 -18.10579,-9.4465 -42.50925,-5.51047 0,0 -12.98898,31.33645 0,43.81094 l 3.54243,31.36746 c 0,0 33.06276,19.68022 44.08366,-3.14883 l -1.57439,-25.97786 c 0,0 7.87208,-12.45898 1.57439,-21.58006 a 30.138391,30.138391 0 0 1 -5.11684,-18.96118 z"
     fill="#232e19"
     id="path16"
     style="stroke-width:0.865527" />
  <path
     d="m 621.42555,372.01233 3.1779,-65.94288 -8.99399,-78.44609 0.4129,-0.0625 c 11.79788,-1.7788 15.58181,18.5463 15.73713,19.41226 l 20.53538,116.10375 z"
     fill="#3f3d56"
     id="path18"
     style="stroke-width:0.865527" />
  <path
     d="m 581.38897,372.6995 -36.30316,-4.03348 0.009,-0.39686 c 0.12861,-5.37449 3.25334,-131.73693 12.00879,-140.68637 8.80721,-9.00267 25.42678,-5.10736 26.13004,-4.9362 l 0.35034,0.0845 -2.9873,53.46918 z"
     fill="#3f3d56"
     id="path20"
     style="stroke-width:0.865527" />
  <path
     d="m 588.07535,297.17577 a 7.915982,7.915982 0 0 1 -10.30603,-6.41269 l -27.6059,-5.40863 10.24385,-10.42861 24.64456,6.73493 a 7.9588949,7.9588949 0 0 1 3.02352,15.51501 z"
     fill="#ffb8b8"
     id="path22"
     style="stroke-width:0.865527" />
  <path
     d="m 573.34395,290.84539 -8.99506,-1.93386 c -13.27919,3.99375 -36.45796,-10.066 -45.8262,-16.31108 -1.76274,-1.1749 -2.33456,-3.50309 -1.69947,-6.91874 a 20.175271,20.175271 0 0 1 7.41498,-12.04381 l 32.99373,-26.16068 8.32772,-1.39253 2.47363,14.01708 -21.02138,22.57845 30.94475,16.84318 z"
     fill="#3f3d56"
     id="path24"
     style="stroke-width:0.865527" />
  <path
     d="m 569.78631,211.96023 v -18.17609 a 28.995195,28.995195 0 1 1 57.99039,0 v 18.17609 a 3.8992735,3.8992735 0 0 1 -3.8949,3.8949 h -50.20063 a 3.899265,3.899265 0 0 1 -3.89486,-3.8949 z"
     fill="#2f2e41"
     id="path26"
     style="stroke-width:0.865527" />
  <circle
     cx="597.61609"
     cy="194.41797"
     r="21.258263"
     fill="#ffb8b8"
     id="circle28"
     style="stroke-width:0.865527" />
  <path
     d="m 575.77441,194.33613 a 2.1640194,2.1640194 0 0 1 -0.50651,-1.72515 l 2.51819,-17.53539 a 2.1669536,2.1669536 0 0 1 1.22434,-1.6609 c 12.85339,-6.0156 25.88767,-6.02322 38.74103,-0.0228 a 2.1804471,2.1804471 0 0 1 1.23658,1.76233 l 1.68097,17.55821 a 2.1634222,2.1634222 0 0 1 -2.15408,2.37006 h -4.2632 a 2.1721812,2.1721812 0 0 1 -1.96076,-1.24843 l -1.83987,-3.9422 a 1.298197,1.298197 0 0 0 -2.46472,0.38797 l -0.36346,2.90676 a 2.1669276,2.1669276 0 0 1 -2.14713,1.8959 h -28.06603 a 2.1639328,2.1639328 0 0 1 -1.63535,-0.74633 z"
     fill="#2f2e41"
     id="path30"
     style="stroke-width:0.865527" />
  <rect
     y="80.463661"
     width="476.90601"
     height="296.97443"
     fill="#e6e6e6"
     id="rect32"
     x="8.737792"
     style="stroke-width:0.865527" />
  <rect
     x="40.718132"
     y="137.67491"
     width="87.345413"
     height="56.774521"
     fill="#ffffff"
     id="rect34"
     style="stroke-width:0.865527" />
  <rect
     x="149.25142"
     y="137.67491"
     width="87.345413"
     height="56.774521"
     fill="#ffffff"
     id="rect36"
     style="stroke-width:0.865527" />
  <rect
     x="257.7847"
     y="137.67491"
     width="87.345444"
     height="56.774521"
     fill="#ffffff"
     id="rect38"
     style="stroke-width:0.865527" />
  <rect
     x="366.31799"
     y="137.67491"
     width="87.345444"
     height="56.774521"
     fill="#ffffff"
     id="rect40"
     style="stroke-width:0.865527" />
  <rect
     x="40.718132"
     y="218.0327"
     width="87.345413"
     height="56.774517"
     fill="#ffffff"
     id="rect42"
     style="stroke-width:0.865527" />
  <rect
     x="149.25142"
     y="218.0327"
     width="87.345413"
     height="56.774517"
     fill="#ffffff"
     id="rect44"
     style="stroke-width:0.865527" />
  <rect
     x="257.7847"
     y="218.0327"
     width="87.345444"
     height="56.774517"
     fill="#ffffff"
     id="rect46"
     style="stroke-width:0.865527" />
  <rect
     x="366.31799"
     y="218.0327"
     width="87.345444"
     height="56.774517"
     fill="#ffffff"
     id="rect48"
     style="stroke-width:0.865527" />
  <rect
     x="40.718132"
     y="298.39047"
     width="87.345413"
     height="56.774532"
     fill="#ffffff"
     id="rect50"
     style="stroke-width:0.865527" />
  <rect
     x="149.25142"
     y="298.39047"
     width="87.345413"
     height="56.774532"
     fill="#ffffff"
     id="rect52"
     style="stroke-width:0.865527" />
  <rect
     x="257.7847"
     y="298.39047"
     width="87.345444"
     height="56.774532"
     fill="#ffffff"
     id="rect54"
     style="stroke-width:0.865527" />
  <rect
     x="366.31799"
     y="298.39047"
     width="87.345444"
     height="56.774532"
     fill="#ffffff"
     id="rect56"
     style="stroke-width:0.865527" />
  <circle
     cx="133.64172"
     cy="102.30003"
     r="13.10181"
     fill="#ffffff"
     id="circle58"
     style="stroke-width:0.865527" />
  <circle
     cx="350.25833"
     cy="102.30003"
     r="13.101795"
     fill="#ffffff"
     id="circle60"
     style="stroke-width:0.865527" />
  <rect
     x="128.40103"
     width="10.481451"
     height="60.268341"
     fill="#e6e6e6"
     id="rect62"
     y="45.525486"
     style="stroke-width:0.865527" />
  <rect
     x="345.01764"
     width="10.481424"
     height="60.268341"
     fill="#e6e6e6"
     id="rect64"
     y="45.525486"
     style="stroke-width:0.865527" />
  <path
     d="m 429.74276,166.06219 a 19.696452,19.696452 0 1 1 -3.05261,-10.55117 19.696479,19.696479 0 0 1 3.05261,10.55117 z"
     fill="#232e19"
     id="path66"
     style="stroke-width:0.865527" />
  <path
     d="m 426.69015,155.51105 -19.4431,19.43954 c -1.222,-1.89185 -8.03008,-10.68402 -8.03008,-10.68402 a 27.54758,27.54758 0 0 1 2.78682,-2.45999 l 5.64548,7.52731 16.76401,-16.76403 a 19.670443,19.670443 0 0 1 2.27687,2.94119 z"
     fill="#ffffff"
     id="path68"
     style="stroke-width:0.865527" />
  <path
     d="m 212.6761,246.41998 a 19.696435,19.696435 0 1 1 -3.05257,-10.55116 19.696479,19.696479 0 0 1 3.05257,10.55116 z"
     fill="#232e19"
     id="path70"
     style="stroke-width:0.865527" />
  <path
     d="m 209.62353,235.86882 -19.44312,19.43955 c -1.22202,-1.89188 -8.03007,-10.68404 -8.03007,-10.68404 a 27.54758,27.54758 0 0 1 2.78682,-2.46 l 5.64548,7.52729 16.76406,-16.76402 a 19.670107,19.670107 0 0 1 2.27683,2.94122 z"
     fill="#ffffff"
     id="path72"
     style="stroke-width:0.865527" />
  <path
     d="m 104.1428,246.41998 a 19.696538,19.696538 0 1 1 -3.05258,-10.55116 19.696538,19.696538 0 0 1 3.05258,10.55116 z"
     fill="#232e19"
     id="path74"
     style="stroke-width:0.865527" />
  <path
     d="m 101.09022,235.86882 -19.443106,19.43955 c -1.222008,-1.89188 -8.03007,-10.68404 -8.03007,-10.68404 a 27.54758,27.54758 0 0 1 2.786812,-2.46 l 5.64548,7.52729 16.764065,-16.76402 a 19.670625,19.670625 0 0 1 2.276819,2.94122 z"
     fill="#ffffff"
     id="path76"
     style="stroke-width:0.865527" />
  <path
     d="M 757.70591,569.8105 H 427.93964 a 0.86552816,0.86552816 0 0 1 0,-1.73105 h 329.76627 a 0.86552816,0.86552816 0 0 1 0,1.73105 z"
     fill="#3f3d56"
     id="path78"
     style="stroke-width:0.865527" />
</svg>
