<?xml version="1.0" encoding="UTF-8" standalone="no"?>
<svg
   data-name="Layer 1"
   width="750"
   height="670"
   viewBox="0 0 750 670"
   version="1.1"
   id="svg22"
   sodipodi:docname="transfer.svg"
   inkscape:version="1.4.2 (1:1.4.2+202505120738+ebf0e940d0)"
   xmlns:inkscape="http://www.inkscape.org/namespaces/inkscape"
   xmlns:sodipodi="http://sodipodi.sourceforge.net/DTD/sodipodi-0.dtd"
   xmlns="http://www.w3.org/2000/svg"
   xmlns:svg="http://www.w3.org/2000/svg">
  <defs
     id="defs22" />
  <sodipodi:namedview
     id="namedview22"
     pagecolor="#ffffff"
     bordercolor="#000000"
     borderopacity="0.25"
     inkscape:showpageshadow="2"
     inkscape:pageopacity="0.0"
     inkscape:pagecheckerboard="0"
     inkscape:deskcolor="#d1d1d1"
     inkscape:zoom="0.68801685"
     inkscape:cx="412.78059"
     inkscape:cy="304.49836"
     inkscape:window-width="1920"
     inkscape:window-height="1016"
     inkscape:window-x="0"
     inkscape:window-y="0"
     inkscape:window-maximized="1"
     inkscape:current-layer="svg22" />
  <path
     d="m 50.220351,439.11045 a 10.197083,10.197083 0 0 0 -10.185499,10.1857 v 23.82947 a 10.197083,10.197083 0 0 0 10.185499,10.1857 h 12.919268 a 10.197083,10.197083 0 0 0 10.185494,-10.1857 v -23.82947 a 10.197083,10.197083 0 0 0 -10.185494,-10.1857 z"
     fill="#3f3d56"
     id="path1"
     style="stroke-width:0.997646" />
  <path
     d="M 289.03785,484.10394 H 276.1186 a 10.990631,10.990631 0 0 1 -10.97808,-10.97832 v -23.82947 a 10.990631,10.990631 0 0 1 10.97808,-10.97833 h 12.91925 a 10.990621,10.990621 0 0 1 10.9781,10.97833 v 23.82947 a 10.990621,10.990621 0 0 1 -10.9781,10.97832 z"
     fill="#3f3d56"
     id="path2"
     style="stroke-width:0.997646" />
  <path
     d="M 280.46567,465.02441 H 57.999913 c -10.124551,0 -18.361383,-5.96866 -18.361383,-13.30512 V 408.94037 L 50.680723,397.31145 H 289.93284 l 8.89421,11.65332 v 42.75452 c 0,7.33646 -8.23683,13.30512 -18.36138,13.30512 z"
     fill="#cccccc"
     id="path3"
     style="stroke-width:0.997646" />
  <path
     d="M 288.89466,418.71234 H 51.949197 l -2.407857,-36.92172 1.532236,-3.77808 8.906573,-21.91758 H 279.25989 l 12.04302,24.88876 z"
     fill="#cccccc"
     id="path4"
     style="stroke-width:0.997646" />
  <polygon
     points="424.154,245.149 425.64,248.216 423.868,276.023 371.614,276.023 371.614,255.366 "
     fill="#ffffff"
     id="polygon4"
     transform="matrix(0.99764638,0,0,0.99764638,-133.73736,133.43122)" />
  <polygon
     points="185.615,245.308 237.345,255.366 237.345,276.023 185.877,276.023 184.113,249.01 "
     fill="#ffffff"
     id="polygon5"
     transform="matrix(0.99764638,0,0,0.99764638,-133.73736,133.43122)" />
  <path
     d="M 277.93819,362.43593 H 61.299292 l 23.106129,-77.02014 a 15.45873,15.45873 0 0 1 14.7282,-11.06732 l 143.472509,-1.36658 a 15.527737,15.527737 0 0 1 15.18318,11.63703 z"
     fill="#cccccc"
     id="path5"
     style="stroke-width:0.997646" />
  <path
     d="M 261.26102,355.15313 77.941335,352.97936 a 1.4812754,1.4812754 0 0 1 -1.393028,-1.93327 l 17.574084,-54.83106 a 1.4812654,1.4812654 0 0 1 1.41055,-1.02916 H 242.98073 a 1.4812654,1.4812654 0 0 1 1.41038,1.02859 l 18.29784,57.00481 a 1.4812754,1.4812754 0 0 1 -1.42793,1.93386 z"
     fill="#ffffff"
     id="path6"
     style="stroke-width:0.997646" />
  <path
     d="m 194.32446,282.38078 h -49.41141 c -0.41639,0 -0.79408,-0.40989 -0.98562,-1.07014 a 3.3316201,3.3316201 0 0 1 0.0787,-2.05431 l 4.07462,-10.30416 c 0.20771,-0.52517 0.54679,-0.83866 0.90691,-0.83866 h 41.26224 c 0.36013,0 0.69919,0.31349 0.9069,0.83866 l 4.07462,10.30416 a 3.3316201,3.3316201 0 0 1 0.0788,2.05431 c -0.19158,0.66025 -0.56925,1.07014 -0.98566,1.07014 z"
     fill="#2f2e41"
     id="path7"
     style="stroke-width:0.997646" />
  <path
     d="M 61.43573,360.85068 H 28.93809 v -7.1429 a 8.7193396,8.7193396 0 0 1 8.709597,-8.70961 H 61.43573 Z"
     fill="#cccccc"
     id="path8"
     style="stroke-width:0.997646" />
  <path
     d="m 310.32011,360.85068 h -32.49763 v -15.85251 h 23.78806 a 8.7193298,8.7193298 0 0 1 8.70957,8.70961 z"
     fill="#cccccc"
     id="path9"
     style="stroke-width:0.997646" />
  <rect
     x="-304.79736"
     y="452.89319"
     width="168.81265"
     height="1.9948785"
     transform="rotate(-19.75989)"
     fill="#3f3d56"
     id="rect9"
     style="stroke-width:0.997646" />
  <rect
     x="-340.5744"
     y="454.2955"
     width="1.9947941"
     height="168.81212"
     transform="rotate(-70.24519)"
     fill="#3f3d56"
     id="rect10"
     style="stroke-width:0.997646" />
  <path
     d="m 178.45696,513.58499 h -9.50959 v -12.28266 h 9.50959 z m 0,-24.56624 h -9.50959 v -12.28266 h 9.50959 z"
     fill="#e6e6e6"
     id="path10"
     style="stroke-width:0.997646" />
  <path
     d="m 178.45696,564.46497 h -9.50959 v -12.28268 h 9.50959 z m 0,-24.56626 h -9.50959 v -12.28267 h 9.50959 z"
     fill="#e6e6e6"
     id="path11"
     style="stroke-width:0.997646" />
  <polygon
     points="731.758,389.521 721.26,389.521 716.264,349.028 731.758,349.028 "
     fill="#ffb8b8"
     id="polygon11"
     transform="matrix(0.99764638,0,0,0.99764638,-133.73736,133.43122)" />
  <path
     d="m 598.96986,532.1881 h -33.77108 v -0.42716 a 13.159804,13.159804 0 0 1 13.14502,-13.14486 h 20.62602 z"
     fill="#2f2e41"
     id="path12"
     style="stroke-width:0.997646" />
  <polygon
     points="867.137,369.628 858.138,375.035 833.001,342.898 846.282,334.918 "
     fill="#ffb8b8"
     id="polygon12"
     transform="matrix(0.99764638,0,0,0.99764638,-133.73736,133.43122)" />
  <path
     d="m 709.92983,526.90879 -0.22003,-0.36625 a 13.160262,13.160262 0 0 1 4.49757,-18.03744 l 17.68038,-10.62241 6.98983,11.63355 z"
     fill="#2f2e41"
     id="path13"
     style="stroke-width:0.997646" />
  <path
     d="m 599.02157,513.69886 -0.18054,-8.4e-4 a 140.64176,140.64176 0 0 1 -15.2487,-0.87766 c -1.92989,-0.1906 -4.02328,-0.39752 -6.54554,-0.60443 l -0.0865,-0.0155 c -1.72094,-0.5114 -1.76866,-16.65088 -1.03911,-71.89581 0.37378,-28.29616 0.79712,-60.36697 0.29307,-80.79131 l -0.004,-0.20071 0.15183,-0.13225 c 18.68334,-16.25002 42.67669,-22.3415 67.56046,-17.1519 l 0.18461,0.0386 0.096,0.16232 c 10.29349,17.41675 25.83542,42.50428 40.86559,66.76627 34.50273,55.69462 44.37073,72.07436 43.2891,73.30993 l -0.13027,0.10099 c -2.35605,1.178 -4.12485,2.08485 -5.62888,2.85614 -5.0359,2.58207 -7.12035,3.65082 -18.31988,8.26268 l -0.27656,0.11388 -0.2016,-0.22109 c -35.00871,-38.36175 -64.14205,-81.21393 -82.16219,-120.82786 -2.10574,13.52404 -4.66153,31.18359 -7.36208,49.84259 -7.7657,53.65563 -13.01408,88.98681 -15.12692,91.13797 z"
     fill="#2f2e41"
     id="path14"
     style="stroke-width:0.997646" />
  <path
     d="m 653.39642,188.20495 c 3.52575,-14.5576 6.51282,-30.97703 -0.13647,-44.38478 -4.61361,-9.30295 -21.68092,-12.43576 -31.46468,-9.08428 -9.78376,3.3515 -16.85744,12.44434 -19.96845,22.35838 -3.11101,9.91404 -2.74952,20.59716 -1.39358,30.90348 17.99363,-0.34566 35.98727,-0.69132 52.96317,0.20728 z"
     fill="#2f2e41"
     id="path15"
     style="stroke-width:0.997646" />
  <circle
     cx="623.03162"
     cy="167.21855"
     r="20.982458"
     fill="#ffb8b8"
     id="circle15"
     style="stroke-width:0.997646" />
  <path
     d="m 648.6825,162.89627 a 26.354693,26.354693 0 1 0 -52.67772,0.69443 c 17.95942,0.038 35.91882,0.0764 52.67772,-0.69443 z"
     fill="#2f2e41"
     id="path16"
     style="stroke-width:0.997646" />
  <path
     d="m 608.45412,363.6397 a 183.37881,183.37881 0 0 1 61.31888,10.26616 c 0.68596,-33.07487 -10.70107,-66.21107 -31.28974,-91.00029 l -0.15396,-0.18519 0.0789,-0.22733 c 5.49932,-15.89005 11.18346,-32.31443 16.26254,-48.65747 l -0.077,-0.27448 c -3.56213,-12.6639 -11.20807,-25.46088 -23.37411,-39.12297 a 7.4872364,7.4872364 0 0 0 -10.22072,-0.51768 c -21.62504,19.82409 -33.38335,49.52682 -30.6859,77.51762 l 0.0104,0.0822 -0.0236,0.0799 c -9.52639,32.2744 -12.98466,48.85146 -16.03582,63.47716 -2.22565,10.66912 -4.15282,19.9075 -8.022,33.1074 a 198.78362,198.78362 0 0 1 42.21463,-4.54472 z"
     fill="#3f3d56"
     id="path17"
     style="stroke-width:0.997646" />
  <polygon
     points="774.749,128.486 743.685,196.115 725.939,178.152 "
     opacity="0.1"
     id="polygon17"
     transform="matrix(0.99764638,0,0,0.99764638,-133.73736,133.43122)" />
  <path
     d="m 569.62626,299.09043 2.1608,4.19849 a 0.16512046,0.16512046 0 0 1 -0.0712,0.22175 l -0.10411,0.0536 11.2562,21.87132 a 2.5666946,2.5666946 0 0 1 -1.10761,3.45651 l -13.66614,7.03344 a 2.5661062,2.5661062 0 0 1 -3.45586,-1.10774 l -8e-5,-1.8e-4 -10.86147,-21.10421 -0.0754,0.039 a 0.11626571,0.11626571 0 0 1 -0.15649,-0.0496 l -1.22973,-2.38947 a 0.11641536,0.11641536 0 0 1 0.0503,-0.15668 v 0 l 0.0755,-0.039 -0.46324,-0.90002 -0.076,0.0392 a 0.12197225,0.12197225 0 0 1 -0.16405,-0.0531 l -1.21294,-2.35685 a 0.1217827,0.1217827 0 0 1 0.0525,-0.16348 l 0.076,-0.0392 -0.63233,-1.22859 -0.0774,0.0397 a 0.1077458,0.1077458 0 0 1 -0.14525,-0.0463 l -1.2e-4,-2.9e-4 -0.66192,-1.28614 a 0.1083045,0.1083045 0 0 1 0.0463,-0.14582 l 0.0774,-0.0397 -1.34029,-2.60428 a 2.5659466,2.5659466 0 0 1 1.10725,-3.45556 l 13.66619,-7.03341 a 2.5665452,2.5665452 0 0 1 3.4562,1.10696 l 3.15102,6.12255 0.10427,-0.0536 a 0.16506059,0.16506059 0 0 1 0.22177,0.0709 z"
     fill="#3f3d56"
     id="path18"
     style="stroke-width:0.997646" />
  <path
     d="m 565.28881,293.96416 16.58387,32.22305 a 1.6283884,1.6283884 0 0 1 -0.70305,2.19235 l -13.08189,6.7327 a 1.625565,1.625565 0 0 1 -2.19045,-0.69768 l -10e-4,-0.004 -16.58382,-32.22305 a 1.6282886,1.6282886 0 0 1 0.70258,-2.19297 l 10e-5,-4e-5 1.95796,-1.0077 0.12913,0.25124 a 1.3407769,1.3407769 0 0 0 1.80574,0.57862 l 6.65314,-3.42407 a 1.3408368,1.3408368 0 0 0 0.57864,-1.80572 l -0.12913,-0.25122 2.08648,-1.07383 a 1.6278596,1.6278596 0 0 1 2.19256,0.70173 z"
     fill="#2f2e41"
     id="path19"
     style="stroke-width:0.997646" />
  <path
     d="m 570.09535,333.3308 a 8.5906135,8.5906135 0 0 0 7.73562,-10.66208 l 25.53557,-16.73047 -14.56319,-6.2915 -22.01629,16.85209 a 8.6371936,8.6371936 0 0 0 3.30829,16.83196 z"
     fill="#ffb8b8"
     id="path20"
     style="stroke-width:0.997646" />
  <path
     d="m 594.66629,321.2781 -0.32205,-0.22779 c -6.07727,-4.47297 -12.82406,-9.09861 -19.34873,-13.57198 l -0.3919,-0.26865 0.30869,-0.36122 c 13.92614,-16.29343 27.86731,-33.31225 41.35194,-49.77584 -0.0113,-0.0262 -0.0197,-0.0456 -0.0256,-0.0593 l 0.12702,-0.0647 0.0537,-0.0652 0.0288,0.0239 0.0813,-0.0413 -0.3675,0.0286 -4.1562,-32.59349 c -3.75402,-5.12121 -4.47298,-15.28893 0.44694,-22.38656 5.09577,-7.35247 15.87648,-9.81318 23.07171,-5.26803 a 15.139283,15.139283 0 0 1 6.64792,11.30571 13.653957,13.653957 0 0 1 -3.61931,11.18055 c 1.76658,17.24906 1.83416,32.66691 1.89986,47.58044 l 6.2e-4,0.1489 -0.0922,0.12279 c -14.3754,18.26322 -30.16596,36.42913 -45.43651,53.99689 z"
     fill="#3f3d56"
     id="path21"
     style="stroke-width:0.997646" />
  <circle
     cx="169.34236"
     cy="185.12032"
     r="47.178669"
     fill="#2f2e41"
     id="circle21"
     style="stroke-width:0.997646" />
  <polygon
     points="299.288,71.773 285.134,53.574 293.365,47.172 300.067,55.789 322.707,31.889 330.278,39.062 "
     fill="#ffffff"
     id="polygon21"
     transform="matrix(0.99764638,0,0,0.99764638,-133.73736,133.43122)" />
  <path
     d="m 781.68519,533.48744 h -238.4375 a 0.99764793,0.99764793 0 0 1 0,-1.99529 h 238.4375 a 0.99764793,0.99764793 0 0 1 0,1.99529 z"
     fill="#3f3d56"
     id="path22"
     style="stroke-width:0.997646" />
</svg>
