<?xml version="1.0" encoding="UTF-8" standalone="no"?>
<svg
   data-name="Layer 1"
   width="500"
   height="400"
   viewBox="0 0 500 400"
   version="1.1"
   id="svg22"
   sodipodi:docname="transfer.svg"
   inkscape:version="1.3.2 (1:1.3.2+202311252150+091e20ef0f)"
   xmlns:inkscape="http://www.inkscape.org/namespaces/inkscape"
   xmlns:sodipodi="http://sodipodi.sourceforge.net/DTD/sodipodi-0.dtd"
   xmlns="http://www.w3.org/2000/svg"
   xmlns:svg="http://www.w3.org/2000/svg">
  <defs
     id="defs22" />
  <sodipodi:namedview
     id="namedview22"
     pagecolor="#ffffff"
     bordercolor="#000000"
     borderopacity="0.25"
     inkscape:showpageshadow="2"
     inkscape:pageopacity="0.0"
     inkscape:pagecheckerboard="0"
     inkscape:deskcolor="#d1d1d1"
     inkscape:zoom="0.68801685"
     inkscape:cx="412.78059"
     inkscape:cy="303.77163"
     inkscape:window-width="1920"
     inkscape:window-height="1016"
     inkscape:window-x="0"
     inkscape:window-y="0"
     inkscape:window-maximized="1"
     inkscape:current-layer="svg22" />
  <path
     d="m 19.901678,265.96383 a 7.2172176,7.2172176 0 0 0 -7.209018,7.20916 v 16.86586 a 7.2172176,7.2172176 0 0 0 7.209018,7.20915 h 9.143906 a 7.2172176,7.2172176 0 0 0 7.209018,-7.20915 v -16.86586 a 7.2172176,7.2172176 0 0 0 -7.209018,-7.20916 z"
     fill="#3f3d56"
     id="path1"
     style="stroke-width:0.706107" />
  <path
     d="m 188.9302,297.809 h -9.1439 a 7.7788692,7.7788692 0 0 1 -7.76999,-7.77015 v -16.86586 a 7.7788692,7.7788692 0 0 1 7.76999,-7.77016 h 9.1439 a 7.7788622,7.7788622 0 0 1 7.77,7.77016 v 16.86586 a 7.7788622,7.7788622 0 0 1 -7.77,7.77015 z"
     fill="#3f3d56"
     id="path2"
     style="stroke-width:0.706107" />
  <path
     d="M 182.86304,284.30503 H 25.40784 c -7.165881,0 -12.995687,-4.22446 -12.995687,-9.417 v -30.27776 l 7.815364,-8.23063 H 189.56365 l 6.29507,8.2479 v 30.26049 c 0,5.19254 -5.8298,9.417 -12.99568,9.417 z"
     fill="#cccccc"
     id="path3"
     style="stroke-width:0.706107" />
  <path
     d="M 188.82885,251.52661 H 21.125308 l -1.704215,-26.13219 1.084474,-2.67402 6.30383,-15.51267 H 182.00962 l 8.52372,17.61559 z"
     fill="#cccccc"
     id="path4"
     style="stroke-width:0.706107" />
  <polygon
     points="371.614,276.023 371.614,255.366 424.154,245.149 425.64,248.216 423.868,276.023 "
     fill="#ffffff"
     id="polygon4"
     transform="matrix(0.70610691,0,0,0.70610691,-110.29857,49.61241)" />
  <polygon
     points="185.877,276.023 184.113,249.01 185.615,245.308 237.345,255.366 237.345,276.023 "
     fill="#ffffff"
     id="polygon5"
     transform="matrix(0.70610691,0,0,0.70610691,-110.29857,49.61241)" />
  <path
     d="M 181.07415,211.6957 H 27.743051 l 16.353884,-54.51276 a 10.941268,10.941268 0 0 1 10.424223,-7.83315 l 101.545932,-0.96722 a 10.990109,10.990109 0 0 1 10.74624,8.23637 z"
     fill="#cccccc"
     id="path5"
     style="stroke-width:0.706107" />
  <path
     d="M 169.27051,206.54113 39.521833,205.0026 a 1.0484064,1.0484064 0 0 1 -0.985945,-1.36832 l 12.43845,-38.80793 a 1.0483993,1.0483993 0 0 1 0.99836,-0.72841 H 156.33222 a 1.0483993,1.0483993 0 0 1 0.99823,0.728 l 12.95071,40.34645 a 1.0484064,1.0484064 0 0 1 -1.01065,1.36874 z"
     fill="#ffffff"
     id="path6"
     style="stroke-width:0.706107" />
  <path
     d="M 121.89464,155.03484 H 86.922584 c -0.29471,0 -0.56202,-0.2901 -0.69759,-0.75741 a 2.3580299,2.3580299 0 0 1 0.0557,-1.45399 l 2.8839,-7.293 c 0.14702,-0.3717 0.38701,-0.59358 0.64189,-0.59358 h 29.204286 c 0.25489,0 0.49487,0.22188 0.64188,0.59358 l 2.88391,7.293 a 2.3580299,2.3580299 0 0 1 0.0557,1.45399 c -0.1356,0.46731 -0.4029,0.75741 -0.69762,0.75741 z"
     fill="#2f2e41"
     id="path7"
     style="stroke-width:0.706107" />
  <path
     d="M 27.839618,210.5737 H 4.8386744 v -5.05555 a 6.1713108,6.1713108 0 0 1 6.1644146,-6.16442 h 16.836529 z"
     fill="#cccccc"
     id="path8"
     style="stroke-width:0.706107" />
  <path
     d="m 203.9932,210.5737 h -23.00094 v -11.21997 h 16.83654 a 6.1713039,6.1713039 0 0 1 6.1644,6.16442 z"
     fill="#cccccc"
     id="path9"
     style="stroke-width:0.706107" />
  <rect
     x="-215.29416"
     y="273.06982"
     width="119.48099"
     height="1.4119207"
     transform="rotate(-19.75989)"
     fill="#3f3d56"
     id="rect9"
     style="stroke-width:0.706107" />
  <rect
     x="-204.14807"
     y="291.66449"
     width="1.4118609"
     height="119.48061"
     transform="rotate(-70.24519)"
     fill="#3f3d56"
     id="rect10"
     style="stroke-width:0.706107" />
  <path
     d="m 110.66405,318.67488 h -6.73062 v -8.69333 h 6.73062 z m 0,-17.38731 h -6.73062 v -8.69334 h 6.73062 z"
     fill="#e6e6e6"
     id="path10"
     style="stroke-width:0.706107" />
  <path
     d="m 110.66405,354.68634 h -6.73062 V 345.993 h 6.73062 z m 0,-17.38732 h -6.73062 v -8.69334 h 6.73062 z"
     fill="#e6e6e6"
     id="path11"
     style="stroke-width:0.706107" />
  <polygon
     points="731.758,389.521 721.26,389.521 716.264,349.028 731.758,349.028 "
     fill="#ffb8b8"
     id="polygon11"
     transform="matrix(0.70610691,0,0,0.70610691,-110.29857,49.61241)" />
  <path
     d="m 408.29162,331.84165 h -23.90224 v -0.30232 a 9.3141503,9.3141503 0 0 1 9.30368,-9.30358 h 14.59853 z"
     fill="#2f2e41"
     id="path12"
     style="stroke-width:0.706107" />
  <polygon
     points="867.137,369.628 858.138,375.035 833.001,342.898 846.282,334.918 "
     fill="#ffb8b8"
     id="polygon12"
     transform="matrix(0.70610691,0,0,0.70610691,-110.29857,49.61241)" />
  <path
     d="m 486.82606,328.1051 -0.15573,-0.25922 a 9.3144752,9.3144752 0 0 1 3.18326,-12.76641 l 12.51369,-7.51825 4.94721,8.23391 z"
     fill="#2f2e41"
     id="path13"
     style="stroke-width:0.706107" />
  <path
     d="m 408.32822,318.75547 -0.12778,-5.9e-4 a 99.542398,99.542398 0 0 1 -10.79261,-0.62118 c -1.36592,-0.13491 -2.84757,-0.28135 -4.63276,-0.4278 l -0.0612,-0.011 c -1.21804,-0.36196 -1.25182,-11.78505 -0.73546,-50.8859 0.26455,-20.02725 0.56418,-42.7261 0.20742,-57.18189 l -0.003,-0.14206 0.10747,-0.0936 c 13.22345,-11.50133 30.20529,-15.81272 47.81734,-12.13966 l 0.13066,0.0273 0.0679,0.11488 c 7.28546,12.32711 18.28562,30.08337 28.92355,47.25535 24.4201,39.41913 31.4044,51.01227 30.63885,51.88677 l -0.0922,0.0715 c -1.66755,0.83376 -2.91946,1.4756 -3.98397,2.0215 -3.56427,1.82752 -5.03959,2.58395 -12.96631,5.8481 l -0.19574,0.0806 -0.14269,-0.15648 c -24.77809,-27.15136 -45.39787,-57.48096 -58.15203,-85.51862 -1.49038,9.57195 -3.29931,22.0709 -5.21068,35.27723 -5.49635,37.97599 -9.21102,62.98244 -10.70642,64.50497 z"
     fill="#2f2e41"
     id="path14"
     style="stroke-width:0.706107" />
  <path
     d="m 446.81326,88.37976 c 2.49543,-10.303482 4.60959,-21.924705 -0.0966,-31.414337 -3.26538,-6.584374 -15.34516,-8.801692 -22.26984,-6.429612 -6.92467,2.372101 -11.93123,8.807757 -14.13312,15.824654 -2.20188,7.016886 -1.94603,14.578109 -0.98634,21.872646 12.7354,-0.244657 25.47082,-0.489301 37.48589,0.146704 z"
     fill="#2f2e41"
     id="path15"
     style="stroke-width:0.706107" />
  <circle
     cx="425.32184"
     cy="73.526154"
     r="14.850811"
     fill="#ffb8b8"
     id="circle15"
     style="stroke-width:0.706107" />
  <path
     d="m 443.47687,70.466964 a 18.653134,18.653134 0 1 0 -37.28385,0.491497 c 12.71119,0.0269 25.42236,0.05407 37.28385,-0.491497 z"
     fill="#2f2e41"
     id="path16"
     style="stroke-width:0.706107" />
  <path
     d="m 415.00432,212.54769 a 129.79052,129.79052 0 0 1 43.39983,7.26611 c 0.48551,-23.40949 -7.57392,-46.86239 -22.14602,-64.40752 l -0.10897,-0.13108 0.0559,-0.16089 c 3.89227,-11.24655 7.91535,-22.87127 11.51019,-34.43843 l -0.0545,-0.19428 c -2.52122,-8.96316 -7.93281,-18.02051 -16.5436,-27.690172 a 5.2992618,5.2992618 0 0 0 -7.23395,-0.366395 c -15.30561,14.030947 -23.62782,35.053737 -21.71865,54.864857 l 0.007,0.0582 -0.0167,0.0566 c -6.74252,22.84294 -9.1902,34.57573 -11.34972,44.9274 -1.57525,7.55131 -2.93925,14.08999 -5.67775,23.43252 a 140.69363,140.69363 0 0 1 29.87836,-3.21663 z"
     fill="#3f3d56"
     id="path17"
     style="stroke-width:0.706107" />
  <polygon
     points="774.749,128.486 743.685,196.115 725.939,178.152 "
     opacity="0.1"
     id="polygon17"
     transform="matrix(0.70610691,0,0,0.70610691,-110.29857,49.61241)" />
  <path
     d="m 387.52302,166.86148 1.52936,2.97158 a 0.11686776,0.11686776 0 0 1 -0.0504,0.15694 l -0.0737,0.0379 7.96684,15.47992 a 1.8166365,1.8166365 0 0 1 -0.78394,2.44643 l -9.67253,4.97808 a 1.81622,1.81622 0 0 1 -2.44596,-0.78404 l -5e-5,-1.2e-4 -7.68745,-14.93699 -0.0534,0.0276 a 0.0822897,0.0822897 0 0 1 -0.11076,-0.0351 l -0.87037,-1.6912 a 0.08239562,0.08239562 0 0 1 0.0356,-0.1109 v 0 l 0.0534,-0.0276 -0.32786,-0.63701 -0.0538,0.0277 a 0.08632863,0.08632863 0 0 1 -0.11611,-0.0376 l -0.85849,-1.66812 a 0.08619447,0.08619447 0 0 1 0.0372,-0.1157 l 0.0538,-0.0277 -0.44754,-0.86956 -0.0548,0.0281 a 0.07625954,0.07625954 0 0 1 -0.1028,-0.0328 l -9e-5,-2.1e-4 -0.46848,-0.91029 a 0.07665498,0.07665498 0 0 1 0.0327,-0.10321 l 0.0548,-0.0281 -0.94862,-1.84324 a 1.816107,1.816107 0 0 1 0.78369,-2.44575 l 9.67255,-4.97806 a 1.8165307,1.8165307 0 0 1 2.44621,0.78348 l 2.2302,4.33337 0.0738,-0.0379 a 0.11682539,0.11682539 0 0 1 0.15696,0.0502 z"
     fill="#3f3d56"
     id="path18"
     style="stroke-width:0.706107" />
  <path
     d="m 384.45309,163.23324 11.73761,22.8066 a 1.1525289,1.1525289 0 0 1 -0.49759,1.55169 l -9.25901,4.76522 a 1.1505306,1.1505306 0 0 1 -1.55034,-0.4938 l -10e-4,-0.003 -11.73758,-22.80659 a 1.1524583,1.1524583 0 0 1 0.49727,-1.55213 l 7e-5,-3e-5 1.38579,-0.71322 0.0914,0.17782 a 0.94896533,0.94896533 0 0 0 1.27805,0.40953 l 4.70892,-2.42346 a 0.9490077,0.9490077 0 0 0 0.40954,-1.27804 l -0.0914,-0.17781 1.47676,-0.76002 a 1.1521547,1.1521547 0 0 1 1.55183,0.49666 z"
     fill="#2f2e41"
     id="path19"
     style="stroke-width:0.706107" />
  <path
     d="m 387.85503,191.09588 a 6.080202,6.080202 0 0 0 5.47506,-7.54633 l 18.07338,-11.84137 -10.30742,-4.45295 -15.58254,11.92745 a 6.1131702,6.1131702 0 0 0 2.34152,11.9132 z"
     fill="#ffb8b8"
     id="path20"
     style="stroke-width:0.706107" />
  <path
     d="m 405.24568,182.5653 -0.22794,-0.16122 c -4.30133,-3.16584 -9.07653,-6.43974 -13.69451,-9.60588 l -0.27737,-0.19014 0.21848,-0.25566 c 9.85654,-11.53204 19.72372,-23.5775 29.26777,-35.22998 -0.008,-0.0185 -0.014,-0.0323 -0.0182,-0.042 l 0.0899,-0.0458 0.038,-0.0462 0.0204,0.0169 0.0575,-0.0292 -0.26011,0.0202 -2.94165,-23.06879 c -2.65699,-3.62465 -3.16585,-10.82108 0.31634,-15.844589 3.60664,-5.203875 11.23694,-6.945504 16.32952,-3.728574 a 10.715172,10.715172 0 0 1 4.70522,8.001873 9.6638993,9.6638993 0 0 1 -2.56165,7.91329 c 1.25034,12.20842 1.29817,23.12076 1.34467,33.67614 l 4.4e-4,0.1054 -0.0653,0.0869 c -10.17452,12.9262 -21.35065,25.78354 -32.15872,38.21753 z"
     fill="#3f3d56"
     id="path21"
     style="stroke-width:0.706107" />
  <circle
     cx="104.213"
     cy="86.196541"
     r="33.391777"
     fill="#2f2e41"
     id="circle21"
     style="stroke-width:0.706107" />
  <polygon
     points="299.288,71.773 285.134,53.574 293.365,47.172 300.067,55.789 322.707,31.889 330.278,39.062 "
     fill="#ffffff"
     id="polygon21"
     transform="matrix(0.70610691,0,0,0.70610691,-110.29857,49.61241)" />
  <path
     d="M 537.61255,332.76129 H 368.85299 a 0.70610801,0.70610801 0 0 1 0,-1.41221 h 168.75956 a 0.70610801,0.70610801 0 0 1 0,1.41221 z"
     fill="#3f3d56"
     id="path22"
     style="stroke-width:0.706107" />
</svg>
