<?xml version="1.0" encoding="UTF-8" standalone="no"?>
<svg
   width="750"
   height="670"
   viewBox="0 0 750.00002 670.00001"
   role="img"
   artist="Katerina Limpitsouni"
   source="https://undraw.co/"
   version="1.1"
   id="svg31"
   sodipodi:docname="newsletter.svg"
   inkscape:version="1.4.2 (1:1.4.2+202505120738+ebf0e940d0)"
   xmlns:inkscape="http://www.inkscape.org/namespaces/inkscape"
   xmlns:sodipodi="http://sodipodi.sourceforge.net/DTD/sodipodi-0.dtd"
   xmlns="http://www.w3.org/2000/svg"
   xmlns:svg="http://www.w3.org/2000/svg">
  <defs
     id="defs31" />
  <sodipodi:namedview
     id="namedview31"
     pagecolor="#ffffff"
     bordercolor="#000000"
     borderopacity="0.25"
     inkscape:showpageshadow="2"
     inkscape:pageopacity="0.0"
     inkscape:pagecheckerboard="0"
     inkscape:deskcolor="#d1d1d1"
     inkscape:zoom="0.91031268"
     inkscape:cx="543.7692"
     inkscape:cy="349.33052"
     inkscape:window-width="1920"
     inkscape:window-height="1003"
     inkscape:window-x="0"
     inkscape:window-y="0"
     inkscape:window-maximized="1"
     inkscape:current-layer="svg31" />
  <path
     d="m 704.71814,134.07254 h -0.12466 l -71.4901,30.52657 -97.81319,41.767 a 3.15484,3.15484 0 0 1 -2.41645,0.0125 l -100.91441,-41.86665 -73.2464,-30.38956 -0.1119,-0.0498 h -0.12467 a 4.364,4.364 0 0 0 -4.35916,4.35916 v 189.31206 a 4.364,4.364 0 0 0 4.35916,4.35916 h 346.24178 a 4.364,4.364 0 0 0 4.35916,-4.35916 V 138.4317 a 4.364,4.364 0 0 0 -4.35916,-4.35916 z"
     fill="#ffffff"
     id="path1" />
  <path
     d="m 705.02895,135.31803 a 0.62087,0.62087 0 0 1 -0.35546,-0.1116 L 532.45002,15.26508 a 3.12331,3.12331 0 0 0 -3.56736,0.006 L 357.8998,135.20521 a 0.62286,0.62286 0 0 1 -0.71532,-1.01986 l 170.983,-119.934 a 4.373,4.373 0 0 1 4.99436,-0.008 l 172.22344,119.941 a 0.62286,0.62286 0 0 1 -0.35638,1.13388 z"
     fill="#3f3d56"
     id="path2" />
  <polygon
     points="598.834,12.645 763.237,142.174 607.241,234.65 522.549,215.346 435.67,133.57 "
     fill="#e6e6e6"
     id="polygon2"
     transform="translate(-68,6)" />
  <path
     d="m 461.69837,297.76911 h -80.6073 a 3.7659241,3.7659241 0 0 1 -0.0111,-7.53184 h 80.61843 a 3.7659241,3.7659241 0 0 1 0.0111,7.53184 z"
     fill="#232e19"
     id="path3" />
  <path
     d="m 410.01114,281.57794 h -28.9201 a 3.76592,3.76592 0 0 1 -0.0111,-7.53183 h 28.9312 a 3.76592,3.76592 0 1 1 0.0111,7.53183 z"
     fill="#232e19"
     id="path4" />
  <path
     d="m 533.12914,206.92324 a 4.7102,4.7102 0 0 1 -1.78672,-0.35 L 430.71386,164.81946 V 34.12315 a 4.36425,4.36425 0 0 1 4.35915,-4.35916 H 628.1215 a 4.36426,4.36426 0 0 1 4.35916,4.35916 v 130.78753 l -0.18913,0.0809 -97.32152,41.56129 a 4.74288,4.74288 0 0 1 -1.84087,0.37038 z"
     fill="#ffffff"
     id="path5" />
  <path
     d="m 533.12914,207.2343 a 5.0265,5.0265 0 0 1 -1.90531,-0.37279 L 430.40249,165.02743 V 34.12312 a 4.67581,4.67581 0 0 1 4.67052,-4.67052 H 628.1215 a 4.67582,4.67582 0 0 1 4.67053,4.67052 v 130.99312 l -97.69978,41.72279 a 5.05005,5.05005 0 0 1 -1.96311,0.39527 z m -101.48122,-43.03879 100.05086,41.51452 a 3.81,3.81 0 0 0 2.90695,-0.0173 l 96.94082,-41.3987 V 34.12312 a 3.42912,3.42912 0 0 0 -3.42505,-3.425 H 435.07301 a 3.42912,3.42912 0 0 0 -3.42505,3.425 z"
     fill="#3f3d56"
     id="path6" />
  <path
     d="m 703.78393,134.07254 h -0.12466 l -71.49013,30.52657 -97.81319,41.767 a 3.15484,3.15484 0 0 1 -2.41645,0.0125 l -100.91436,-41.8667 -73.2464,-30.38956 -0.1119,-0.0498 h -0.1247 a 4.364,4.364 0 0 0 -4.35916,4.35916 v 189.31206 a 4.364,4.364 0 0 0 4.35916,4.35916 h 346.24179 a 4.364,4.364 0 0 0 4.35916,-4.35916 V 138.4317 a 4.364,4.364 0 0 0 -4.35916,-4.35916 z m 3.11369,193.67122 a 3.11492,3.11492 0 0 1 -3.11369,3.11369 H 357.54214 a 3.11494,3.11494 0 0 1 -3.11369,-3.11369 V 138.4317 a 3.12057,3.12057 0 0 1 2.99541,-3.11368 l 73.60128,30.53901 100.4352,41.67357 a 4.43441,4.43441 0 0 0 3.38765,-0.0187 l 97.32115,-41.56143 71.73946,-30.63244 a 3.12378,3.12378 0 0 1 2.989,3.11368 z"
     fill="#3f3d56"
     id="path7" />
  <path
     d="m 517.46302,78.61869 h -68.50108 a 4.9819,4.9819 0 0 1 0,-9.96379 h 68.50108 a 4.9819,4.9819 0 0 1 0,9.96379 z"
     fill="#232e19"
     id="path8" />
  <path
     d="m 481.96701,57.44563 h -33.00507 a 4.981895,4.981895 0 0 1 0,-9.96379 h 33.00507 a 4.981895,4.981895 0 0 1 0,9.96379 z"
     fill="#232e19"
     id="path9" />
  <path
     d="M 582.8308,128.43765 H 478.21097 a 4.9819,4.9819 0 0 1 0,-9.96379 H 582.8308 a 4.9819,4.9819 0 0 1 0,9.96379 z"
     fill="#cccccc"
     id="path10" />
  <path
     d="M 582.8308,151.47893 H 478.21097 a 4.9819,4.9819 0 0 1 0,-9.9638 H 582.8308 a 4.9819,4.9819 0 0 1 0,9.9638 z"
     fill="#cccccc"
     id="path11" />
  <circle
     cx="701.85303"
     cy="135.87784"
     r="47.371361"
     fill="#232e19"
     id="circle11" />
  <polygon
     points="766.119,133.863 788.798,109.922 796.382,117.107 765.339,149.875 751.161,131.644 759.406,125.231 "
     fill="#ffffff"
     id="polygon11"
     transform="translate(-68,6)" />
  <path
     d="m 239.76523,409.85275 a 10.05581,10.05581 0 0 1 4.214,-14.83234 l -3.08079,-35.60179 16.326,8.84847 0.42262,32.45151 a 10.11027,10.11027 0 0 1 -17.8818,9.13415 z"
     fill="#9f616a"
     id="path12" />
  <path
     d="m 242.85869,387.33027 -0.13257,-0.33593 -18.01172,-45.50293 -2.85791,-86.25293 0.48,-0.0342 a 26.46617,26.46617 0 0 1 28.32056,25.11328 l 2.6416,46.374 7.48852,59.64258 z"
     fill="#e5e5e5"
     id="path13" />
  <polygon
     points="168.401,547.255 153.119,537.567 127.8,577.505 138.154,584.07 "
     fill="#9f616a"
     id="polygon13" />
  <path
     d="m 127.30178,572.45023 20.39154,12.92748 8.3e-4,5.2e-4 a 15.3873,15.3873 0 0 1 4.756,21.23348 l -0.26773,0.42227 -33.38677,-21.16611 z"
     fill="#2f2e41"
     id="path14" />
  <polygon
     points="243.784,547.861 225.69,547.862 225.692,595.15 237.952,595.149 "
     fill="#9f616a"
     id="polygon14" />
  <path
     d="m 222.56496,591.14727 24.144,-0.001 h 0.001 a 15.38731,15.38731 0 0 1 15.38648,15.38623 v 0.5 l -39.53077,10e-4 z"
     fill="#2f2e41"
     id="path15" />
  <path
     d="m 191.00322,397.01634 28.86232,173.60215 c 0,0 -5.67783,14.19459 2.83892,16.0872 8.51675,1.89261 27.44285,-1.89261 27.44285,-1.89261 0,0 5.67784,-14.19459 -2.83891,-16.0872 L 231.2212,387.3372 Z"
     fill="#2f2e41"
     id="path16" />
  <path
     d="m 208.03672,400.11232 -19.99536,81.17409 -50.97755,74.02 c 0,0 -18.92611,1.89262 -8.51675,12.302 10.40936,10.40938 15.14089,11.35562 15.14089,11.35562 0,0 16.08719,-1.89261 15.14088,-9.463 l 62.67343,-73.77085 29.11821,-98.45675 z"
     fill="#2f2e41"
     id="path17" />
  <path
     d="m 190.58745,407.26094 -4.82886,-27.55762 c -7.272,-7.60059 6.46826,-26.3916 8.00024,-28.43262 l -0.89892,-11.68554 a 3.50739,3.50739 0 0 1 -1.99268,-1.085 c -4.511,-4.60058 -4.208,-22.751 -4.19287,-23.52148 l -4.97822,-51.78513 12.38574,-7.22558 31.322,-1.00977 15.29636,13.25683 14.73267,135.35156 -0.52539,0.0293 z"
     fill="#e5e5e5"
     id="path18" />
  <path
     d="m 201.42742,416.92637 a 10.05575,10.05575 0 0 1 -2.443,-15.22456 l -17.82547,-30.97147 18.53545,1.12735 14.08568,29.23819 a 10.11028,10.11028 0 0 1 -12.35262,15.83049 z"
     fill="#9f616a"
     id="path19" />
  <path
     d="m 185.64165,387.96503 -15.37651,-35.64355 -2.56982,-72.81152 a 13.09764,13.09764 0 0 1 6.60693,-11.8623 l 17.73877,-10.83985 3.82715,76.544 11.44657,45.74702 z"
     fill="#e5e5e5"
     id="path20" />
  <circle
     cx="213.23836"
     cy="226.0443"
     r="22.00839"
     fill="#9f616a"
     id="circle20" />
  <path
     d="m 221.19614,193.5478 c -22.1648,-6.39172 -28.4563,11.97907 -28.4563,11.97907 -10.68384,7.08807 -3.99487,15.97473 -3.99487,15.97473 -2.6958,0.59881 2.69433,16.37457 4.4917,15.97534 0.959,-0.21307 3.425,2.73059 5.5166,5.52228 a 11.0696,11.0696 0 0 1 2.13672,0.20538 l -4.05811,-15.01288 c 0,0 13.67871,-2.09564 17.87256,-8.68506 4.01245,-6.30419 17.22119,-8.29455 20.98022,-4.08361 a 9.50485,9.50485 0 0 1 1.34058,-3.40387 6.80081,6.80081 0 0 1 1.971,-1.97608 c -3.32359,-14.12396 -17.8001,-16.4953 -17.8001,-16.4953 z"
     fill="#2f2e41"
     id="path21" />
  <polyline
     points="196.224 305.464 194.996 349.275 210.238 381.401 196.224 304.299"
     opacity="0.2"
     id="polyline21" />
  <path
     d="M 382,607.46403 H 1 a 1,1 0 1 1 0,-2 h 381 a 1,1 0 0 1 0,2 z"
     fill="#3f3d56"
     id="path22" />
  <path
     d="m 261.33637,53.27848 a 1.99891,1.99891 0 0 0 -2.99778,1.99087 l 1.54384,11.32333 a 1.29955,1.29955 0 0 1 -0.0336,0.49905 1.22138,1.22138 0 0 1 -0.23734,0.43608 l -8.64673,10.24363 a 1.95391,1.95391 0 0 0 -0.12721,2.41351 l 0.009,0.0131 a 1.95123,1.95123 0 0 0 2.28266,0.752 l 6.24446,-2.1195 a 1.20226,1.20226 0 0 1 1.20761,0.27169 1.16219,1.16219 0 0 1 0.37242,0.85434 l 0.24409,22.24892 a 1.984,1.984 0 0 0 0.87415,1.62894 2.004,2.004 0 0 0 1.83248,0.2134 l 46.6071,-17.82452 a 1.99756,1.99756 0 0 0 0.30651,-3.58642 l -0.63455,-0.37689 -48.84721,-28.98158 z m -2.20874,1.88208 a 1.20067,1.20067 0 0 1 1.8019,-1.19268 l 48.83161,28.97294 0.65006,0.38537 a 1.20112,1.20112 0 0 1 -0.18261,2.151 l -46.60706,17.82454 a 1.19819,1.19819 0 0 1 -1.62406,-1.10553 l -0.244,-22.24873 a 1.91512,1.91512 0 0 0 -0.1118,-0.646 l 47.45031,5.45193 a 0.79968,0.79968 0 0 0 0.47957,-1.49692 0.69588,0.69588 0 0 0 -0.125,-0.0544 L 260.68574,66.92563 a 1.97024,1.97024 0 0 0 -0.0143,-0.44177 l -1.54385,-11.32329 z"
     fill="#f1f1f1"
     id="path23" />
  <path
     d="m 261.33637,53.27848 a 1.99891,1.99891 0 0 0 -2.99778,1.99087 l 1.54384,11.32333 a 1.29955,1.29955 0 0 1 -0.0336,0.49905 1.22138,1.22138 0 0 1 -0.23734,0.43608 l -8.64673,10.24363 a 1.95391,1.95391 0 0 0 -0.12721,2.41351 l 0.009,0.0131 a 1.95123,1.95123 0 0 0 2.28266,0.752 l 6.24446,-2.1195 a 1.20226,1.20226 0 0 1 1.20761,0.27169 1.16219,1.16219 0 0 1 0.37242,0.85434 l 0.24409,22.24892 a 1.984,1.984 0 0 0 0.87415,1.62894 2.004,2.004 0 0 0 1.83248,0.2134 l 46.6071,-17.82452 a 1.99756,1.99756 0 0 0 0.30651,-3.58642 l -0.63455,-0.37689 -48.84721,-28.98158 z m -2.20874,1.88208 a 1.20067,1.20067 0 0 1 1.8019,-1.19268 l 48.83161,28.97294 0.65006,0.38537 a 1.20112,1.20112 0 0 1 -0.18261,2.151 l -46.60706,17.82453 a 1.19819,1.19819 0 0 1 -1.62405,-1.10553 l -0.24405,-22.24875 a 1.91516,1.91516 0 0 0 -0.1118,-0.646 1.94312,1.94312 0 0 0 -0.5119,-0.78227 c -0.0315,-0.0315 -0.0663,-0.0608 -0.10123,-0.0902 l -0.002,-0.003 a 1.99249,1.99249 0 0 0 -1.90795,-0.35062 l -6.24773,2.12177 a 1.16242,1.16242 0 0 1 -1.36924,-0.45629 l -0.005,-0.007 a 1.15986,1.15986 0 0 1 0.0771,-1.44692 l 8.64685,-10.24347 a 1.88917,1.88917 0 0 0 0.23875,-0.3498 l 0.003,-0.002 a 1.91585,1.91585 0 0 0 0.15205,-0.37685 1.857,1.857 0 0 0 0.0709,-0.389 1.97017,1.97017 0 0 0 -0.0143,-0.44176 l -1.54386,-11.32332 z"
     fill="#e5e5e5"
     id="path24" />
  <path
     d="m 260.68572,66.92561 48.76075,16.27642 a 0.69687,0.69687 0 0 1 0.125,0.0544 0.79969,0.79969 0 0 1 -0.47957,1.49693 l -47.45032,-5.452 -0.83795,-0.0954 0.0928,-0.79248 0.1298,0.0122 0.002,0.003 48.154,5.5288 -48.71965,-16.26619 -0.003,0.002 -0.21056,-0.0727 0.25288,-0.75767 z"
     fill="#e5e5e5"
     id="path25" />
  <path
     d="m 387.12624,411.22158 a 1.99891,1.99891 0 0 0 0.0806,3.59774 l 10.39574,4.74657 a 1.29963,1.29963 0 0 1 0.40386,0.29508 1.22139,1.22139 0 0 1 0.24174,0.43366 l 4.03707,12.7828 a 1.95394,1.95394 0 0 0 1.972,1.39736 l 0.016,-6.7e-4 a 1.95122,1.95122 0 0 0 1.85552,-1.52744 l 1.54574,-6.41064 a 1.20226,1.20226 0 0 1 0.875,-0.87549 1.16217,1.16217 0 0 1 0.92113,0.1418 l 18.93561,11.684 a 1.98394,1.98394 0 0 0 1.844,0.1317 2.004,2.004 0 0 0 1.15968,-1.43479 l 9.84234,-48.91895 a 1.99757,1.99757 0 0 0 -2.86749,-2.17574 l -0.65768,0.33491 -50.60089,25.79809 z m 0.41036,2.87269 a 1.20067,1.20067 0 0 1 -0.0451,-2.16039 l 50.58517,-25.78946 0.67313,-0.34349 a 1.20111,1.20111 0 0 1 1.72043,1.30387 l -9.84229,48.91893 a 1.19819,1.19819 0 0 1 -1.80235,0.78186 l -18.93542,-11.684 a 1.91519,1.91519 0 0 0 -0.60576,-0.25074 l 29.96662,-37.19216 a 0.79968,0.79968 0 0 0 -1.00893,-1.20533 0.6958,0.6958 0 0 0 -0.11278,0.0766 l -39.816,32.51493 a 1.96963,1.96963 0 0 0 -0.381,-0.224 l -10.39571,-4.74655 z"
     fill="#f1f1f1"
     id="path29" />
  <path
     d="m 387.12624,411.22158 a 1.99891,1.99891 0 0 0 0.0806,3.59774 l 10.39574,4.74657 a 1.29963,1.29963 0 0 1 0.40386,0.29508 1.22139,1.22139 0 0 1 0.24174,0.43366 l 4.03707,12.7828 a 1.95394,1.95394 0 0 0 1.972,1.39736 l 0.016,-6.7e-4 a 1.95122,1.95122 0 0 0 1.85552,-1.52744 l 1.54574,-6.41064 a 1.20226,1.20226 0 0 1 0.875,-0.87549 1.16217,1.16217 0 0 1 0.92113,0.1418 l 18.93561,11.684 a 1.98394,1.98394 0 0 0 1.844,0.1317 2.004,2.004 0 0 0 1.15968,-1.43479 l 9.84234,-48.91895 a 1.99757,1.99757 0 0 0 -2.86749,-2.17574 l -0.65768,0.33491 -50.60089,25.79809 z m 0.41036,2.87269 a 1.20067,1.20067 0 0 1 -0.0451,-2.16039 l 50.58517,-25.78946 0.67313,-0.34349 a 1.20111,1.20111 0 0 1 1.72043,1.30387 l -9.8423,48.91892 a 1.19819,1.19819 0 0 1 -1.80235,0.78186 l -18.93544,-11.684 a 1.91519,1.91519 0 0 0 -0.60576,-0.25074 1.94318,1.94318 0 0 0 -0.93476,0.0146 c -0.0435,0.01 -0.0869,0.0236 -0.13039,0.0373 l -0.004,1.6e-4 a 1.99248,1.99248 0 0 0 -1.316,1.42525 l -1.54558,6.41461 a 1.16244,1.16244 0 0 1 -1.11741,0.91346 l -0.008,3.2e-4 a 1.15986,1.15986 0 0 1 -1.18174,-0.83847 l -4.03687,-12.78281 a 1.89,1.89 0 0 0 -0.16806,-0.38874 l -1.5e-4,-0.004 a 1.91524,1.91524 0 0 0 -0.23726,-0.32991 1.85747,1.85747 0 0 0 -0.29092,-0.26781 1.97042,1.97042 0 0 0 -0.381,-0.224 l -10.39573,-4.74655 z"
     fill="#e5e5e5"
     id="path30" />
  <path
     d="m 398.3133,419.06486 39.816,-32.51492 a 0.6965,0.6965 0 0 1 0.11278,-0.0766 0.79968,0.79968 0 0 1 1.00893,1.20533 l -29.96665,37.19216 -0.52846,0.65726 -0.62023,-0.50194 0.0797,-0.1032 0.004,-1.6e-4 30.40767,-37.74588 -39.78538,32.48565 1.5e-4,0.004 -0.174,0.13911 -0.50525,-0.61865 z"
     fill="#e5e5e5"
     id="path31" />
</svg>
