<?xml version="1.0" encoding="UTF-8" standalone="no"?>
<svg
   width="455.46881pt"
   height="324.0538pt"
   version="1.1"
   viewBox="0 0 455.46881 324.0538"
   id="svg211"
   sodipodi:docname="experience.svg"
   inkscape:version="1.2 (1:1.2+202206011327+fc4e4096c5)"
   xmlns:inkscape="http://www.inkscape.org/namespaces/inkscape"
   xmlns:sodipodi="http://sodipodi.sourceforge.net/DTD/sodipodi-0.dtd"
   xmlns="http://www.w3.org/2000/svg"
   xmlns:svg="http://www.w3.org/2000/svg">
  <sodipodi:namedview
     id="namedview213"
     pagecolor="#ffffff"
     bordercolor="#666666"
     borderopacity="1.0"
     inkscape:showpageshadow="2"
     inkscape:pageopacity="0.0"
     inkscape:pagecheckerboard="0"
     inkscape:deskcolor="#d1d1d1"
     inkscape:document-units="pt"
     showgrid="false"
     inkscape:zoom="0.25285714"
     inkscape:cx="322.31638"
     inkscape:cy="272.88136"
     inkscape:window-width="1920"
     inkscape:window-height="1009"
     inkscape:window-x="0"
     inkscape:window-y="34"
     inkscape:window-maximized="1"
     inkscape:current-layer="g209" />
  <defs
     id="defs71">
    <symbol
       id="w"
       overflow="visible">
      <path
         d="m 25,-1.5 c -1.2812,0.67969 -2.625,1.1836 -4.0312,1.5156 -1.3984,0.34375 -2.8516,0.51562 -4.3594,0.51562 -4.5312,0 -8.125,-1.2656 -10.781,-3.7969 -2.6484,-2.5391 -3.9688,-5.9766 -3.9688,-10.312 0,-4.3516 1.3203,-7.7969 3.9688,-10.328 2.6562,-2.5312 6.25,-3.7969 10.781,-3.7969 1.5078,0 2.9609,0.17188 4.3594,0.51562 1.4062,0.33594 2.75,0.83594 4.0312,1.5 v 5.6406 c -1.293,-0.88281 -2.5742,-1.5352 -3.8438,-1.9531 -1.2617,-0.41406 -2.5898,-0.625 -3.9844,-0.625 -2.5,0 -4.4688,0.80469 -5.9062,2.4062 -1.4375,1.6055 -2.1562,3.8203 -2.1562,6.6406 0,2.8047 0.71875,5.0078 2.1562,6.6094 1.4375,1.6055 3.4062,2.4062 5.9062,2.4062 1.3945,0 2.7227,-0.20312 3.9844,-0.60938 1.2695,-0.41406 2.5508,-1.0664 3.8438,-1.9531 z"
         id="path2" />
    </symbol>
    <symbol
       id="e"
       overflow="visible">
      <path
         d="m 18.297,-14.859 c -0.57422,-0.25781 -1.1406,-0.45312 -1.7031,-0.57812 -0.5625,-0.13281 -1.1328,-0.20312 -1.7031,-0.20312 -1.6797,0 -2.9688,0.54297 -3.875,1.625 -0.90625,1.0742 -1.3594,2.6094 -1.3594,4.6094 V 3.6e-4 H 3.1408 v -20.406 h 6.5156 v 3.3438 c 0.84375,-1.332 1.8047,-2.3047 2.8906,-2.9219 1.0938,-0.61328 2.3945,-0.92188 3.9062,-0.92188 0.21875,0 0.45312,0.01172 0.70312,0.03125 0.25781,0.02344 0.63281,0.05859 1.125,0.10938 z"
         id="path5" />
    </symbol>
    <symbol
       id="a"
       overflow="visible">
      <path
         d="m 23.516,-10.266 v 1.8594 H 8.25 c 0.16406,1.5312 0.72266,2.6836 1.6719,3.4531 0.94531,0.76172 2.2695,1.1406 3.9688,1.1406 1.375,0 2.7812,-0.20312 4.2188,-0.60938 1.4376,-0.40626 2.9141,-1.0195 4.4375,-1.8438 v 5.0312 c -1.543,0.58594 -3.0859,1.0234 -4.625,1.3125 -1.543,0.30078 -3.0898,0.45312 -4.6406,0.45312 -3.6875,0 -6.5586,-0.9375 -8.6094,-2.8125 -2.043,-1.8828 -3.0625,-4.5195 -3.0625,-7.9062 0,-3.332 1.0039,-5.9531 3.0156,-7.8594 2.0078,-1.9062 4.7734,-2.8594 8.2969,-2.8594 3.207,0 5.7734,0.96875 7.7031,2.9062 1.9258,1.9297 2.8906,4.5078 2.8906,7.7344 z m -6.7031,-2.1719 c 0,-1.2383 -0.36719,-2.2344 -1.0938,-2.9844 -0.71875,-0.75781 -1.6641,-1.1406 -2.8281,-1.1406 -1.2734,0 -2.3047,0.35547 -3.0938,1.0625 -0.78125,0.71094 -1.2734,1.7305 -1.4688,3.0625 z"
         id="path8" />
    </symbol>
    <symbol
       id="d"
       overflow="visible">
      <path
         d="m 12.281,-9.1875 c -1.3555,0 -2.375,0.23438 -3.0625,0.70312 -0.6875,0.46094 -1.0312,1.1367 -1.0312,2.0312 0,0.82422 0.27344,1.4688 0.82812,1.9375 0.55078,0.46875 1.3164,0.70312 2.2969,0.70312 1.2266,0 2.2578,-0.4375 3.0938,-1.3125 0.84375,-0.88281 1.2656,-1.9883 1.2656,-3.3125 v -0.75 z m 9.9688,-2.4531 V 4e-4 h -6.5781 v -3.0312 c -0.875,1.2422 -1.8594,2.1484 -2.9531,2.7188 -1.0938,0.5625 -2.4219,0.84375 -3.9844,0.84375 -2.1172,0 -3.8359,-0.61328 -5.1562,-1.8438 -1.3125,-1.2383 -1.9688,-2.8438 -1.9688,-4.8125 0,-2.3945 0.82031,-4.1484 2.4688,-5.2656 1.6445,-1.1133 4.2266,-1.6719 7.75,-1.6719 h 3.8438 v -0.51562 c 0,-1.0312 -0.40625,-1.7852 -1.2188,-2.2656 -0.8125,-0.47656 -2.0859,-0.71875 -3.8125,-0.71875 -1.3984,0 -2.6992,0.14062 -3.9062,0.42188 -1.1992,0.27344 -2.3125,0.6875 -3.3438,1.25 v -4.9688 c 1.3945,-0.34375 2.7969,-0.60156 4.2031,-0.78125 1.4141,-0.17578 2.8281,-0.26562 4.2344,-0.26562 3.6875,0 6.3438,0.73047 7.9688,2.1875 1.6328,1.4492 2.4531,3.8086 2.4531,7.0781 z"
         id="path11" />
    </symbol>
    <symbol
       id="c"
       overflow="visible">
      <path
         d="m 10.266,-26.203 v 5.7969 h 6.7188 v 4.6562 H 10.266 v 8.6562 c 0,0.94922 0.1875,1.5898 0.5625,1.9219 0.375,0.33594 1.1172,0.5 2.2344,0.5 h 3.3594 V 1e-4 H 10.8285 C 8.2543,1e-4 6.4262,-0.53506 5.3441,-1.6093 4.2699,-2.6796 3.7347,-4.5077 3.7347,-7.0937 v -8.6562 h -3.25 v -4.6562 h 3.25 v -5.7969 z"
         id="path14" />
    </symbol>
    <symbol
       id="l"
       overflow="visible">
      <path
         d="M 17.031,-17.422 V -28.36 h 6.5469 V -10e-4 H 17.031 v -2.9531 c -0.90625,1.2109 -1.9023,2.0938 -2.9844,2.6562 -1.0742,0.55078 -2.3242,0.82812 -3.75,0.82812 -2.5117,0 -4.5781,-1 -6.2031,-3 -1.6172,-2 -2.4219,-4.5703 -2.4219,-7.7188 0,-3.1445 0.80469,-5.7188 2.4219,-7.7188 1.625,-2 3.6914,-3 6.2031,-3 1.4062,0 2.6484,0.28906 3.7344,0.85938 1.0938,0.5625 2.0938,1.4375 3,2.625 z m -4.3125,13.219 c 1.3945,0 2.4609,-0.50781 3.2031,-1.5312 0.73828,-1.0195 1.1094,-2.5039 1.1094,-4.4531 0,-1.9453 -0.37109,-3.4297 -1.1094,-4.4531 -0.74219,-1.0195 -1.8086,-1.5312 -3.2031,-1.5312 -1.3867,0 -2.4492,0.51172 -3.1875,1.5312 -0.73047,1.0234 -1.0938,2.5078 -1.0938,4.4531 0,1.9492 0.36328,3.4336 1.0938,4.4531 0.73828,1.0234 1.8008,1.5312 3.1875,1.5312 z"
         id="path17" />
    </symbol>
    <symbol
       id="k"
       overflow="visible">
      <path
         d="m 14,-4.2031 c 1.3945,0 2.457,-0.50781 3.1875,-1.5312 0.73828,-1.0195 1.1094,-2.5039 1.1094,-4.4531 0,-1.9453 -0.37109,-3.4297 -1.1094,-4.4531 -0.73047,-1.0195 -1.793,-1.5312 -3.1875,-1.5312 -1.3984,0 -2.4688,0.51562 -3.2188,1.5469 -0.75,1.0234 -1.125,2.5 -1.125,4.4375 0,1.9297 0.375,3.4062 1.125,4.4375 0.75,1.0313 1.8203,1.5469 3.2188,1.5469 z m -4.3438,-13.219 c 0.90625,-1.1875 1.9062,-2.0625 3,-2.625 1.0938,-0.57031 2.3477,-0.85938 3.7656,-0.85938 2.5078,0 4.5703,1 6.1875,3 1.625,2 2.4375,4.5742 2.4375,7.7188 0,3.1484 -0.8125,5.7188 -2.4375,7.7188 -1.6172,2 -3.6797,3 -6.1875,3 -1.418,0 -2.6719,-0.28125 -3.7656,-0.84375 -1.0938,-0.57031 -2.0938,-1.4531 -3,-2.6406 v 2.9531 H 3.1406 v -28.359 h 6.5156 z"
         id="path20" />
    </symbol>
    <symbol
       id="h"
       overflow="visible">
      <path
         d="m 0.45312,-20.406 h 6.5312 l 5.4844,13.844 4.6719,-13.844 h 6.5156 l -8.5781,22.344 c -0.86719,2.2695 -1.875,3.8594 -3.0312,4.7656 -1.1484,0.90625 -2.6562,1.3594 -4.5312,1.3594 H 3.73452 V 3.7661 h 2.0469 c 1.1016,0 1.9062,-0.17969 2.4062,-0.53125 C 8.69543,2.8911 9.09387,2.25829 9.37512,1.34425 L 9.547,0.78175 Z"
         id="path23" />
    </symbol>
    <symbol
       id="j"
       overflow="visible">
      <path
         d="m 3.4219,-27.219 h 7.0156 v 9.9375 l 10.125,-9.9375 h 8.1406 L 15.6091,-14.328 30.0621,0 H 21.2652 L 10.4372,-10.719 V 0 H 3.4216 Z"
         id="path26" />
    </symbol>
    <symbol
       id="b"
       overflow="visible">
      <path
         d="m 2.9219,-7.9531 v -12.453 h 6.5625 v 2.0312 c 0,1.1055 -0.011719,2.4961 -0.03125,4.1719 -0.011719,1.668 -0.015625,2.7812 -0.015625,3.3438 0,1.6367 0.039062,2.8203 0.125,3.5469 0.09375,0.71875 0.23828,1.2461 0.4375,1.5781 0.26953,0.41797 0.61719,0.74609 1.0469,0.98438 0.4375,0.23047 0.9375,0.34375 1.5,0.34375 1.3516,0 2.4219,-0.51953 3.2031,-1.5625 0.78125,-1.0508 1.1719,-2.5039 1.1719,-4.3594 v -10.078 h 6.5156 V 3e-5 h -6.5156 v -2.9531 c -0.99219,1.1875 -2.0391,2.0703 -3.1406,2.6406 -1.0938,0.5625 -2.3047,0.84375 -3.625,0.84375 -2.3672,0 -4.1641,-0.72266 -5.3906,-2.1719 -1.2305,-1.4453 -1.8438,-3.5508 -1.8438,-6.3125 z"
         id="path29" />
    </symbol>
    <symbol
       id="v"
       overflow="visible">
      <path
         d="m 3.1406,-28.359 h 6.5156 v 15.438 l 7.5156,-7.4844 h 7.5781 l -9.9688,9.3594 10.75,11.047 H 17.6249 L 9.6561,-8.5146 V 0.001 H 3.1405 Z"
         id="path32" />
    </symbol>
    <symbol
       id="g"
       overflow="visible">
      <path
         d="M 23.656,-12.438 V 0 h -6.5625 v -9.4844 c 0,-1.7812 -0.04297,-3.0039 -0.125,-3.6719 -0.07422,-0.66406 -0.21094,-1.1602 -0.40625,-1.4844 -0.25,-0.42578 -0.59375,-0.75391 -1.0312,-0.98438 -0.4375,-0.23828 -0.9375,-0.35938 -1.5,-0.35938 -1.3555,0 -2.4219,0.52734 -3.2031,1.5781 -0.78125,1.0547 -1.1719,2.5078 -1.1719,4.3594 V 4e-5 h -6.5156 v -28.359 h 6.5156 v 10.938 c 0.98828,-1.1875 2.0352,-2.0625 3.1406,-2.625 1.1016,-0.57031 2.3203,-0.85938 3.6562,-0.85938 2.3633,0 4.1562,0.72656 5.375,2.1719 1.2188,1.4492 1.8281,3.5469 1.8281,6.2969 z"
         id="path35" />
    </symbol>
    <symbol
       id="u"
       overflow="visible">
      <path
         d="m 1.1094,-27.219 h 6.7344 l 4.7031,19.781 4.6562,-19.781 h 6.7656 l 4.6719,19.781 4.7031,-19.781 h 6.6562 L 33.5937,0 H 25.4999 L 20.5624,-20.688 15.6718,0 H 7.578 Z"
         id="path38" />
    </symbol>
    <symbol
       id="i"
       overflow="visible">
      <path
         d="m 19.625,-19.781 v 5.3281 c -0.88672,-0.60156 -1.7773,-1.0508 -2.6719,-1.3438 -0.88672,-0.28906 -1.8086,-0.4375 -2.7656,-0.4375 -1.8242,0 -3.2461,0.53125 -4.2656,1.5938 -1.0117,1.0625 -1.5156,2.5469 -1.5156,4.4531 0,1.9062 0.50391,3.3906 1.5156,4.4531 1.0195,1.0625 2.4414,1.5938 4.2656,1.5938 1.0195,0 1.9883,-0.14844 2.9062,-0.45312 0.91406,-0.30078 1.7578,-0.75 2.5312,-1.3438 v 5.3438 c -1.0234,0.375 -2.0586,0.65625 -3.1094,0.84375 -1.043,0.1875 -2.0938,0.28125 -3.1562,0.28125 -3.6797,0 -6.5586,-0.94141 -8.6406,-2.8281 -2.0742,-1.8945 -3.1094,-4.5234 -3.1094,-7.8906 0,-3.3633 1.0352,-5.9883 3.1094,-7.875 2.082,-1.8945 4.9609,-2.8438 8.6406,-2.8438 1.0703,0 2.125,0.09375 3.1562,0.28125 1.0391,0.1875 2.0781,0.46875 3.1094,0.84375 z"
         id="path41" />
    </symbol>
    <symbol
       id="t"
       overflow="visible">
      <path
         d="m 14.328,-16.672 c 1.1016,0 1.9414,-0.24219 2.5156,-0.73438 0.57031,-0.48828 0.85938,-1.207 0.85938,-2.1562 0,-0.92578 -0.28906,-1.6328 -0.85938,-2.125 -0.57422,-0.5 -1.4141,-0.75 -2.5156,-0.75 h -3.8906 v 5.7656 z m 0.23438,11.891 c 1.4062,0 2.4609,-0.29688 3.1719,-0.89062 0.71875,-0.59375 1.0781,-1.4883 1.0781,-2.6875 0,-1.1875 -0.35547,-2.0703 -1.0625,-2.6562 -0.69922,-0.59375 -1.7617,-0.89062 -3.1875,-0.89062 h -4.125 v 7.125 z m 6.5312,-9.7812 c 1.5,0.4375 2.6602,1.2461 3.4844,2.4219 0.83203,1.1797 1.25,2.625 1.25,4.3438 0,2.625 -0.89062,4.5859 -2.6719,5.875 -1.7734,1.2812 -4.4648,1.9219 -8.0781,1.9219 h -11.656 v -27.219 h 10.547 c 3.7695,0 6.5039,0.57422 8.2031,1.7188 1.6953,1.1484 2.5469,2.9766 2.5469,5.4844 0,1.3242 -0.3125,2.4531 -0.9375,3.3906 -0.61719,0.92969 -1.5117,1.6172 -2.6875,2.0625 z"
         id="path44" />
    </symbol>
    <symbol
       id="s"
       overflow="visible">
      <path
         d="M 3.1406,-20.406 H 9.6562 V 0 H 3.1406 Z m 0,-7.9531 h 6.5156 v 5.3281 H 3.1406 Z"
         id="path47" />
    </symbol>
    <symbol
       id="r"
       overflow="visible">
      <path
         d="m 16.562,-28.359 v 4.2812 h -3.6094 c -0.91797,0 -1.5586,0.16797 -1.9219,0.5 -0.36719,0.33594 -0.54688,0.91797 -0.54688,1.75 v 1.4219 h 5.5781 v 4.6562 h -5.5781 V 3e-4 h -6.5312 v -15.75 h -3.25 v -4.6562 h 3.25 v -1.4219 c 0,-2.2266 0.61719,-3.875 1.8594,-4.9375 1.2383,-1.0625 3.1602,-1.5938 5.7656,-1.5938 z"
         id="path50" />
    </symbol>
    <symbol
       id="f"
       overflow="visible">
      <path
         d="m 12.844,-16.234 c -1.4375,0 -2.5391,0.52344 -3.2969,1.5625 -0.76172,1.0312 -1.1406,2.5273 -1.1406,4.4844 0,1.9609 0.37891,3.4609 1.1406,4.5 0.75781,1.0312 1.8594,1.5469 3.2969,1.5469 1.4258,0 2.5156,-0.51562 3.2656,-1.5469 0.75781,-1.0391 1.1406,-2.5391 1.1406,-4.5 0,-1.957 -0.38281,-3.4531 -1.1406,-4.4844 -0.75,-1.0391 -1.8398,-1.5625 -3.2656,-1.5625 z m 0,-4.6719 c 3.5195,0 6.2656,0.94922 8.2344,2.8438 1.9766,1.8984 2.9688,4.5234 2.9688,7.875 0,3.3555 -0.99219,5.9805 -2.9688,7.875 -1.9688,1.8984 -4.7148,2.8438 -8.2344,2.8438 -3.5234,0 -6.2773,-0.94531 -8.2656,-2.8438 -1.9805,-1.8945 -2.9688,-4.5195 -2.9688,-7.875 0,-3.3516 0.98828,-5.9766 2.9688,-7.875 1.9883,-1.8945 4.7422,-2.8438 8.2656,-2.8438 z"
         id="path53" />
    </symbol>
    <symbol
       id="q"
       overflow="visible">
      <path
         d="m 22.047,-17.031 c 0.83203,-1.2578 1.8164,-2.2188 2.9531,-2.875 1.1328,-0.66406 2.3828,-1 3.75,-1 2.3438,0 4.125,0.72656 5.3438,2.1719 1.2266,1.4492 1.8438,3.5469 1.8438,6.2969 V 8e-4 h -6.5625 v -10.641 c 0.01953,-0.15625 0.03125,-0.31641 0.03125,-0.48438 0.0078,-0.17578 0.01563,-0.42188 0.01563,-0.73438 0,-1.4453 -0.21484,-2.4922 -0.64062,-3.1406 -0.42969,-0.65625 -1.1172,-0.98438 -2.0625,-0.98438 -1.2422,0 -2.1992,0.51172 -2.875,1.5312 -0.66797,1.0234 -1.0156,2.4961 -1.0469,4.4219 v 10.031 h -6.5625 v -10.641 c 0,-2.2578 -0.19531,-3.7109 -0.57812,-4.3594 -0.38672,-0.65625 -1.0781,-0.98438 -2.0781,-0.98438 -1.25,0 -2.2188,0.51562 -2.9062,1.5469 -0.67969,1.0234 -1.0156,2.4844 -1.0156,4.3906 v 10.047 h -6.5625 v -20.406 h 6.5625 v 2.9844 c 0.80078,-1.1562 1.7227,-2.0234 2.7656,-2.6094 1.0391,-0.58203 2.1875,-0.875 3.4375,-0.875 1.4062,0 2.6484,0.34375 3.7344,1.0312 1.082,0.67969 1.8984,1.625 2.4531,2.8438 z"
         id="path56" />
    </symbol>
    <symbol
       id="p"
       overflow="visible">
      <path
         d="m 3.4219,-27.219 h 7.8438 l 9.8906,18.672 v -18.672 h 6.6562 V 0 H 19.9687 L 10.0781,-18.672 V 0 H 3.4219 Z"
         id="path59" />
    </symbol>
    <symbol
       id="o"
       overflow="visible">
      <path
         d="M 23.656,-12.438 V 0 h -6.5625 v -9.5156 c 0,-1.7578 -0.04297,-2.9727 -0.125,-3.6406 -0.07422,-0.66406 -0.21094,-1.1602 -0.40625,-1.4844 -0.25,-0.42578 -0.59375,-0.75391 -1.0312,-0.98438 -0.4375,-0.23828 -0.9375,-0.35938 -1.5,-0.35938 -1.3555,0 -2.4219,0.52734 -3.2031,1.5781 -0.78125,1.0547 -1.1719,2.5078 -1.1719,4.3594 v 10.047 h -6.5156 v -20.406 h 6.5156 v 2.9844 c 0.98828,-1.1875 2.0352,-2.0625 3.1406,-2.625 1.1016,-0.57031 2.3203,-0.85938 3.6562,-0.85938 2.3633,0 4.1562,0.72656 5.375,2.1719 1.2188,1.4492 1.8281,3.5469 1.8281,6.2969 z"
         id="path62" />
    </symbol>
    <symbol
       id="n"
       overflow="visible">
      <path
         d="m 3.4219,-27.219 h 11.656 c 3.457,0 6.1133,0.77344 7.9688,2.3125 1.8516,1.543 2.7812,3.7305 2.7812,6.5625 0,2.8672 -0.92969,5.0703 -2.7812,6.6094 -1.8555,1.5312 -4.5117,2.2969 -7.9688,2.2969 H 10.4373 V -2e-4 H 3.4217 Z m 7.0156,5.0938 v 7.5938 h 3.8906 c 1.3633,0 2.4141,-0.32812 3.1562,-0.98438 0.73828,-0.66406 1.1094,-1.6094 1.1094,-2.8281 0,-1.207 -0.37109,-2.1406 -1.1094,-2.7969 -0.74219,-0.65625 -1.793,-0.98438 -3.1562,-0.98438 z"
         id="path65" />
    </symbol>
    <symbol
       id="m"
       overflow="visible">
      <path
         d="m 3.1406,-20.406 h 6.5156 v 20.047 c 0,2.7266 -0.65625,4.8125 -1.9688,6.25 C 6.3749,7.3363 4.4726,8.0629 1.9843,8.0629 H -1.2345 V 3.766 h 1.125 c 1.2383,0 2.0859,-0.28125 2.5469,-0.84375 0.46875,-0.55469 0.70312,-1.6484 0.70312,-3.2812 z m 0,-7.9531 h 6.5156 v 5.3281 H 3.1406 Z"
         id="path68" />
    </symbol>
  </defs>
  <g
     id="g209"
     transform="translate(-111.0656,-145.605)">
    <path
       d="m 388.08,424.85 h -88.105 c -2.2383,0 -3.7344,1.4922 -3.7344,3.7344 0,2.2383 1.4922,3.7344 3.7344,3.7344 h 88.105 c 2.2383,0 3.7344,-1.4922 3.7344,-3.7344 0,-2.2383 -1.4922,-3.7344 -3.7344,-3.7344 z"
       id="path73"
       style="fill:#ffffff" />
    <path
       d="m 243.23,424.85 c -2.2383,0 -3.7344,1.4922 -3.7344,3.7344 0,2.2383 1.4922,3.7344 3.7344,3.7344 h 23.895 c 2.2383,0 3.7344,-1.4922 3.7344,-3.7344 0,-2.2383 -1.4922,-3.7344 -3.7344,-3.7344 z"
       id="path75"
       style="fill:#ffffff" />
    <path
       d="m 310.43,462.19 c -2.2383,0 -3.7344,1.4922 -3.7344,3.7344 0,2.2383 1.4922,3.7344 3.7344,3.7344 h 23.895 c 2.2383,0 3.7344,-1.4922 3.7344,-3.7344 0,-2.2383 -1.4922,-3.7344 -3.7344,-3.7344 z"
       id="path77"
       style="fill:#ffffff" />
    <path
       d="m 388.08,462.19 h -21.652 c -2.2383,0 -3.7344,1.4922 -3.7344,3.7344 0,2.2383 1.4922,3.7344 3.7344,3.7344 h 21.652 c 2.2383,0 3.7344,-1.4922 3.7344,-3.7344 0,-2.2422 -1.4922,-3.7344 -3.7344,-3.7344 z"
       id="path79"
       style="fill:#ffffff" />
    <path
       d="m 562.8,373.33 h -448 c -2.2383,0 -3.7344,-1.4922 -3.7344,-3.7344 0,-2.2383 1.4922,-3.7305 3.7344,-3.7305 h 448 c 2.2383,0 3.7344,1.4922 3.7344,3.7344 0,2.2383 -2.2422,3.7305 -3.7344,3.7305 z"
       id="path81"
       style="fill:#ffffff" />
    <path
       d="m 254.43,296.43 h -61.227 l 27.625,-35.84 c 1.4922,-1.4922 3.7344,-2.2383 5.2266,-0.74609 1.4922,1.4922 2.2383,3.7344 0.74609,5.2266 l -18.668,23.895 h 31.359 l -6.7188,-8.9609 c -1.4922,-1.4922 -0.74609,-3.7344 0.74609,-5.2266 1.4922,-1.4922 3.7344,-0.74609 5.2266,0.74609 z"
       id="path83"
       style="fill:#ffffff" />
    <path
       d="m 247.71,266.56 h -47.785 l 23.895,-30.613 z m -32.855,-7.4648 h 17.172 l -8.9609,-11.199 z"
       id="path85"
       style="fill:#ffffff" />
    <path
       d="m 264.13,338.99 h -81.387 l 38.078,-48.535 c 1.4922,-1.4922 3.7344,-2.2383 5.2266,-0.74609 1.4922,1.4922 2.2383,3.7344 0.74609,5.2266 l -28.375,36.586 h 50.777 l -11.945,-15.68 c -1.4922,-1.4922 -0.74609,-3.7344 0.74609,-5.2266 1.4922,-1.4922 3.7344,-0.74609 5.2266,0.74609 z"
       id="path87"
       style="fill:#ffffff" />
    <path
       d="m 223.81,373.33 c -2.2383,0 -3.7344,-1.4922 -3.7344,-3.7344 v -34.348 c 0,-2.2383 1.4922,-3.7344 3.7344,-3.7344 2.2383,0 3.7344,1.4922 3.7344,3.7344 v 34.348 c 0,2.2422 -1.4922,3.7344 -3.7344,3.7344 z"
       id="path89"
       style="fill:#ffffff" />
    <path
       d="m 345.52,315.84 h -50.027 l 21.652,-28.375 c 1.4922,-1.4922 3.7344,-2.2383 5.2266,-0.74609 1.4922,1.4922 2.2383,3.7344 0.74609,5.2266 l -12.691,16.426 h 19.414 l -3.7344,-5.2266 c -1.4922,-1.4922 -0.74609,-3.7344 0.74609,-5.2266 1.4922,-1.4922 3.7344,-0.74609 5.2266,0.74609 z"
       id="path91"
       style="fill:#ffffff" />
    <path
       d="m 352.99,347.95 h -64.961 l 29.121,-38.078 c 1.4922,-1.4922 3.7344,-2.2383 5.2266,-0.74609 1.4922,1.4922 2.2383,3.7344 0.74609,5.2266 l -20.16,26.133 h 34.348 l -7.4648,-9.707 c -1.4922,-1.4922 -0.74609,-3.7344 0.74609,-5.2266 1.4922,-1.4922 3.7344,-0.74609 5.2266,0.74609 z"
       id="path93"
       style="fill:#ffffff" />
    <path
       d="m 320.88,373.33 c -2.2383,0 -3.7344,-1.4922 -3.7344,-3.7344 v -25.387 c 0,-2.2383 1.4922,-3.7344 3.7344,-3.7344 2.2383,0 3.7344,1.4922 3.7344,3.7344 v 25.387 c 0,2.2422 -1.4922,3.7344 -3.7344,3.7344 z"
       id="path95"
       style="fill:#ffffff" />
    <path
       d="m 479.17,296.43 h -61.227 l 27.625,-35.84 c 1.4922,-1.4922 3.7344,-2.2383 5.2266,-0.74609 1.4922,1.4922 2.2383,3.7344 0.74609,5.2266 l -18.668,23.895 h 31.359 l -6.7188,-8.9609 c -1.4922,-1.4922 -0.74609,-3.7344 0.74609,-5.2266 1.4922,-1.4922 3.7344,-0.74609 5.2266,0.74609 z"
       id="path97"
       style="fill:#ffffff" />
    <path
       d="m 472.45,266.56 h -47.785 l 23.895,-30.613 z m -32.852,-7.4648 h 17.172 l -8.9609,-11.199 z"
       id="path99"
       style="fill:#ffffff" />
    <path
       d="m 489.62,338.99 h -82.133 l 38.078,-48.535 c 1.4922,-1.4922 3.7344,-2.2383 5.2266,-0.74609 1.4922,1.4922 2.2383,3.7344 0.74609,5.2266 l -28.375,36.586 h 50.773 l -11.945,-15.68 c -1.4922,-1.4922 -0.74609,-3.7344 0.74609,-5.2266 1.4922,-1.4922 3.7344,-0.74609 5.2266,0.74609 z"
       id="path101"
       style="fill:#ffffff" />
    <path
       d="m 448.56,373.33 c -2.2383,0 -3.7344,-1.4922 -3.7344,-3.7344 v -34.348 c 0,-2.2383 1.4922,-3.7344 3.7344,-3.7344 2.2383,0 3.7344,1.4922 3.7344,3.7344 v 34.348 c 0,2.2422 -1.4922,3.7344 -3.7344,3.7344 z"
       id="path103"
       style="fill:#ffffff" />
    <path
       d="m 208.88,253.87 h -58.238 l 26.133,-51.52 c 0.74609,-1.4922 2.9883,-2.2383 5.2266,-1.4922 1.4922,0.74609 2.2383,2.9883 1.4922,5.2266 l -20.906,40.316 h 34.348 l -8.9609,-17.922 c -0.74609,-1.4922 0,-3.7344 1.4922,-5.2266 1.4922,-0.74609 3.7344,0 5.2266,1.4922 z"
       id="path105"
       style="fill:#ffffff" />
    <path
       d="m 202.16,208.32 h -44.801 l 22.398,-44.055 z m -32.105,-7.4688 h 20.16 l -10.453,-20.16 z"
       id="path107"
       style="fill:#ffffff" />
    <path
       d="m 194.69,320.32 h -53.758 l 35.84,-71.68 c 0.74609,-1.4922 2.9883,-2.2383 5.2266,-1.4922 1.4922,0.74609 2.2383,2.9883 1.4922,5.2266 l -30.613,60.48 h 41.812 c 2.2383,0 3.7344,1.4922 3.7344,3.7344 0,2.2383 -2.2383,3.7305 -3.7344,3.7305 z"
       id="path109"
       style="fill:#ffffff" />
    <path
       d="m 179.76,373.33 c -2.2383,0 -3.7344,-1.4922 -3.7344,-3.7344 v -53.012 c 0,-2.2383 1.4922,-3.7344 3.7344,-3.7344 2.2383,0 3.7344,1.4922 3.7344,3.7344 v 53.012 c -0.004,2.2422 -1.4961,3.7344 -3.7344,3.7344 z"
       id="path111"
       style="fill:#ffffff" />
    <path
       d="m 516.51,243.41 h -58.238 l 25.387,-55.254 c 0.74609,-2.2383 2.9883,-2.9883 5.2266,-1.4922 2.2383,0.74609 2.9883,2.9883 1.4922,5.2266 l -20.906,44.801 h 34.348 l -7.4688,-20.16 c -0.74609,-2.2383 0,-3.7344 1.4922,-5.2266 1.4922,-0.74609 3.7344,0 5.2266,1.4922 z"
       id="path113"
       style="fill:#ffffff" />
    <path
       d="m 509.79,193.39 h -44.051 l 22.398,-47.785 z m -32.105,-7.4648 h 20.906 l -10.453,-22.398 z"
       id="path115"
       style="fill:#ffffff" />
    <path
       d="m 470.96,279.25 h -1.4922 c -2.2383,-0.74609 -2.9883,-2.9883 -1.4922,-5.2266 l 16.426,-35.84 c 0.74609,-2.2383 2.9883,-2.9883 5.2266,-1.4922 2.2383,0.74609 2.9883,2.9883 1.4922,5.2266 l -16.426,35.84 c -0.75,0.74609 -2.2422,1.4922 -3.7344,1.4922 z"
       id="path117"
       style="fill:#ffffff" />
    <path
       d="m 526.96,315.09 h -38.828 c -2.2383,0 -3.7344,-1.4922 -3.7344,-3.7344 0,-2.2383 1.4922,-3.7344 3.7344,-3.7344 h 27.625 l -28.375,-60.48 c -0.74609,-2.2383 0,-3.7344 1.4922,-5.2266 1.4922,-0.74609 3.7344,0 5.2266,1.4922 z"
       id="path119"
       style="fill:#ffffff" />
    <path
       d="m 488.13,373.33 c -2.2383,0 -3.7344,-1.4922 -3.7344,-3.7344 v -58.238 c 0,-2.2383 1.4922,-3.7344 3.7344,-3.7344 2.2383,0 3.7344,1.4922 3.7344,3.7344 v 58.238 c 0,2.2422 -2.2422,3.7344 -3.7344,3.7344 z"
       id="path121"
       style="fill:#ffffff" />
    <path
       d="m 562.8,373.33 h -448 c -2.2383,0 -3.7344,-1.4922 -3.7344,-3.7344 0,-2.2383 1.4922,-3.7305 3.7344,-3.7305 h 448 c 2.2383,0 3.7344,1.4922 3.7344,3.7344 0,2.2383 -2.2422,3.7305 -3.7344,3.7305 z"
       id="path123"
       style="fill:#ffffff" />
    <path
       d="m 376.88,221.01 c -7.4648,0 -11.945,-4.4805 -28.375,-21.652 l -0.74609,-0.74609 c -31.359,-32.105 -41.066,-41.812 -47.785,-40.32 -1.4922,0 -4.4805,4.4805 -13.441,18.668 l -2.9883,3.7344 c -14.934,22.398 -20.906,31.359 -28.375,29.121 -2.9883,-0.74609 -3.7344,-2.2383 -5.2266,-4.4805 -0.74609,-0.74609 -1.4922,-1.4922 -2.2383,-2.9883 -2.2383,-2.2383 -3.7344,-2.9883 -3.7344,-3.7344 -0.74609,0 -2.9883,-2.2383 -5.9727,-3.7344 -2.2383,0 -14.188,5.9727 -32.852,24.641 -1.4922,1.4922 -3.7344,1.4922 -5.2266,0 -1.4922,-1.4922 -1.4922,-3.7344 0,-5.2266 14.188,-14.188 33.602,-29.867 41.066,-26.879 3.7344,1.4922 6.7188,3.7344 6.7188,4.4805 0.74609,0.74609 2.9883,2.2383 5.2266,5.2266 1.4922,1.4922 2.2383,2.2383 2.9883,3.7344 0.74609,0.74609 0.74609,1.4922 1.4922,1.4922 2.9883,0 10.453,-11.945 20.16,-26.133 l 2.9883,-3.7344 c 12.691,-18.668 13.441,-20.16 17.922,-21.652 10.453,-2.2383 17.922,5.2266 54.508,42.559 l 0.74609,0.74609 c 15.68,16.426 19.414,20.16 23.148,19.414 5.2266,0 8.2148,-8.9609 11.945,-17.922 3.7344,-11.199 8.2148,-23.148 18.668,-26.879 17.172,-5.9727 38.078,14.934 52.266,30.613 1.4922,1.4922 1.4922,3.7344 0,5.2266 -1.4922,1.4922 -3.7344,1.4922 -5.2266,0 -19.414,-22.398 -34.348,-32.105 -44.055,-28.375 -7.4648,2.2383 -10.453,12.691 -14.188,22.398 -3.7344,10.457 -8.2148,22.402 -19.414,22.402 0.74609,0 0.74609,0 0,0 z"
       id="path125"
       style="fill:#ffffff" />
  </g>
</svg>
