<?xml version="1.0" encoding="UTF-8" standalone="no"?>
<svg
   width="444.86511pt"
   height="360.8009pt"
   version="1.1"
   viewBox="0 0 444.86511 360.8009"
   id="svg152"
   sodipodi:docname="photo.svg"
   inkscape:version="1.2 (1:1.2+202206011327+fc4e4096c5)"
   xmlns:inkscape="http://www.inkscape.org/namespaces/inkscape"
   xmlns:sodipodi="http://sodipodi.sourceforge.net/DTD/sodipodi-0.dtd"
   xmlns="http://www.w3.org/2000/svg"
   xmlns:svg="http://www.w3.org/2000/svg">
  <sodipodi:namedview
     id="namedview154"
     pagecolor="#ffffff"
     bordercolor="#666666"
     borderopacity="1.0"
     inkscape:showpageshadow="2"
     inkscape:pageopacity="0.0"
     inkscape:pagecheckerboard="0"
     inkscape:deskcolor="#d1d1d1"
     inkscape:document-units="pt"
     showgrid="false"
     inkscape:zoom="0.25285714"
     inkscape:cx="298.58757"
     inkscape:cy="332.20339"
     inkscape:window-width="1920"
     inkscape:window-height="1009"
     inkscape:window-x="0"
     inkscape:window-y="34"
     inkscape:window-maximized="1"
     inkscape:current-layer="g150" />
  <defs
     id="defs62">
    <symbol
       id="t"
       overflow="visible">
      <path
         d="m 14.656,-0.875 c -0.76172,0.39844 -1.5547,0.69531 -2.375,0.89062 -0.8125,0.19531 -1.6641,0.29688 -2.5469,0.29688 -2.6562,0 -4.7617,-0.73828 -6.3125,-2.2188 -1.5547,-1.4883 -2.3281,-3.5039 -2.3281,-6.0469 0,-2.5508 0.77344,-4.5664 2.3281,-6.0469 1.5508,-1.4883 3.6562,-2.2344 6.3125,-2.2344 0.88281,0 1.7344,0.10156 2.5469,0.29688 0.82031,0.19922 1.6133,0.49609 2.375,0.89062 v 3.2969 c -0.76172,-0.51953 -1.5117,-0.89844 -2.25,-1.1406 -0.74219,-0.23828 -1.5234,-0.35938 -2.3438,-0.35938 -1.4688,0 -2.625,0.46875 -3.4688,1.4062 -0.83594,0.9375 -1.25,2.2344 -1.25,3.8906 0,1.6484 0.41406,2.9375 1.25,3.875 0.84375,0.9375 2,1.4062 3.4688,1.4062 0.82031,0 1.6016,-0.11719 2.3438,-0.35938 0.73828,-0.23828 1.4883,-0.61719 2.25,-1.1406 z"
         id="path2" />
    </symbol>
    <symbol
       id="b"
       overflow="visible">
      <path
         d="m 10.719,-8.7031 c -0.33594,-0.15625 -0.66797,-0.26953 -1,-0.34375 -0.32422,-0.082031 -0.65625,-0.125 -1,-0.125 -0.98047,0 -1.7344,0.32031 -2.2656,0.95312 -0.53125,0.625 -0.79688,1.5273 -0.79688,2.7031 V -3e-5 h -3.8125 v -11.969 h 3.8125 v 1.9688 c 0.48828,-0.78125 1.0508,-1.3477 1.6875,-1.7031 0.64453,-0.36328 1.4102,-0.54688 2.2969,-0.54688 0.13281,0 0.27344,0.0078 0.42188,0.01563 0.14453,0.01172 0.36328,0.03125 0.65625,0.0625 z"
         id="path5" />
    </symbol>
    <symbol
       id="a"
       overflow="visible">
      <path
         d="m 13.781,-6.0156 v 1.0938 H 4.8435 c 0.09375,0.89844 0.41406,1.5703 0.96875,2.0156 0.55078,0.44922 1.3281,0.67188 2.3281,0.67188 0.80078,0 1.625,-0.11719 2.4688,-0.35938 0.84375,-0.23828 1.7109,-0.59766 2.6094,-1.0781 v 2.9531 c -0.90625,0.33594 -1.8125,0.58984 -2.7188,0.76562 -0.9063,0.17578 -1.8125,0.26562 -2.7188,0.26562 -2.1562,0 -3.8398,-0.54688 -5.0469,-1.6406 -1.1992,-1.1016 -1.7969,-2.6484 -1.7969,-4.6406 0,-1.9453 0.58594,-3.4766 1.7656,-4.5938 1.1758,-1.125 2.8008,-1.6875 4.875,-1.6875 1.875,0 3.375,0.57031 4.5,1.7031 1.1328,1.125 1.7031,2.6367 1.7031,4.5312 z M 9.8435,-7.2812 c 0,-0.72656 -0.21484,-1.3125 -0.64062,-1.75 -0.41797,-0.44531 -0.96875,-0.67188 -1.6562,-0.67188 -0.74219,0 -1.3438,0.21094 -1.8125,0.625 -0.46094,0.41797 -0.74609,1.0156 -0.85938,1.7969 z"
         id="path8" />
    </symbol>
    <symbol
       id="k"
       overflow="visible">
      <path
         d="m 7.2031,-5.3906 c -0.80469,0 -1.4062,0.13672 -1.8125,0.40625 -0.39844,0.27344 -0.59375,0.67188 -0.59375,1.2031 0,0.48047 0.16016,0.85938 0.48438,1.1406 0.32031,0.27344 0.77344,0.40625 1.3594,0.40625 0.71875,0 1.3203,-0.25391 1.8125,-0.76562 0.48828,-0.51953 0.73438,-1.1719 0.73438,-1.9531 v -0.4375 z m 5.8438,-1.4375 V 0 H 9.1875 v -1.7656 c -0.51172,0.71875 -1.0898,1.2461 -1.7344,1.5781 -0.63672,0.33203 -1.418,0.5 -2.3438,0.5 -1.2422,0 -2.2461,-0.35938 -3.0156,-1.0781 -0.77344,-0.72656 -1.1562,-1.6719 -1.1562,-2.8281 0,-1.3945 0.47656,-2.4219 1.4375,-3.0781 0.96875,-0.65625 2.4883,-0.98438 4.5625,-0.98438 h 2.25 v -0.29688 c 0,-0.60156 -0.24219,-1.0469 -0.71875,-1.3281 -0.48047,-0.28125 -1.2266,-0.42188 -2.2344,-0.42188 -0.8125,0 -1.5742,0.085937 -2.2812,0.25 -0.71094,0.15625 -1.3672,0.40234 -1.9688,0.73438 v -2.9219 c 0.82031,-0.19531 1.6445,-0.34766 2.4688,-0.45312 0.82031,-0.10156 1.6484,-0.15625 2.4844,-0.15625 2.1562,0 3.7109,0.42969 4.6719,1.2812 0.95703,0.84375 1.4375,2.2266 1.4375,4.1406 z"
         id="path11" />
    </symbol>
    <symbol
       id="d"
       overflow="visible">
      <path
         d="m 6.0156,-15.359 v 3.3906 H 9.9531 V -9.234 H 6.0156 v 5.0781 c 0,0.55469 0.10938,0.92969 0.32812,1.125 0.21875,0.19922 0.65625,0.29688 1.3125,0.29688 h 1.9688 v 2.7344 h -3.2812 c -1.5117,0 -2.5859,-0.3125 -3.2188,-0.9375 -0.625,-0.63281 -0.9375,-1.707 -0.9375,-3.2188 v -5.0781 h -1.9062 v -2.7344 h 1.9062 v -3.3906 z"
         id="path14" />
    </symbol>
    <symbol
       id="j"
       overflow="visible">
      <path
         d="m 9.9688,-10.219 v -6.4062 h 3.8594 V -2e-4 H 9.9688 V -1.7346 C 9.44536,-1.02366 8.8672,-0.5041 8.2344,-0.1721 7.59768,0.14821 6.8633,0.31228 6.0313,0.31228 c -1.4688,0 -2.6797,-0.58203 -3.625,-1.75 -0.94922,-1.1758 -1.4219,-2.6875 -1.4219,-4.5312 0,-1.8437 0.47266,-3.3477 1.4219,-4.5156 0.94531,-1.1758 2.1562,-1.7656 3.625,-1.7656 0.83203,0 1.5664,0.16797 2.2031,0.5 0.63281,0.32422 1.2109,0.83594 1.7344,1.5312 z m -2.5156,7.75 c 0.82031,0 1.4453,-0.29688 1.875,-0.89062 0.42578,-0.60156 0.64062,-1.4727 0.64062,-2.6094 0,-1.1445 -0.21484,-2.0156 -0.64062,-2.6094 -0.42969,-0.59375 -1.0547,-0.89062 -1.875,-0.89062 -0.8125,0 -1.4336,0.29688 -1.8594,0.89062 -0.42969,0.59375 -0.64062,1.4648 -0.64062,2.6094 0,1.1367 0.21094,2.0078 0.64062,2.6094 0.42578,0.59375 1.0469,0.89062 1.8594,0.89062 z"
         id="path17" />
    </symbol>
    <symbol
       id="i"
       overflow="visible">
      <path
         d="m 8.2031,-2.4688 c 0.82031,0 1.4453,-0.29688 1.875,-0.89062 0.42578,-0.60156 0.64062,-1.4727 0.64062,-2.6094 0,-1.1445 -0.21484,-2.0156 -0.64062,-2.6094 -0.42969,-0.59375 -1.0547,-0.89062 -1.875,-0.89062 -0.82422,0 -1.4531,0.30469 -1.8906,0.90625 -0.4375,0.59375 -0.65625,1.4609 -0.65625,2.5938 0,1.1367 0.21875,2.0078 0.65625,2.6094 0.4375,0.59375 1.0664,0.89062 1.8906,0.89062 z m -2.5469,-7.75 c 0.53125,-0.69531 1.1133,-1.207 1.75,-1.5312 0.64453,-0.33203 1.3828,-0.5 2.2188,-0.5 1.4688,0 2.6758,0.58984 3.625,1.7656 0.94531,1.168 1.4219,2.6719 1.4219,4.5156 0,1.8437 -0.47656,3.3555 -1.4219,4.5312 -0.94922,1.168 -2.1562,1.75 -3.625,1.75 -0.83594,0 -1.5742,-0.16797 -2.2188,-0.5 -0.63672,-0.33203 -1.2188,-0.84766 -1.75,-1.5469 V -1e-4 H 1.8437 v -16.625 h 3.8125 z"
         id="path20" />
    </symbol>
    <symbol
       id="e"
       overflow="visible">
      <path
         d="m 0.26562,-11.969 h 3.8281 l 3.2188,8.125 2.7344,-8.125 h 3.8125 L 8.82822,1.125 c -0.5,1.332 -1.0898,2.2656 -1.7656,2.7969 -0.66797,0.53125 -1.5547,0.79688 -2.6562,0.79688 h -2.2188 v -2.5 h 1.2031 c 0.64453,0 1.1133,-0.10547 1.4062,-0.3125 C 5.0977,1.69534 5.32817,1.32816 5.48442,0.79688 L 5.5938,0.45313 Z"
         id="path23" />
    </symbol>
    <symbol
       id="h"
       overflow="visible">
      <path
         d="m 0.32812,-11.969 h 3.8281 l 2.9844,8.2656 2.9688,-8.2656 h 3.8281 L 9.23442,0 h -4.2031 z"
         id="path26" />
    </symbol>
    <symbol
       id="s"
       overflow="visible">
      <path
         d="M 5.6562,-1.7344 V 4.5468 H 1.8437 v -16.516 h 3.8125 v 1.75 c 0.53125,-0.69531 1.1133,-1.207 1.75,-1.5312 0.64453,-0.33203 1.3828,-0.5 2.2188,-0.5 1.4688,0 2.6758,0.58984 3.625,1.7656 0.94531,1.168 1.4219,2.6719 1.4219,4.5156 0,1.8437 -0.47656,3.3555 -1.4219,4.5312 -0.94922,1.168 -2.1562,1.75 -3.625,1.75 -0.83594,0 -1.5742,-0.16797 -2.2188,-0.5 -0.63672,-0.33203 -1.2188,-0.84766 -1.75,-1.5469 z m 2.5469,-7.7344 c -0.82422,0 -1.4531,0.30469 -1.8906,0.90625 -0.4375,0.59375 -0.65625,1.4609 -0.65625,2.5938 0,1.1367 0.21875,2.0078 0.65625,2.6094 0.4375,0.59375 1.0664,0.89062 1.8906,0.89062 0.82031,0 1.4453,-0.29688 1.875,-0.89062 0.42578,-0.60156 0.64062,-1.4727 0.64062,-2.6094 0,-1.1445 -0.21484,-2.0156 -0.64062,-2.6094 C 9.64841,-9.1719 9.0234,-9.46877 8.2031,-9.46877 Z"
         id="path29" />
    </symbol>
    <symbol
       id="c"
       overflow="visible">
      <path
         d="m 7.5312,-9.5156 c -0.84375,0 -1.4922,0.30859 -1.9375,0.92188 -0.44922,0.60547 -0.67188,1.4805 -0.67188,2.625 0,1.1484 0.22266,2.0273 0.67188,2.6406 0.44531,0.60547 1.0938,0.90625 1.9375,0.90625 0.83203,0 1.4688,-0.30078 1.9062,-0.90625 0.44531,-0.61328 0.67188,-1.4922 0.67188,-2.6406 0,-1.1445 -0.22656,-2.0195 -0.67188,-2.625 C 8.9999,-9.207 8.3632,-9.5156 7.5312,-9.5156 Z m 0,-2.7344 c 2.0508,0 3.6562,0.55859 4.8125,1.6719 1.1641,1.1055 1.75,2.6406 1.75,4.6094 0,1.9688 -0.58594,3.5117 -1.75,4.625 -1.1562,1.1055 -2.7617,1.6562 -4.8125,1.6562 -2.0625,0 -3.6797,-0.55078 -4.8438,-1.6562 -1.168,-1.1133 -1.75,-2.6562 -1.75,-4.625 0,-1.9688 0.58203,-3.5039 1.75,-4.6094 1.1641,-1.1133 2.7812,-1.6719 4.8438,-1.6719 z"
         id="path32" />
    </symbol>
    <symbol
       id="g"
       overflow="visible">
      <path
         d="M 13.859,-7.2812 V 0 h -3.8438 v -5.5781 c 0,-1.0312 -0.027344,-1.7383 -0.078125,-2.125 -0.042969,-0.39453 -0.12109,-0.6875 -0.23438,-0.875 -0.14844,-0.25 -0.35156,-0.44141 -0.60938,-0.57812 -0.25,-0.14453 -0.54297,-0.21875 -0.875,-0.21875 -0.79297,0 -1.418,0.3125 -1.875,0.9375 -0.46094,0.61719 -0.6875,1.4648 -0.6875,2.5469 V 3e-5 h -3.8125 v -11.969 h 3.8125 v 1.75 c 0.58203,-0.69531 1.1953,-1.207 1.8438,-1.5312 0.64453,-0.33203 1.3594,-0.5 2.1406,-0.5 1.3828,0 2.4297,0.42969 3.1406,1.2812 0.71875,0.84375 1.0781,2.0742 1.0781,3.6875 z"
         id="path35" />
    </symbol>
    <symbol
       id="f"
       overflow="visible">
      <path
         d="m 12.922,-9.9688 c 0.48828,-0.75 1.0625,-1.3164 1.7188,-1.7031 0.66406,-0.38281 1.3984,-0.57812 2.2031,-0.57812 1.375,0 2.4219,0.42969 3.1406,1.2812 0.71875,0.84375 1.0781,2.0742 1.0781,3.6875 v 7.2812 h -3.8438 v -6.2344 c 0.0078,-0.09375 0.01563,-0.1875 0.01563,-0.28125 v -0.4375 c 0,-0.84375 -0.125,-1.457 -0.375,-1.8438 -0.25,-0.38281 -0.65234,-0.57812 -1.2031,-0.57812 -0.73047,0 -1.293,0.30469 -1.6875,0.90625 -0.38672,0.59375 -0.58984,1.4609 -0.60938,2.5938 v 5.875 h -3.8438 v -6.2344 c 0,-1.3203 -0.11719,-2.1758 -0.34375,-2.5625 -0.23047,-0.38281 -0.63672,-0.57812 -1.2188,-0.57812 -0.73047,0 -1.2969,0.30469 -1.7031,0.90625 -0.39844,0.60547 -0.59375,1.4648 -0.59375,2.5781 v 5.8906 h -3.8438 v -11.969 h 3.8438 v 1.75 c 0.46875,-0.66406 1.0039,-1.1719 1.6094,-1.5156 0.61328,-0.34375 1.2891,-0.51562 2.0312,-0.51562 0.82031,0 1.5508,0.19922 2.1875,0.59375 0.63281,0.39844 1.1133,0.96094 1.4375,1.6875 z"
         id="path38" />
    </symbol>
    <symbol
       id="r"
       overflow="visible">
      <path
         d="m 9.7031,-16.625 v 2.5156 H 7.5937 c -0.54297,0 -0.92188,0.10156 -1.1406,0.29688 -0.21094,0.19922 -0.3125,0.53906 -0.3125,1.0156 v 0.82812 h 3.2656 v 2.7344 H 6.1406 V 0 H 2.3125 V -9.2344 H 0.4219 v -2.7344 h 1.8906 v -0.82812 c 0,-1.3008 0.36328,-2.2656 1.0938,-2.8906 0.72656,-0.625 1.8516,-0.9375 3.375,-0.9375 z"
         id="path41" />
    </symbol>
    <symbol
       id="q"
       overflow="visible">
      <path
         d="M 13.859,-7.2812 V 0 h -3.8438 v -5.5469 c 0,-1.0508 -0.027344,-1.7695 -0.078125,-2.1562 -0.042969,-0.39453 -0.12109,-0.6875 -0.23438,-0.875 -0.14844,-0.25 -0.35156,-0.44141 -0.60938,-0.57812 -0.25,-0.14453 -0.54297,-0.21875 -0.875,-0.21875 -0.79297,0 -1.418,0.3125 -1.875,0.9375 -0.46094,0.61719 -0.6875,1.4648 -0.6875,2.5469 V 3e-5 h -3.8125 v -16.625 h 3.8125 v 6.4062 c 0.58203,-0.69531 1.1953,-1.207 1.8438,-1.5312 0.64453,-0.33203 1.3594,-0.5 2.1406,-0.5 1.3828,0 2.4297,0.42969 3.1406,1.2812 0.71875,0.84375 1.0781,2.0742 1.0781,3.6875 z"
         id="path44" />
    </symbol>
    <symbol
       id="p"
       overflow="visible">
      <path
         d="m 2.0156,-15.953 h 4.5781 l 5.8125,10.938 v -10.938 h 3.8906 V 0 H 11.703 L 5.9061,-10.938 V 0 H 2.0155 Z"
         id="path47" />
    </symbol>
    <symbol
       id="o"
       overflow="visible">
      <path
         d="m 1.7031,-4.6562 v -7.3125 h 3.8438 v 1.2031 c 0,0.64844 -0.00781,1.4609 -0.015625,2.4375 v 1.9688 c 0,0.96094 0.023438,1.6523 0.078125,2.0781 0.050781,0.41797 0.13281,0.72656 0.25,0.92188 0.15625,0.25 0.35938,0.44531 0.60938,0.57812 0.25781,0.13672 0.55078,0.20312 0.875,0.20312 0.80078,0 1.4258,-0.30469 1.875,-0.92188 0.45703,-0.61328 0.6875,-1.4688 0.6875,-2.5625 v -5.9062 h 3.8281 v 11.969 h -3.8281 v -1.7344 c -0.57422,0.69922 -1.1836,1.2148 -1.8281,1.5469 -0.64844,0.33203 -1.3555,0.5 -2.125,0.5 -1.3867,0 -2.4453,-0.42188 -3.1719,-1.2656 -0.71875,-0.85156 -1.0781,-2.0859 -1.0781,-3.7031 z"
         id="path50" />
    </symbol>
    <symbol
       id="n"
       overflow="visible">
      <path
         d="m 2.0156,-15.953 h 6.8125 c 2.0312,0 3.5859,0.45312 4.6719,1.3594 1.0938,0.89844 1.6406,2.1797 1.6406,3.8438 0,1.6797 -0.54688,2.9688 -1.6406,3.875 -1.0859,0.89844 -2.6406,1.3438 -4.6719,1.3438 H 6.125 V 2e-4 H 2.0156 Z m 4.1094,2.9844 v 4.4531 h 2.2656 c 0.80078,0 1.4141,-0.19141 1.8438,-0.57812 0.4375,-0.38281 0.65625,-0.9375 0.65625,-1.6562 0,-0.70703 -0.21875,-1.2539 -0.65625,-1.6406 -0.42969,-0.38281 -1.043,-0.57812 -1.8438,-0.57812 z"
         id="path53" />
    </symbol>
    <symbol
       id="m"
       overflow="visible">
      <path
         d="m 1.8438,-11.969 h 3.8125 v 11.75 c 0,1.6016 -0.38672,2.8281 -1.1562,3.6719 C 3.73838,4.29665 2.629,4.7185 1.172,4.7185 h -1.8906 v -2.5 h 0.65625 c 0.72656,0 1.2266,-0.16797 1.5,-0.5 C 1.70718,1.39428 1.8439,0.74975 1.8439,-0.219 Z m 0,-4.6562 h 3.8125 v 3.125 H 1.8438 Z"
         id="path56" />
    </symbol>
    <symbol
       id="l"
       overflow="visible">
      <path
         d="m 11.5,-11.594 v 3.125 C 10.97656,-8.82056 10.457,-9.08228 9.9375,-9.25025 9.41406,-9.42603 8.875,-9.51587 8.3125,-9.51587 c -1.0742,0 -1.9062,0.3125 -2.5,0.9375 -0.5938,0.625 -0.89062,1.4961 -0.89062,2.6094 0,1.1172 0.29688,1.9844 0.89062,2.6094 0.59374,0.625 1.4258,0.9375 2.5,0.9375 0.59375,0 1.1562,-0.085937 1.6875,-0.26562 0.53906,-0.17578 1.0391,-0.44141 1.5,-0.79688 v 3.125 c -0.59375,0.23047 -1.1992,0.39453 -1.8125,0.5 -0.61719,0.11328 -1.2344,0.17188 -1.8594,0.17188 -2.1562,0 -3.8438,-0.55078 -5.0625,-1.6562 -1.2188,-1.1133 -1.8281,-2.6562 -1.8281,-4.625 0,-1.9688 0.60938,-3.5039 1.8281,-4.6094 1.2188,-1.1133 2.9062,-1.6719 5.0625,-1.6719 0.625,0 1.2383,0.05859 1.8438,0.17188 0.61328,0.10547 1.2227,0.26562 1.8281,0.48438 z"
         id="path59" />
    </symbol>
  </defs>
  <g
     id="g150"
     transform="translate(-127.55429,-99.6089)">
    <path
       d="M 572.11,219.07 553.2,160.785 c -0.87891,-2.7031 -3.3984,-4.5352 -6.2422,-4.5352 h -113 l -14.125,-51.805 c -0.77734,-2.8555 -3.375,-4.8359 -6.332,-4.8359 h -127.02 c -2.957,0 -5.5508,1.9805 -6.332,4.8359 l -14.125,51.805 h -33.164 v -22.609 c 0,-3.625 -2.9375,-6.5625 -6.5625,-6.5625 h -40.188 c -3.625,0 -6.5625,2.9375 -6.5625,6.5625 v 22.609 h -26.52 c -2.8438,0 -5.3633,1.832 -6.2422,4.5352 l -18.91,58.285 c -0.21094,0.65234 -0.32031,1.3398 -0.32031,2.0273 v 232.75 c 0,3.625 2.9375,6.5625 6.5625,6.5625 h 431.74 c 3.625,0 6.5625,-2.9375 6.5625,-6.5625 v -232.75 c 0.004,-0.69141 -0.10547,-1.3711 -0.31641,-2.0234 z M 192.68,140.195 h 27.062 v 16.047 H 192.68 Z m -34.871,29.172 h 113.23 c 2.957,0 5.5508,-1.9805 6.332,-4.8359 l 14.125,-51.805 116.99,0.004 14.125,51.805 c 0.77734,2.8555 3.375,4.8359 6.332,4.8359 h 113.24 l 17.113,52.762 v 16.027 l -124.97,-0.004 c -20.152,-24.176 -50.473,-39.594 -84.332,-39.594 -33.859,0 -64.18,15.418 -84.332,39.594 h -124.98 v -16.027 z m 401.49,220.05 h -135.4 c 22.023,-20.09 35.867,-49.008 35.867,-81.098 0,-20.875 -5.8633,-40.402 -16.02,-57.035 h 115.56 z m -418.61,-138.14 h 115.56 c -10.16,16.633 -16.02,36.164 -16.02,57.035 0,32.09 13.844,61.008 35.867,81.098 h -135.41 z m 158.85,139.44 c -0.19141,-0.14453 -0.39844,-0.26953 -0.61328,-0.39062 -27.336,-17.094 -45.57,-47.457 -45.57,-82.008 0,-53.281 43.355,-96.629 96.645,-96.629 30.625,0 57.953,14.336 75.672,36.633 0.11719,0.18359 0.26172,0.33984 0.39844,0.50781 12.871,16.414 20.57,37.066 20.57,59.492 0,34.672 -18.359,65.125 -45.855,82.184 -0.0352,0.0234 -0.0703,0.043 -0.10156,0.0664 -14.75,9.1211 -32.109,14.406 -50.688,14.406 -18.48,-0.004 -35.758,-5.2266 -50.457,-14.262 z m -158.85,56.559 v -44.734 h 153.05 c 16.465,9.8672 35.703,15.559 56.25,15.559 20.547,0 39.789,-5.6875 56.25,-15.559 h 153.05 v 44.734 z"
       id="path64"
       style="fill:#ffffff" />
    <path
       d="m 425.9,308.32 c 0,-41.848 -34.047,-75.895 -75.898,-75.895 -41.844,0 -75.883,34.047 -75.883,75.895 0,41.852 34.043,75.906 75.883,75.906 41.848,0 75.898,-34.051 75.898,-75.906 z m -138.66,0 c 0,-34.609 28.152,-62.77 62.758,-62.77 34.613,0 62.773,28.156 62.773,62.77 0,34.621 -28.16,62.781 -62.773,62.781 -34.605,0 -62.758,-28.164 -62.758,-62.781 z"
       id="path66"
       style="fill:#ffffff" />
    <path
       d="m 331.11,154.78 h 37.805 c 3.625,0 6.5625,-2.9375 6.5625,-6.5625 0,-3.625 -2.9375,-6.5625 -6.5625,-6.5625 H 331.11 c -3.625,0 -6.5625,2.9375 -6.5625,6.5625 0,3.6289 2.9336,6.5625 6.5625,6.5625 z"
       id="path68"
       style="fill:#ffffff" />
  </g>
</svg>
