<?xml version="1.0" encoding="UTF-8" standalone="no"?>
<svg
   width="73.530121"
   height="56.319458"
   version="1.1"
   viewBox="0 0 55.147591 42.239593"
   id="svg158"
   sodipodi:docname="noun-buy-104301.svg"
   inkscape:version="1.2 (1:1.2+202205241504+da316b6974)"
   xmlns:inkscape="http://www.inkscape.org/namespaces/inkscape"
   xmlns:sodipodi="http://sodipodi.sourceforge.net/DTD/sodipodi-0.dtd"
   xmlns="http://www.w3.org/2000/svg"
   xmlns:svg="http://www.w3.org/2000/svg">
  <sodipodi:namedview
     id="namedview160"
     pagecolor="#ffffff"
     bordercolor="#666666"
     borderopacity="1.0"
     inkscape:showpageshadow="2"
     inkscape:pageopacity="0.0"
     inkscape:pagecheckerboard="0"
     inkscape:deskcolor="#d1d1d1"
     inkscape:document-units="pt"
     showgrid="false"
     inkscape:zoom="4.0457143"
     inkscape:cx="74.399717"
     inkscape:cy="70.69209"
     inkscape:window-width="1920"
     inkscape:window-height="1009"
     inkscape:window-x="0"
     inkscape:window-y="34"
     inkscape:window-maximized="1"
     inkscape:current-layer="g156" />
  <defs
     id="defs68" />
  <g
     id="g156"
     transform="translate(-1.9854979,-6.3578394)">
    <path
       d="m 3.6101209,22.603721 h 5.1988345 l 6.1733616,24.758902 c 0.194918,0.714848 0.844932,1.23481 1.559734,1.23481 h 32.491995 c 0.714848,0 1.364894,-0.51993 1.559732,-1.23481 l 6.498401,-25.993598 c 0.194916,-0.84493 -0.325014,-1.754683 -1.169482,-1.949635 -0.844931,-0.194918 -1.754684,0.325012 -1.949635,1.169479 l -0.130095,0.389835 -6.043745,24.368997 H 17.906587 L 11.797976,20.978704 11.66788,20.588869 C 11.473416,19.874021 10.823402,19.354057 10.108496,19.354057 H 3.6100966 c -0.9097533,0 -1.6245987,0.714848 -1.6245987,1.624601 0,0.909753 0.7148454,1.624599 1.6245987,1.624599 z"
       id="path70"
       style="stroke-width:0.116043;fill:#ffffff" />
    <path
       d="m 31.683203,31.896433 c 0.325013,0.325013 0.714848,0.455109 1.169481,0.455109 0.455109,0 0.84493,-0.130096 1.169479,-0.455109 l 9.7476,-9.747601 c 0.325012,-0.325011 0.455106,-0.714845 0.455106,-1.169479 0,-0.455108 -0.130094,-0.84493 -0.455106,-1.169479 -0.650027,-0.650027 -1.689468,-0.650027 -2.274672,0 l -7.017925,7.017923 V 7.9824381 c 0,-0.9097524 -0.714846,-1.6245987 -1.624599,-1.6245987 -0.909753,0 -1.624598,0.7148463 -1.624598,1.6245987 V 26.827797 l -7.017925,-7.017923 c -0.650025,-0.650027 -1.689468,-0.650027 -2.274672,0 -0.325011,0.325012 -0.455106,0.714846 -0.455106,1.169479 0,0.455109 0.130095,0.844933 0.455106,1.169479 z"
       id="path76"
       style="stroke-width:0.116043;fill:#ffffff" />
  </g>
</svg>
